<?xml version="1.0" encoding="utf-8"?>
<!-- Generator: Adobe Illustrator 15.1.0, SVG Export Plug-In . SVG Version: 6.00 Build 0)  -->
<!DOCTYPE svg PUBLIC "-//W3C//DTD SVG 1.1//EN" "http://www.w3.org/Graphics/SVG/1.1/DTD/svg11.dtd">
<svg version="1.1" id="Layer_1" xmlns="http://www.w3.org/2000/svg" xmlns:xlink="http://www.w3.org/1999/xlink" x="0px" y="0px"
	 width="192.966px" height="175.264px" viewBox="21.884 43.755 192.966 175.264"
	 enable-background="new 21.884 43.755 192.966 175.264" xml:space="preserve">
<g id="Layer_2" display="none">
	<g display="inline">
		<g>
			<path fill="#E55A81" d="M250.208,238.411c0,5.5-4.5,10-10,10H18.843c-5.5,0-10-4.5-10-10V17.043c0-5.5,4.5-10,10-10h221.365
				c5.5,0,10,4.5,10,10V238.411L250.208,238.411z"/>
		</g>
		<g>
			<polygon fill="#F8BBD1" points="100.281,212.126 124.824,205.064 120.858,186.343 98.303,201.342 			"/>
			<polygon fill="#FBD9E7" points="156.854,212.126 132.313,205.064 136.277,186.343 158.836,201.342 			"/>
			<path fill="#F8BBD1" d="M65.88,129.461c0,1.641-1.332,2.975-2.977,2.975h-6.319c-1.643,0-2.975-1.334-2.975-2.975V111.24
				c0-1.646,1.332-2.973,2.975-2.973h6.319c1.645,0,2.977,1.327,2.977,2.973V129.461z"/>
			<path fill="#F8BBD1" d="M95.007,118.922c0,1.646-1.331,2.977-2.974,2.977h-6.319c-1.646,0-2.977-1.331-2.977-2.977v-18.221
				c0-1.641,1.331-2.972,2.977-2.972h6.319c1.643,0,2.974,1.331,2.974,2.972V118.922z"/>
			<path fill="#FBD9E7" d="M173.835,117.804c0,1.646-1.332,2.979-2.978,2.979h-6.318c-1.641,0-2.975-1.334-2.975-2.979V99.588
				c0-1.641,1.334-2.975,2.975-2.975h6.318c1.646,0,2.978,1.334,2.978,2.975V117.804z"/>
			<path fill="#FBD9E7" d="M202.837,131.564c0,1.643-1.328,2.975-2.974,2.975h-6.324c-1.639,0-2.969-1.332-2.969-2.975v-18.216
				c0-1.646,1.33-2.977,2.969-2.977h6.324c1.646,0,2.974,1.331,2.974,2.977V131.564z"/>
			<path fill="#FBD9E7" d="M144.173,68.518l-0.375,74.505v0.224c-0.01,0.093-0.032,0.226-0.055,0.385
				c-0.985,6.884-10.119,69.735-14.962,69.05c-4.765,3.42-14.259-62.229-15.227-69.05l0,0l-0.495-75.113
				c0,0,4.063-26.944,15.494-31.182c0.017-0.013,0.036-0.018,0.061-0.027c0.02,0.01,0.045,0.015,0.062,0.027
				C140.109,41.573,144.173,68.518,144.173,68.518z"/>
			<polygon fill="#F8BBD1" points="114.962,135.407 113.847,94.507 36.134,132.807 36.505,141.729 			"/>
			<polygon fill="#FBD9E7" points="142.85,135.902 143.964,95 221.677,133.301 221.305,142.227 			"/>
			<path fill="#F8BBD1" d="M128.781,212.68c-4.765,3.422-14.259-62.229-15.227-69.049l0,0l-0.495-75.113
				c0,0,4.063-26.944,15.494-31.182c0.017-0.013,0.036-0.018,0.061-0.027c0.02,0.01,0.045,0.015,0.062,0.027"/>
			<path fill="#F392B0" d="M119.606,58.379c0.122-0.488,0.306-0.953,0.515-1.41c0.206-0.455,0.441-0.895,0.698-1.326
				c0.527-0.855,1.158-1.66,1.891-2.389c0.738-0.726,1.594-1.378,2.577-1.868c0.981-0.487,2.102-0.812,3.267-0.843
				c1.157-0.04,2.324,0.225,3.34,0.705c1.015,0.477,1.883,1.148,2.609,1.898c0.727,0.76,1.326,1.586,1.813,2.469
				c0.242,0.439,0.468,0.891,0.656,1.35c0.189,0.458,0.354,0.926,0.479,1.414c-0.761-0.652-1.459-1.312-2.181-1.917
				c-0.711-0.616-1.424-1.189-2.16-1.673c-0.729-0.485-1.473-0.888-2.228-1.147c-0.75-0.265-1.497-0.392-2.258-0.368
				c-1.511,0.035-3.07,0.694-4.573,1.648c-0.756,0.471-1.491,1.018-2.227,1.604C121.09,57.109,120.361,57.731,119.606,58.379z"/>
		</g>
	</g>
</g>
<g id="Layer_3" display="none">
	<g display="inline">
		<g>
			<path fill="#E55A81" d="M250.208,238.411c0,5.5-4.5,10-10,10H18.843c-5.5,0-10-4.5-10-10V17.044c0-5.5,4.5-10,10-10h221.365
				c5.5,0,10,4.5,10,10V238.411L250.208,238.411z"/>
		</g>
		<g>
			<g>
				<path fill="#FBDCE6" d="M199.529,21.312c-2.822,2.342-4.672,6.329-5.029,10.649l5.26,4.841
					c-0.701-4.14,0.801-8.725,3.518-10.982c3.767-3.127,10.041-1.808,13.992,2.944c3.948,4.755,4.097,11.167,0.33,14.293
					c-2.121,1.763-5.5,2.538-8.758,2.104l5.748,5.284c2.594-0.404,4.963-1.383,6.758-2.873c5.735-4.771,5.51-14.533-0.502-21.777
					C214.827,18.559,205.266,16.545,199.529,21.312z"/>
			</g>
			<path fill="#FFFFFF" d="M203.244,85.509l-20.251,16.825c-1.479,1.231-3.774,0.92-5.115-0.701l-6.524-10.127L162.837,78.3
				l-11.063-17.174c-1.344-1.619-1.231-3.929,0.246-5.159l15.783-13.116"/>
			<path fill="#FBDCE6" d="M203.098,85.634l20.254-16.828c1.479-1.229,1.588-3.541,0.244-5.159l-8.756-8.269l-11.427-10.791
				l-14.856-14.021c-1.347-1.62-3.637-1.934-5.117-0.703l-15.782,13.115"/>
			<polygon fill="#FFFFFF" points="130.102,85.511 157.096,75.804 164.641,87.851 133.45,92.573 			"/>
			<polyline fill="#FFFFFF" points="117.808,84.736 125.998,102.785 130.62,93.259 127.332,86.251 			"/>
		</g>
		<rect x="78.591" y="159.959" fill="#FFFFFF" width="4.367" height="67.729"/>
		<path fill="#F7B6D0" d="M85.138,191.148c0,0,15.999-23.088,40.179-3.092C125.316,188.057,100.043,192.419,85.138,191.148z"/>
		<path fill="#FBDCE6" d="M75.503,190.968c0,0-15.999-23.091-40.179-3.095C35.324,187.873,60.598,192.232,75.503,190.968z"/>
		<path fill="#F7B6D0" d="M85.483,169.609c0,0,8.736-12.61,21.943-1.688C107.427,167.923,93.624,170.307,85.483,169.609z"/>
		<path fill="#FBDCE6" d="M76.616,169.316c0,0-8.741-12.616-21.95-1.689C54.666,167.627,68.469,170.01,76.616,169.316z"/>
		<path fill="#FFFFFF" d="M96.218,123.763c0,8.744-7.086,15.828-15.828,15.828c-8.738,0-15.822-7.084-15.822-15.828
			c0-8.739,7.084-15.82,15.822-15.82C89.132,107.942,96.218,115.023,96.218,123.763z"/>
		<path fill="#FBDCE6" d="M99.231,120.202l2.543,4.026l12.149-0.128C113.924,124.101,108.652,114.332,99.231,120.202z"/>
		<path fill="#F7B6D0" d="M99.308,128.305l2.459-4.076l12.152-0.118C113.919,124.11,108.846,133.986,99.308,128.305z"/>
		<path fill="#FBDCE6" d="M95.083,111.276l3.847,2.801l11.24-4.603C110.17,109.475,101.669,102.334,95.083,111.276z"/>
		<path fill="#F7B6D0" d="M98.138,118.775l0.787-4.696l11.245-4.595C110.17,109.484,109.106,120.54,98.138,118.775z"/>
		<path fill="#FBDCE6" d="M86.683,105.701l4.749,0.302l7.027-9.904C98.459,96.099,87.452,94.628,86.683,105.701z"/>
		<path fill="#F7B6D0" d="M93.278,110.396l-1.852-4.387l7.037-9.903C98.464,96.106,103.483,106.013,93.278,110.396z"/>
		<path fill="#FBDCE6" d="M76.15,105.124l4.107-2.402l0.289-12.143C80.547,90.579,70.597,95.508,76.15,105.124z"/>
		<path fill="#F7B6D0" d="M84.242,105.331l-3.989-2.602l0.307-12.146C80.56,90.584,90.257,95.993,84.242,105.331z"/>
		<path fill="#FBDCE6" d="M85.721,142.143l-4.021,2.539l0.125,12.146C81.825,156.828,91.601,151.563,85.721,142.143z"/>
		<path fill="#F7B6D0" d="M77.622,142.212l4.08,2.461l0.115,12.152C81.817,156.825,71.938,151.75,77.622,142.212z"/>
		<path fill="#FBDCE6" d="M95.179,137.283l-2.801,3.85l4.603,11.242C96.98,152.375,104.118,143.869,95.179,137.283z"/>
		<path fill="#F7B6D0" d="M87.681,140.341l4.697,0.784l4.591,11.25C96.969,152.375,85.917,151.307,87.681,140.341z"/>
		<path fill="#FBDCE6" d="M99.342,129.063l-0.304,4.748l9.913,7.027C108.951,140.839,110.423,129.834,99.342,129.063z"/>
		<path fill="#F7B6D0" d="M94.646,135.659l4.389-1.858l9.904,7.042C108.939,140.843,99.035,145.865,94.646,135.659z"/>
		<path fill="#FBDCE6" d="M62.589,129.188l-2.543-4.025l-12.147,0.128C47.898,125.288,53.165,135.063,62.589,129.188z"/>
		<path fill="#F7B6D0" d="M62.515,121.087l-2.461,4.073l-12.152,0.12C47.901,125.28,52.977,115.401,62.515,121.087z"/>
		<path fill="#FBDCE6" d="M67.588,137.663l-4.181-2.293l-10.556,6.013C52.852,141.383,62.204,147.37,67.588,137.663z"/>
		<path fill="#F7B6D0" d="M63.587,130.613l-0.172,4.757l-10.563,6.003C52.852,141.373,52.491,130.273,63.587,130.613z"/>
		<path fill="#FBDCE6" d="M75.67,142.809l-4.749-0.306l-7.03,9.911C63.891,152.414,74.893,153.883,75.67,142.809z"/>
		<path fill="#F7B6D0" d="M69.067,138.111l1.854,4.387l-7.037,9.9C63.884,152.398,58.869,142.498,69.067,138.111z"/>
		<path fill="#FBDCE6" d="M67.625,109.827l2.175-4.231l-6.289-10.399C63.511,95.196,57.772,104.705,67.625,109.827z"/>
		<path fill="#F7B6D0" d="M74.562,105.647l-4.759-0.045l-6.277-10.406C63.525,95.196,74.613,94.549,74.562,105.647z"/>
		<path fill="#FBDCE6" d="M62.274,118.954l0.305-4.752l-9.911-7.022C52.668,107.18,51.201,118.182,62.274,118.954z"/>
		<path fill="#F7B6D0" d="M66.97,112.354l-4.386,1.858l-9.906-7.042C52.678,107.17,62.584,102.15,66.97,112.354z"/>
	</g>
</g>
<g id="Layer_4" display="none">
	<g display="inline">
		<g>
			<path fill="#E55A81" d="M250.208,238.411c0,5.5-4.5,10-10,10H18.843c-5.5,0-10-4.5-10-10V17.044c0-5.5,4.5-10,10-10h221.365
				c5.5,0,10,4.5,10,10V238.411L250.208,238.411z"/>
		</g>
		<path fill="#FFFFFF" d="M168.32,161.423c-0.02-0.039-0.032-0.08-0.057-0.125h0.047C168.311,161.298,168.32,161.343,168.32,161.423
			z"/>
		<path fill="#FBD9E7" d="M135.225,209.302c-10.843,0-13.898-7.118-13.912-10.401h-0.035v-22.368h26.001v20.884l0,0
			C147.279,197.414,148.438,209.302,135.225,209.302z"/>
		<path fill="#F392B0" d="M134.546,177.03h12.569v20.882l0,0c0,0,1.152,11.893-12.055,11.893"/>
		<g>
			<path fill="#FFFFFF" d="M175.766,93.98v65.127c0,4.377-29.558,20.804-33.935,20.804l-14.859,0.332
				c-4.38,0-40.032-16.759-40.032-21.136V92.223c4.328-20.458,22.492-35.814,44.248-35.814
				C153.557,56.408,172.121,72.65,175.766,93.98z"/>
		</g>
		<path fill="#F392B0" d="M108.959,62.023c0,0-61.09,16.843-62.74,32.692c-1.652,15.85,40.618,37.977,48.871,17.172
			C103.349,91.082,118.867,80.188,108.959,62.023z"/>
		<path fill="#F392B0" d="M150.089,60.704c0,0,61.091,16.838,62.74,32.69c1.651,15.85-40.618,37.977-48.871,17.171
			C155.699,89.761,140.182,78.866,150.089,60.704z"/>
		<path fill="#F392B0" d="M120.365,111.888c0,2.822-2.287,5.117-5.117,5.117c-2.824,0-5.117-2.295-5.117-5.117
			c0-2.827,2.293-5.125,5.117-5.125C118.078,106.763,120.365,109.061,120.365,111.888z"/>
		<path fill="#F392B0" d="M154.055,111.888c0,2.822-2.296,5.117-5.123,5.117c-2.826,0-5.119-2.295-5.119-5.117
			c0-2.827,2.293-5.125,5.119-5.125C151.759,106.763,154.055,109.061,154.055,111.888z"/>
		<path fill="#F3B2CD" d="M134.229,183.155c0,0-32.583,9.444-31.013-25.439l0,0c0,0,17.132-38.979,29.56-39.953v-0.098
			c11.197,0.557,26.775,32.563,29.742,38.879c0.019,0.037,0.029,0.065,0.045,0.101c0.008,0,0.008,0,0.008,0.008
			c0.021,0.156,0.055,0.496,0.082,0.978C163.038,163.297,163.234,189.02,134.229,183.155z"/>
		<path fill="#F392B0" d="M121.358,158.115h25.759c0,0,0.988,11.888-12.219,11.888C121.692,170.003,120.035,159.439,121.358,158.115
			z"/>
	</g>
</g>
<g id="Layer_5" display="none">
	<g display="inline">
		<g>
			<path fill="#E55A81" d="M250.208,238.411c0,5.5-4.5,10-10,10H18.843c-5.5,0-10-4.5-10-10V17.044c0-5.5,4.5-10,10-10h221.365
				c5.5,0,10,4.5,10,10V238.411L250.208,238.411z"/>
		</g>
		<g>
			<polygon fill="#F392B0" points="86.871,102.845 172.764,102.845 172.764,98.028 83.806,98.028 83.806,128.289 172.764,128.289 
				172.764,123.476 86.871,123.476 			"/>
			<rect x="86.871" y="102.845" fill="#FBDCE6" width="81.802" height="20.631"/>
			<rect x="86.871" y="113.16" fill="#F8BBD1" width="81.802" height="10.315"/>
			<polygon fill="#F392B0" points="78.429,132.671 178.764,132.671 178.764,128.49 74.847,128.49 74.847,154.768 178.764,154.768 
				178.764,150.585 78.429,150.585 			"/>
			<rect x="78.429" y="132.671" fill="#FBDCE6" width="95.557" height="17.914"/>
			<rect x="78.429" y="141.628" fill="#F8BBD1" width="95.557" height="8.957"/>
			<polygon fill="#F392B0" points="92.165,158.945 192.499,158.945 192.499,154.768 88.583,154.768 88.583,181.044 192.499,181.044 
				192.499,176.864 92.165,176.864 			"/>
			<rect x="92.165" y="158.945" fill="#FBDCE6" width="95.558" height="17.919"/>
			<rect x="92.165" y="167.906" fill="#F8BBD1" width="95.558" height="8.958"/>
			<polygon fill="#F392B0" points="74.977,186.076 195.686,186.076 195.686,181.044 70.665,181.044 70.665,212.658 195.686,212.658 
				195.686,207.629 74.977,207.629 			"/>
			<rect x="74.977" y="186.076" fill="#FBDCE6" width="114.958" height="21.553"/>
			<rect x="74.977" y="196.854" fill="#F8BBD1" width="114.958" height="10.775"/>
			<polygon fill="#FFFFFF" points="94.538,113.569 112.073,113.53 112.073,136.014 103.347,127.288 94.455,136.184 			"/>
			<polygon fill="#FFFFFF" points="142.615,167.919 160.148,167.877 160.148,190.361 151.426,181.636 142.529,190.527 			"/>
			<g>
				<polygon fill="#FBDCE6" points="122.523,83.057 137.753,83.057 130.174,97.499 				"/>
				<path fill="#F8BBD1" d="M122.595,44.199v-7.537c0-1.04,0.745-1.884,1.667-1.884h11.824c0.922,0,1.667,0.844,1.667,1.884v7.537"
					/>
				<rect x="122.595" y="44.199" fill="#FFFFFF" width="15.09" height="6.907"/>
				<rect x="122.595" y="50.95" fill="#FBDCE6" width="7.951" height="32.183"/>
				<rect x="130.546" y="50.95" fill="#F8BBD1" width="7.187" height="32.106"/>
				<polygon fill="#F392B0" points="128.069,93.654 132.209,93.654 130.146,97.577 				"/>
			</g>
		</g>
	</g>
</g>
<g id="Layer_6">
</g>
<g>
	<g>
		<path fill="#CA1D8B" d="M200.365,196.477c-0.818-0.816-1.955-1.318-3.227-1.318c-4.271,0-8.773,0.021-13.408,0.047
			c-2.363-7.273-9.203-12.545-17.27-12.545c-8.07,0-14.908,5.271-17.273,12.566c-11.588,0-22.928,0-33.041-0.021
			c-2.363-7.273-9.227-12.545-17.271-12.545c-7.999,0-14.793,5.18-17.202,12.363c-1.908-0.023-3.136-0.07-3.591-0.113l-1.137-0.117
			c-3.727-0.385-6.204-0.633-7.975-10.928c-0.435-2.523-0.047-4.613,1.226-6.363c2-2.75,5.84-4.34,8.637-5.113
			c1.02-0.295,1.907-0.477,2.476-0.568c2.478-0.342,4.227-2.637,3.887-5.113c-0.34-2.475-2.659-4.225-5.136-3.885
			c-0.41,0.047-1.886,0.273-3.887,0.84c-3.863,1.115-9.681,3.523-13.294,8.453c-2.727,3.75-3.726,8.34-2.862,13.318
			c2.726,15.77,9.406,17.748,16.044,18.406l0.977,0.09c0.478,0.07,1.84,0.115,3.954,0.16c1.522,8.477,8.954,14.93,17.884,14.93
			c8.841,0,16.226-6.338,17.862-14.725c7.475,0.021,15.453,0.021,23.337,0.021h8.545c1.613,8.365,8.998,14.703,17.84,14.703
			c8.861,0,16.248-6.361,17.859-14.75c6.273,0,10.863-0.021,12.84-0.021c2.502,0,4.547-2.045,4.523-4.545
			C201.684,198.432,201.184,197.295,200.365,196.477z M107.286,204.27c-1.364,3.32-4.614,5.658-8.409,5.658
			c-3.817,0-7.091-2.359-8.431-5.725c-0.432-1.045-0.658-2.182-0.658-3.363c0-2.158,0.771-4.16,2.022-5.727h0.021
			c1.659-2.068,4.204-3.365,7.045-3.365c2.863,0,5.433,1.342,7.091,3.432c1.249,1.572,1.999,3.523,1.999,5.66
			C107.966,202.045,107.717,203.227,107.286,204.27z M174.846,204.295c-1.34,3.318-4.59,5.633-8.385,5.633
			c-3.773,0-7.023-2.314-8.387-5.611c-0.455-1.068-0.703-2.248-0.703-3.477c0-2.113,0.727-4.066,1.977-5.613
			c1.637-2.111,4.227-3.479,7.113-3.479s5.477,1.342,7.111,3.457c1.25,1.568,1.977,3.521,1.977,5.635
			C175.549,202.068,175.299,203.227,174.846,204.295z"/>
	</g>
	<g>
		<path fill="#CA1D8B" d="M113.965,88.148c-1.181-0.023-2.363-0.023-3.522,0c0.546-0.228,1.159-0.363,1.774-0.363
			C112.829,87.785,113.42,87.921,113.965,88.148z"/>
		<path fill="#CA1D8B" d="M114.215,175.936c-0.613,0.293-1.272,0.475-1.998,0.475c-0.728,0-1.41-0.182-2.023-0.5L114.215,175.936z"
			/>
	</g>
	<g>
		<path fill="#CA1D8B" d="M161.664,88.125h-3.453c0.545-0.228,1.115-0.34,1.727-0.34C160.553,87.785,161.119,87.897,161.664,88.125z
			"/>
		<path fill="#CA1D8B" d="M161.709,176.047c-0.545,0.227-1.156,0.363-1.771,0.363c-0.611,0-1.227-0.137-1.771-0.363H161.709z"/>
	</g>
	<g>
		<path fill="#CA1D8B" d="M213.955,89.99c-0.842-1.138-2.205-1.819-3.637-1.819c-2.182-0.022-23.045-0.046-48.654-0.046h-3.453
			c-14.271,0-29.77,0-44.223,0.023c-0.022,0-0.022,0-0.022,0c-1.181-0.023-2.363-0.023-3.522,0c-21.179,0-39.608,0.046-47.72,0.136
			l-6.955-22.839c-0.569-1.908-2.342-3.227-4.342-3.227H26.431c-2.501,0-4.547,2.046-4.547,4.545s2.046,4.545,4.547,4.545h21.633
			l6.591,21.634v0.112c0.022,0.865,0.294,1.658,0.728,2.317l20.792,68.289c2.001-0.566,3.477-0.793,3.887-0.84
			c2.477-0.34,4.796,1.41,5.136,3.885c0.34,2.477-1.409,4.771-3.887,5.113c-0.568,0.092-1.456,0.273-2.476,0.568l0.066,0.227
			c0.569,1.908,2.342,3.227,4.319,3.227l26.974,0.068l4.021,0.025l43.927,0.111c0.023,0,0.023,0,0.023,0h3.543l24.908,0.07
			c0.021,0,0.021,0,0.021,0c2.002,0,3.773-1.297,4.363-3.227l23.656-78.88C215.068,92.648,214.818,91.148,213.955,89.99z
			 M107.67,166.822l-21.065-0.07l-5.453-17.904h26.519V166.822z M107.67,139.756H78.403l-4.841-15.907h34.108V139.756z
			 M107.67,114.758H70.789l-5.296-17.407c8.501-0.068,24.18-0.112,42.178-0.112V114.758z M155.395,166.955l-38.633-0.109v-17.998
			h38.633V166.955z M155.395,139.756h-38.633v-15.907h38.633V139.756z M155.395,114.758h-38.633V97.239
			c12.68-0.024,26.088-0.024,38.633-0.024V114.758z M183.254,167.027l-18.771-0.047v-18.133h24.227L183.254,167.027z
			 M191.434,139.756h-26.951v-15.907h31.725L191.434,139.756z M198.957,114.758h-34.475V97.215c17.158,0,31.861,0.024,39.723,0.024
			L198.957,114.758z"/>
	</g>
	<polygon fill="#CA1D8B" points="76.708,80.115 71.879,64.776 136.645,43.755 155.961,79.547 	"/>
	<polygon fill="#CA1D8B" points="167.607,79.547 159.086,57.675 200.844,63.925 196.58,80.115 	"/>
</g>
</svg>
