<?xml version="1.0" encoding="utf-8"?>
<!-- Generator: Adobe Illustrator 15.1.0, SVG Export Plug-In . SVG Version: 6.00 Build 0)  -->
<!DOCTYPE svg PUBLIC "-//W3C//DTD SVG 1.1//EN" "http://www.w3.org/Graphics/SVG/1.1/DTD/svg11.dtd">
<svg version="1.1" id="Layer_1" xmlns="http://www.w3.org/2000/svg" xmlns:xlink="http://www.w3.org/1999/xlink" x="0px" y="0px"
	 width="158.219px" height="153.342px" viewBox="0 0 158.219 153.342" enable-background="new 0 0 158.219 153.342"
	 xml:space="preserve">
<g id="Layer_1_1_" display="none">
	<circle display="inline" fill="#73C595" cx="79.164" cy="78.342" r="74"/>
	<circle display="inline" fill="#296E41" cx="78.832" cy="77.675" r="68"/>
	<circle display="inline" fill="#62A87F" cx="78.832" cy="80.675" r="68"/>
	<g display="inline">
		<path fill="#FFFFFF" d="M132.67,68.228v39.811c0,3.938-3.209,7.149-7.15,7.149H65.8c-3.939,0-7.149-3.211-7.149-7.149V94.769h4.08
			v13.271c0,1.688,1.38,3.069,3.069,3.069h59.72c1.69,0,3.061-1.381,3.061-3.069V68.228c0-1.689-1.369-3.07-3.061-3.07H65.8
			c-1.689,0-3.069,1.381-3.069,3.07v22.46h-4.08v-22.46c0-3.939,3.21-7.149,7.149-7.149h31.13V47.808c0-1.69-1.369-3.06-3.06-3.06
			H34.15c-1.69,0-3.07,1.369-3.07,3.06v39.81c0,1.689,1.38,3.07,3.07,3.07h24.5v4.08h-24.5c-3.94,0-7.15-3.211-7.15-7.15v-39.81
			c0-3.94,3.21-7.15,7.15-7.15h59.72c3.938,0,7.149,3.21,7.149,7.15v13.271h24.5C129.461,61.079,132.67,64.289,132.67,68.228z"/>
		<rect x="58.649" y="90.685" fill="#FFFFFF" width="4.084" height="4.084"/>
	</g>
	<rect x="62.478" y="71.033" display="inline" fill="#FFFFFF" width="66.104" height="8.423"/>
	<rect x="30.205" y="50.358" display="inline" fill="#FFFFFF" width="67.854" height="8.423"/>
	<g display="inline">
		<g>
			<rect x="65.286" y="84.815" fill="#FFFFFF" width="1.275" height="6.636"/>
		</g>
		<g>
			<path fill="#FFFFFF" d="M121.736,91.451h-2.508v-6.636h2.508V91.451z M116.721,91.451h-2.508v-6.636h2.508V91.451z
				 M111.704,91.451h-2.507v-6.636h2.507V91.451z M106.689,91.451h-2.51v-6.636h2.51V91.451z M101.672,91.451h-2.508v-6.636h2.508
				V91.451z M96.657,91.451h-2.509v-6.636h2.509V91.451z M91.641,91.451h-2.508v-6.636h2.508V91.451z M86.625,91.451h-2.508v-6.636
				h2.508V91.451z M81.609,91.451h-2.508v-6.636h2.508V91.451z M76.593,91.451h-2.508v-6.636h2.508V91.451z M71.577,91.451H69.07
				v-6.636h2.507V91.451z"/>
		</g>
		<g>
			<rect x="124.244" y="84.815" fill="#FFFFFF" width="1.275" height="6.636"/>
		</g>
	</g>
	<g display="inline">
		<g>
			<rect x="35.678" y="65.162" fill="#FFFFFF" width="1.276" height="6.636"/>
		</g>
		<g>
			<path fill="#FFFFFF" d="M62.035,71.797h-2.509v-6.636h2.509V71.797z M57.018,71.797H54.51v-6.636h2.508V71.797z M52.002,71.797
				h-2.508v-6.636h2.508V71.797z M46.987,71.797h-2.509v-6.636h2.509V71.797z M41.97,71.797h-2.507v-6.636h2.507V71.797z"/>
		</g>
	</g>
</g>
<g id="Layer_2" display="none">
	<circle display="inline" fill="#73C595" cx="79.164" cy="78.342" r="74"/>
	<circle display="inline" fill="#296E41" cx="79.164" cy="77.342" r="68"/>
	<circle display="inline" fill="#62A87F" cx="79.164" cy="80.342" r="68"/>
	<path display="inline" fill="#FFFFFF" d="M80.279,119.797l-0.059-3.37c0.893-0.014,1.799-0.06,2.69-0.135l0.284,3.357
		C82.227,119.731,81.247,119.781,80.279,119.797z M77.361,119.75c-0.964-0.047-1.943-0.128-2.908-0.241l0.39-3.347
		c0.889,0.104,1.792,0.178,2.684,0.223L77.361,119.75z M86.092,119.308l-0.506-3.332c0.881-0.134,1.771-0.3,2.646-0.494l0.731,3.289
		C88.016,118.981,87.05,119.163,86.092,119.308z M71.564,119.072c-0.951-0.177-1.911-0.39-2.851-0.632l0.838-3.263
		c0.869,0.222,1.753,0.419,2.629,0.582L71.564,119.072z M91.793,118.038l-0.954-3.23c0.856-0.254,1.716-0.539,2.554-0.851
		l1.172,3.159C93.654,117.454,92.723,117.765,91.793,118.038z M65.91,117.616c-0.922-0.305-1.844-0.646-2.744-1.014l1.276-3.119
		c0.828,0.34,1.678,0.653,2.528,0.935L65.91,117.616z M97.264,116.011l-1.383-3.072c0.811-0.365,1.623-0.766,2.413-1.188
		l1.587,2.973C99.023,115.181,98.145,115.615,97.264,116.011z M60.499,115.403c-0.873-0.43-1.741-0.893-2.58-1.377l1.687-2.918
		c0.773,0.447,1.572,0.875,2.377,1.27L60.499,115.403z M102.408,113.26l-1.786-2.856c0.758-0.475,1.51-0.979,2.233-1.504
		l1.975,2.731C104.044,112.199,103.23,112.747,102.408,113.26z M55.441,112.479c-0.808-0.541-1.603-1.117-2.369-1.711l2.064-2.662
		c0.705,0.547,1.44,1.078,2.183,1.576L55.441,112.479z M107.137,109.843l-2.152-2.592c0.688-0.572,1.367-1.174,2.013-1.789
		l2.323,2.441C108.618,108.569,107.884,109.222,107.137,109.843z M50.823,108.905c-0.724-0.643-1.437-1.32-2.116-2.012l2.399-2.363
		c0.628,0.637,1.287,1.262,1.954,1.854L50.823,108.905z M111.367,105.821l-2.482-2.279c0.607-0.661,1.197-1.35,1.758-2.045
		l2.627,2.109C112.665,104.36,112.023,105.106,111.367,105.821z M46.73,104.745c-0.635-0.737-1.25-1.503-1.83-2.276l2.699-2.02
		c0.532,0.712,1.1,1.419,1.685,2.099L46.73,104.745z M115.02,101.269l-2.762-1.929c0.51-0.733,1.004-1.493,1.467-2.261l2.887,1.736
		C116.109,99.649,115.574,100.474,115.02,101.269z M43.23,100.076c-0.528-0.813-1.035-1.654-1.505-2.5l2.944-1.64
		c0.435,0.78,0.901,1.557,1.387,2.306L43.23,100.076z M118.032,96.261l-3-1.535c0.409-0.801,0.795-1.621,1.147-2.44l3.096,1.331
		C118.895,94.504,118.475,95.396,118.032,96.261z M40.391,94.979c-0.416-0.881-0.804-1.783-1.154-2.681l3.14-1.225
		c0.322,0.825,0.679,1.655,1.062,2.467L40.391,94.979z M120.339,90.89l-3.182-1.115c0.298-0.847,0.569-1.711,0.806-2.569
		l3.248,0.897C120.955,89.033,120.661,89.972,120.339,90.89z M38.269,89.546c-0.292-0.929-0.556-1.876-0.782-2.816l3.275-0.789
		c0.209,0.865,0.45,1.738,0.72,2.594L38.269,89.546z M121.895,85.261l-3.302-0.674c0.179-0.874,0.329-1.766,0.448-2.654l3.34,0.449
		C122.251,83.347,122.087,84.315,121.895,85.261z M36.898,83.869c-0.162-0.954-0.294-1.929-0.392-2.894l3.351-0.34
		c0.091,0.891,0.214,1.788,0.363,2.667L36.898,83.869z M122.672,79.478l-3.361-0.225c0.06-0.888,0.09-1.794,0.09-2.692h3.369
		C122.77,77.534,122.736,78.517,122.672,79.478z M36.309,78.063c-0.016-0.5-0.026-1-0.026-1.502c0-0.475,0.009-0.947,0.024-1.417
		l3.368,0.11c-0.015,0.434-0.022,0.87-0.022,1.307c0,0.464,0.008,0.927,0.024,1.387L36.309,78.063z M119.4,76.481
		c-0.002-0.894-0.034-1.799-0.096-2.693l3.362-0.23c0.067,0.968,0.101,1.949,0.103,2.918L119.4,76.481z M39.851,72.565l-3.354-0.333
		c0.098-0.962,0.228-1.936,0.388-2.894l3.323,0.559C40.06,70.781,39.939,71.678,39.851,72.565z M119.031,71.11
		c-0.122-0.884-0.273-1.776-0.455-2.654l3.301-0.681c0.195,0.951,0.361,1.92,0.493,2.878L119.031,71.11z M40.744,67.258
		l-3.277-0.783c0.226-0.946,0.486-1.894,0.775-2.818l3.215,1.006C41.192,65.514,40.951,66.387,40.744,67.258z M117.943,65.84
		c-0.239-0.86-0.514-1.724-0.812-2.567l3.179-1.122c0.322,0.914,0.619,1.852,0.879,2.785L117.943,65.84z M42.348,62.118l-3.14-1.221
		c0.354-0.908,0.741-1.813,1.151-2.688l3.051,1.433C43.03,60.447,42.674,61.281,42.348,62.118z M116.15,60.771
		c-0.353-0.816-0.739-1.635-1.147-2.431L118,56.796c0.445,0.866,0.863,1.753,1.245,2.639L116.15,60.771z M44.638,57.241
		l-2.947-1.634c0.472-0.852,0.979-1.695,1.503-2.507l2.829,1.832C45.54,55.68,45.072,56.457,44.638,57.241z M113.691,55.991
		c-0.463-0.767-0.957-1.527-1.467-2.258l2.762-1.93c0.554,0.792,1.088,1.615,1.59,2.446L113.691,55.991z M47.563,52.719
		l-2.699-2.018c0.578-0.774,1.192-1.541,1.825-2.279l2.559,2.193C48.664,51.297,48.096,52.005,47.563,52.719z M110.607,51.581
		c-0.562-0.698-1.152-1.384-1.758-2.04l2.478-2.284c0.655,0.711,1.296,1.455,1.905,2.21L110.607,51.581z M51.069,48.63l-2.405-2.359
		c0.678-0.691,1.389-1.368,2.114-2.015l2.241,2.518C52.35,47.369,51.693,47.994,51.069,48.63z M106.959,47.623
		c-0.652-0.618-1.331-1.219-2.018-1.788l2.148-2.595c0.744,0.617,1.479,1.268,2.186,1.936L106.959,47.623z M55.09,45.051
		l-2.068-2.662c0.766-0.595,1.562-1.171,2.364-1.711l1.883,2.793C56.53,43.971,55.796,44.501,55.09,45.051z M102.811,44.188
		c-0.726-0.523-1.479-1.028-2.24-1.501l1.783-2.86c0.822,0.513,1.638,1.061,2.426,1.627L102.811,44.188z M59.553,42.044
		l-1.692-2.915c0.836-0.486,1.702-0.949,2.573-1.379l1.489,3.023C61.121,41.169,60.322,41.597,59.553,42.044z M98.238,41.341
		c-0.793-0.422-1.609-0.822-2.422-1.186l1.377-3.075c0.882,0.396,1.766,0.828,2.625,1.286L98.238,41.341z M64.374,39.667
		l-1.283-3.116c0.895-0.368,1.814-0.709,2.738-1.019l1.067,3.197C66.045,39.013,65.197,39.329,64.374,39.667z M93.32,39.137
		c-0.84-0.309-1.7-0.594-2.557-0.844l0.947-3.233c0.932,0.272,1.864,0.581,2.773,0.917L93.32,39.137z M69.478,37.964l-0.847-3.261
		c0.939-0.245,1.898-0.458,2.851-0.638l0.623,3.311C71.226,37.541,70.343,37.74,69.478,37.964z M88.154,37.623
		c-0.868-0.191-1.758-0.356-2.646-0.49L86.01,33.8c0.963,0.145,1.93,0.324,2.874,0.532L88.154,37.623z M74.766,36.969l-0.398-3.347
		c0.961-0.114,1.939-0.197,2.91-0.247l0.172,3.365C76.555,36.787,75.652,36.863,74.766,36.969z M82.834,36.823
		c-0.886-0.073-1.792-0.117-2.688-0.131l0.049-3.369c0.973,0.015,1.955,0.062,2.916,0.142L82.834,36.823z"/>
	<path display="inline" fill="#FFFFFF" d="M78.522,78.533c-0.486-1.59-0.777-3.182-1.023-4.773
		c-0.234-1.591-0.395-3.182-0.494-4.774c-0.098-1.59-0.091-3.182,0.017-4.773c0.114-1.591,0.248-3.182,0.32-4.773l0.228-4.773
		l0.278-4.774c0.226-3.183,0.404-6.365,0.674-9.547h0.337c0.269,3.182,0.446,6.364,0.674,9.547l0.277,4.774l0.228,4.773
		c0.071,1.591,0.207,3.183,0.319,4.773c0.108,1.591,0.115,3.183,0.018,4.773c-0.098,1.592-0.26,3.183-0.494,4.774
		c-0.245,1.591-0.537,3.183-1.021,4.773H78.522z"/>
	<path display="inline" fill="#FFFFFF" d="M82.059,80.985c0.938-0.483,1.873-0.781,2.81-1.022c0.937-0.233,1.87-0.396,2.809-0.494
		c0.937-0.101,1.871-0.091,2.808,0.017c0.937,0.115,1.873,0.248,2.808,0.32l2.808,0.229l2.81,0.277
		c1.87,0.207,3.743,0.407,5.614,0.674v0.338c-1.871,0.266-3.744,0.467-5.614,0.674l-2.81,0.277l-2.808,0.228
		c-0.937,0.072-1.871,0.206-2.808,0.32c-0.937,0.108-1.873,0.118-2.808,0.017c-0.938-0.099-1.872-0.26-2.809-0.495
		c-0.937-0.241-1.871-0.538-2.81-1.021V80.985z"/>
	<path display="inline" fill="#FFFFFF" d="M80,128.515c-28.488,0-51.667-23.178-51.667-51.667c0-28.489,23.179-51.667,51.667-51.667
		c28.49,0,51.667,23.178,51.667,51.667C131.667,105.337,108.49,128.515,80,128.515z M80,30.797c-25.392,0-46.05,20.659-46.05,46.051
		S54.608,122.899,80,122.899c25.393,0,46.052-20.659,46.052-46.051S105.393,30.797,80,30.797z"/>
	<circle display="inline" fill="#FFFFFF" cx="78.541" cy="81.519" r="1.313"/>
</g>
<circle fill="#A7C474" cx="79.164" cy="78.342" r="74"/>
<circle fill="#6D8E3C" cx="79.164" cy="77.342" r="68"/>
<circle fill="#87A355" cx="79.164" cy="80.342" r="68"/>
<path fill="#FFFFFF" d="M65.913,51.398c2.369,0,4.734,0,7.101,0c0.403,0.336,1.413,0.065,2.062,0.152
	c0.218-0.012,0.18,0.229,0.384,0.229c1.899-0.036,2.99,0.354,4.81,0.458c0.248-0.066,0.105,0.251,0.308,0.229
	c0.545-0.011,1.079-0.011,1.526,0.077c0.164-0.036,0.146,0.108,0.152,0.228c0.739-0.028,1.446-0.021,1.758,0.384
	c0.285,0.015,1.104-0.173,1.146,0.305c0.616-0.061,1.026,0.089,1.296,0.38c0.242,0.039,0.271-0.136,0.535-0.075
	c0.294,0.01,0.301,0.311,0.531,0.383c1.151,0.139,1.688,0.797,3.058,0.992c0.067,0.135,0.308,0.097,0.228,0.381
	c1.58,0.279,2.424,1.295,3.896,1.681c-0.011,0.189,0.12,0.237,0.151,0.382c0.18,0,0.357,0,0.537,0
	c0.334,0.581,1.137,0.693,1.678,1.069c0.798,0.451,1.418,1.077,2.445,1.299c0,0.125,0,0.253,0,0.381
	c0.57-0.138,0.467,0.398,0.991,0.305c0.06,0.068,0.081,0.172,0.077,0.307c0.668,0.145,1.008,0.62,1.678,0.763
	c-0.031,0.159,0.055,0.202,0.077,0.307c1.073,0.249,1.571,1.075,2.599,1.374c0.058,0.067,0.08,0.172,0.074,0.305
	c0.354,0.055,0.707,0.108,0.842,0.382c1.512-0.214,2.09,0.506,3.207,0.687c-0.039,0.266,0.189,0.269,0.305,0.384
	c1.404-0.114,2.635-0.097,4.123,0.074c0.058,0.145,0.229,0.053,0.074,0.229c0.938-0.265,1.703,0.305,2.521,0.382
	c0.725,0.07,1.391-0.101,2.063,0.076c0.892,0.234,2.154,0.411,3.359,0.535c0.383,0.04,0.834,0.323,1.145,0.381
	c0.504,0.096,1.109-0.119,1.527,0.307c0.668-0.032,1.238,0.032,1.529,0.381c0.229,0,0.455,0,0.684,0
	c0.215,0.018,0.219,0.243,0.385,0.305c1.228-0.029,1.769,0.626,2.9,0.688c0.045,0.209,0.393,0.117,0.381,0.381
	c2.008,0.36,3.107,1.629,4.582,2.521c0.326,0.732,0.848,1.033,1.146,1.832c0.069,0.188,0.338,0.33,0.383,0.458
	c0.015,0.042-0.125,0.187-0.074,0.305c0.104,0.268,0.429,0.549,0.38,0.917c0.795,0.603,1.122,1.677,1.682,2.52
	c0,0.229,0,0.459,0,0.688c-0.021,0.249,0.236,0.22,0.305,0.381c0.17,0.696-0.061,2.408,0.305,2.521c0,0.381,0,0.764,0,1.146
	c-0.457,0.513-0.09,1.187-0.229,1.907c-0.039,0.203-0.312,0.438-0.38,0.766c-0.17,0.772-0.137,0.762-0.536,1.373
	c-0.3,0.461-0.589,0.855-0.916,1.068c-0.566,0.368-1.363,0.169-2.216,0.229c-2.19,0.157-4.825,0.291-6.487,0.153
	c0.379-1.674,0.271-3.761-0.076-5.649c-0.267-0.22-0.353-0.615-0.305-1.146c-0.238-0.248-0.49-0.479-0.386-1.068
	c-0.396,0.094-0.295-0.313-0.305-0.611c-0.521-0.199-0.564-0.813-0.84-1.221c-0.27-0.4-0.725-0.72-0.84-1.223
	c-0.436-0.153-0.859-0.635-1.068-0.915c-0.09-0.124-0.133-0.056-0.23-0.154c-0.704-0.7-1.545-1.109-2.362-1.68
	c-0.265-0.054-0.508-0.024-0.612-0.382c-0.798,0.025-1.416-0.507-2.218-0.686c-1.93-0.437-4.019-0.271-6.106,0
	c-0.447,0.415-1.14,0.59-1.91,0.686c-0.471,0.52-1.248,0.734-1.906,1.068c-0.26,0.371-0.662,0.618-0.992,0.917
	c-0.328,0.296-0.652,0.647-1.068,0.841c-0.908,1.411-2.092,2.542-2.521,4.428c0.104,0.329-0.361,0.096-0.305,0.383
	c-0.53,2.184-0.606,5.45,0,7.405c-14.743-0.07-30.919,0.229-45.126-0.381c0.354-1.403,0.469-3.044,0.381-4.888
	c-0.322-0.416-0.334-1.143-0.381-1.832c-0.29-0.144-0.333-0.533-0.308-0.992c-0.585-0.561-0.604-1.688-1.296-2.139
	c-1.135-2.249-3.163-3.61-5.344-4.812c-0.81-0.106-1.463-0.371-2.063-0.686c-1.976-0.347-4.066-0.379-6.032,0
	c-0.599,0.314-1.278,0.554-2.062,0.686c-0.734,0.515-1.493,1.003-2.367,1.376c-0.506,0.704-1.217,1.254-1.756,1.831
	c-0.173,0.186-0.33,0.606-0.688,0.534c0.089,0.344-0.106,0.404-0.307,0.459c-0.422,0.897-0.839,1.808-1.372,2.596
	c0.196,0.536-0.27,0.857-0.383,1.299c-0.115,0.447,0.052,1.001-0.307,1.374c0.072,1.06-0.092,2.543,0,3.588
	c0.033,0.366,0.236,0.707,0.076,0.916c-0.498,0.279-0.915-0.215-1.373-0.305c-0.416-0.082-0.877,0.086-1.298-0.076
	c-0.136-0.054-0.24-0.202-0.382-0.228c-0.265-0.051-0.574,0.037-0.84,0c-0.364-0.057-0.647-0.317-0.992-0.385
	c-0.277-0.052-0.564,0.064-0.84,0c-0.233-0.054-0.451-0.255-0.687-0.304c-0.251-0.052-0.569,0.035-0.843,0
	c-0.351-0.05-0.651-0.319-0.991-0.382c-0.243-0.045-0.524,0.039-0.763,0c-0.326-0.057-0.592-0.241-0.916-0.309
	c-0.22-0.041-0.509,0.043-0.765,0c-0.338-0.049-0.649-0.351-0.915-0.381c-0.213-0.022-0.479,0.111-0.689,0.076
	c-0.37-0.062-0.693-0.313-1.068-0.381c-0.749-0.143-1.5-0.125-2.215-0.383c-0.145-0.16-0.207-0.402-0.533-0.381
	c-0.591-1.199-1.404-2.146-1.375-4.124c0.074-0.278-0.371-0.035-0.23-0.382c-0.17-3.635,0.452-6.472,1.985-8.398
	c0.618-0.098,0.924-0.503,1.452-0.688c1.009,0.043,1.482-0.451,2.597-0.305c0.348-0.486,0.969-0.262,1.604-0.384
	c0.106-0.019,0.289-0.196,0.381-0.228c0.441-0.15,0.829-0.034,1.298-0.077c0.049-0.257,0.389-0.224,0.535-0.381
	c1.576-0.081,2.468-0.841,3.971-0.992c0.379-0.384,0.924-0.605,1.604-0.688c0.108-0.309,0.441-0.321,0.688-0.457
	c0.756-0.422,1.422-0.965,2.214-1.3c-0.071-0.189,0.014-0.168,0.151-0.305c0.313-0.309,0.458-0.628,0.919-0.688
	c0.558-1.17,1.771-1.688,2.44-2.747c0.92-0.609,1.725-1.378,2.599-1.986c0.285-0.199,0.719-0.385,0.839-0.764
	c1.413-0.662,2.643-1.648,4.046-2.368c1.432-0.732,2.922-1.353,4.43-2.061c1.031-0.039,1.395-0.742,2.52-0.687
	c0.24,0.036,0.027-0.379,0.305-0.308c0.673,0.114,0.864-0.255,1.299-0.38c0.23,0,0.458,0,0.686,0
	c0.247-0.526,0.865-0.194,1.299-0.305c0.435-0.111,0.853-0.62,1.604-0.384c0.361-0.507,0.986-0.199,1.528-0.305
	c0.608-0.116,1.244-0.596,2.138-0.381c0.437-0.402,1.407-0.272,2.215-0.307C64.546,51.404,65.466,51.636,65.913,51.398z
	 M61.028,53.764c-0.672,0.549-1.555,0.238-2.292,0.383c-0.339,0.066-1.056,0.463-1.755,0.382c0.123-0.024,0.204,0.102,0.077,0.153
	c-0.801,0.092-1.329,0.453-2.216,0.457c-0.482,0.458-1.35,0.534-2.062,0.763c-0.196,0.009-0.109,0.298-0.306,0.307
	c-1.625,0.283-2.471,1.346-4.047,1.681c-0.106,0.172,0.195,0.285,0,0.305c-0.476-0.125-0.498,0.238-0.688,0.381
	c-0.377,0.288-1.022,0.285-0.992,0.688c-0.237-0.148-0.232,0.108-0.459,0.228c-0.123,0.066-0.396,0.035-0.458,0.077
	c-0.079,0.056-0.087,0.325-0.152,0.384c-0.224,0.189-0.603,0.196-0.839,0.381c-0.169,0.128-0.283,0.398-0.459,0.534
	c-0.418,0.324-0.891,0.607-1.376,0.763c0,0.128,0,0.256,0,0.384c-0.646,0.012-0.655,0.664-1.296,0.686
	c-0.014,0.114,0.027,0.283-0.076,0.307c-0.461,0.155-0.782,0.533-1.146,0.84c-0.337,0.282-0.931,0.506-0.993,1.068
	c10.437-0.051,21.073,0.102,31.384-0.076c-0.139-3.76-0.973-7.476-1.068-11.53C66.608,53.184,64.009,53.667,61.028,53.764z
	 M101.954,64.301c0.017-0.345-0.472-0.188-0.381-0.61c-0.697-0.192-0.929-0.854-1.681-0.993c0.065-0.242-0.121-0.236-0.151-0.381
	c-0.442,0.06-0.382-0.384-0.841-0.305c0.022-0.179-0.014-0.294-0.076-0.384c-0.893-0.098-1.094-0.89-1.985-0.992
	c-0.317-0.755-1.491-0.646-1.834-1.374c-1.048-0.352-1.929-0.871-2.823-1.373c-1.099-0.262-1.589-0.848-2.826-1.069
	c-0.176-0.029-0.072-0.334-0.305-0.307c-1.367-0.39-2.688-0.824-3.893-1.374c-0.707-0.143-1.457-0.148-2.139-0.381
	c-0.213-0.072-0.332-0.258-0.537-0.307c-0.229-0.056-0.508,0.045-0.764,0c-0.314-0.056-0.56-0.332-0.839-0.382
	c-0.59-0.104-1.279,0.203-1.757-0.306c-1.885-0.023-3.789-0.435-5.497-0.382c-0.336,0.639-0.009,1.199,0.077,1.604
	c0.195,0.947,0.021,2.017,0.15,2.977c0.072,0.537,0.353,1.051,0.382,1.604c0.081,1.414,0.3,2.782,0.308,4.277
	c0.249,0.233,0.259,0.705,0.229,1.222c9.314,0,18.63,0,27.945,0C102.702,64.572,102.309,64.458,101.954,64.301z"/>
<path fill="#FFFFFF" d="M119.793,79.711c1.082,0.076,1.309,1.009,2.178,1.296c0.029,0.327,0.205,0.505,0.531,0.53
	c-0.102,0.192-0.072,0.362,0.234,0.294c0.016,0.516,0.553,0.508,0.531,1.061c0.371,0.041,0.196,0.625,0.526,0.707
	c0,0.116,0,0.235,0,0.354c0.127,0.053,0.19,0.163,0.297,0.234c0.025,0.123-0.041,0.156-0.062,0.236
	c0.578,1.067,0.736,2.988,0.472,4.532c0.054,0.188-0.192,0.08-0.176,0.237c0.038,0.353-0.056,0.572-0.058,0.882
	c-0.319-0.024-0.215,0.378-0.238,0.647c-0.426,0.416-0.471,1.217-1,1.529c0,0.1,0,0.197,0,0.295
	c-0.772,0.561-1.153,1.518-2.118,1.885c-0.082,0.019-0.05,0.146-0.06,0.233c-0.903,0.315-1.463,0.976-2.592,1.062
	c-0.756,0.743-2.688,0.536-4.062,0.472c0-0.431-0.788-0.074-0.825-0.472c-0.288-0.004-0.591,0.002-0.646-0.235
	c-0.313,0-0.646,0.018-0.646-0.293c-0.236,0.038-0.337-0.058-0.529-0.062c-0.244-0.463-0.973-0.438-1.119-1
	c-0.742-0.188-0.777-0.771-1.354-1.06c0.032-0.048,0.062-0.097,0.062-0.177c-0.738-0.598-1.08-1.59-1.591-2.414
	c0-0.178,0-0.354,0-0.529c-0.015-0.104-0.101-0.135-0.233-0.119c-0.065-0.445,0.016-1.037-0.236-1.296
	c-0.09-1.345,0.105-2.403,0.236-3.532c0.045-0.029,0.094-0.061,0.174-0.059c0-0.156,0-0.313,0-0.471
	c0.117-0.059,0.095-0.261,0.295-0.234c-0.018-0.939,0.684-1.163,0.824-1.943c0.812-0.643,1.273-1.63,2.295-2.061
	c0.254-0.201,0.363-0.541,0.824-0.531c0.549-0.57,1.641-0.598,2.355-1c1.909-0.193,3.706-0.004,5.004,0.473
	c0.135,0.178,0.346,0.283,0.648,0.293C119.779,79.53,119.797,79.61,119.793,79.711z M110.254,88.603
	c-0.013-0.047-0.049-0.067-0.117-0.061c0.276,0.396,0.403,0.936,0.529,1.475c0.27-0.035,0.219,0.252,0.234,0.471
	c0.592,0.373,0.74,1.186,1.533,1.354c0,0.079,0,0.158,0,0.237c0.098,0,0.193,0,0.293,0c0,0.077,0,0.155,0,0.233
	c0.213,0.063,0.517,0.035,0.529,0.295c0.276,0,0.58-0.031,0.592,0.236c0.338,0.09,0.942-0.083,1,0.293
	c1.272,0.126,2.069-0.152,2.883-0.234c0.119-0.194,0.279-0.351,0.646-0.295c0.203-0.31,0.523-0.5,1.002-0.528
	c0.078-0.276,0.18-0.528,0.529-0.531c-0.047-0.2,0.033-0.28,0.236-0.233c0-0.1,0-0.197,0-0.295c0.1,0,0.194,0,0.295,0
	c-0.027-0.205-0.013-0.365,0.233-0.295c0-0.139,0-0.273,0-0.414c0.068-0.049,0.158-0.076,0.298-0.058c0-0.177,0-0.354,0-0.53
	c0.108,0.014,0.127-0.065,0.233-0.059c0-0.157,0-0.314,0-0.471c0.496-0.446,0.226-2.113,0.293-3.18
	c-0.302-0.092-0.31-0.477-0.293-0.884c-0.306,0.029-0.188-0.36-0.295-0.53c-0.269,0.034-0.22-0.252-0.236-0.472
	c-0.246,0.071-0.262-0.089-0.233-0.293c-0.42-0.015-0.293-0.571-0.769-0.53c0-0.078,0-0.156,0-0.234c-0.096,0-0.194,0-0.293,0
	c-0.045-0.443-0.601-0.381-0.707-0.767c-0.332,0.038-0.526-0.061-0.59-0.294c-0.281-0.029-0.728,0.098-0.705-0.236
	c-1.067-0.055-1.992-0.055-3.062,0c-0.002,0.332-0.463,0.203-0.767,0.236c-0.034,0.24-0.229,0.32-0.526,0.294
	c-0.158,0.296-0.492,0.414-0.824,0.53c0.043,0.202-0.033,0.281-0.238,0.234c0,0.1,0,0.197,0,0.295
	c-0.077-0.019-0.109-0.084-0.234-0.06c-0.188,0.421-0.535,0.681-0.824,1.001c-0.008,0.271-0.264,0.795-0.528,1
	C110.27,86.265,109.921,87.782,110.254,88.603z"/>
<path fill="#FFFFFF" d="M54.09,81.862c0.291,0.92,1.093,1.328,1.15,2.486c0.442,0.127,0.076,1.092,0.486,1.092
	c0.097,1.643,0.289,3.861-0.548,5.033c0,0.142,0,0.283,0,0.426c-0.052,0.048-0.135,0.064-0.239,0.062c0,0.142,0,0.282,0,0.425
	c-0.097,0.024-0.055,0.189-0.244,0.12c-0.11,1.043-1.124,1.507-1.395,2.185c0.012,0.132-0.217,0.026-0.305,0.061
	c0.005,0.098-0.028,0.232,0.062,0.242c-0.04,0.183-0.13-0.057-0.243,0c-0.161,0.386-0.658,0.435-0.789,0.849
	c-0.101,0-0.201,0-0.303,0c-0.206,0.423-0.884,0.369-1.092,0.789c-1.734,0.683-5.131,0.658-7.098,0.183
	c0.009-0.07,0.111-0.051,0.182-0.061c-0.685-0.104-1.11-0.465-1.698-0.667c0-0.081,0-0.162,0-0.244
	c-0.206,0.027-0.339-0.022-0.484-0.06c-0.044-0.262-0.399-0.528-0.546-0.485c-0.18-0.31-0.259-0.376-0.607-0.546
	c-0.113-0.595-1.033-0.85-1.151-1.637c-0.329-0.016-0.135-0.555-0.485-0.547c0.08-0.545-0.395-0.537-0.303-1.092
	c-0.01-0.113-0.206-0.037-0.243-0.121c0.032-0.883-0.468-1.229-0.305-2.246c-0.009-0.069-0.109-0.051-0.181-0.06
	c-0.113-1.146,0.26-1.803,0.242-2.853c0.061,0,0.121,0,0.183,0c-0.062-0.971,0.524-1.295,0.606-2.122
	c0.438-0.108,0.276-0.814,0.786-0.849c0-0.121,0-0.244,0-0.363c0.082,0,0.164,0,0.245,0c0.183-0.81,1.012-0.971,1.334-1.639
	c0.098,0.004,0.232-0.031,0.242,0.06c0.513-0.577,1.45-1.204,2.549-1.394c0.116-0.431,0.989-0.103,1.153-0.486
	c1.529-0.16,3.229-0.062,4.486,0.242c-0.044,0.469,0.802,0.049,0.789,0.484c0.234-0.031,0.298,0.107,0.547,0.063
	c-0.003,0.324,0.518,0.13,0.484,0.484c0.468-0.023,0.603,0.286,0.789,0.547c0.122,0,0.243,0,0.363,0
	c0.354,0.615,1.118,0.821,1.335,1.576C53.866,81.882,53.999,81.851,54.09,81.862z M49.721,82.104c-0.142,0-0.284,0-0.424,0
	c0.001-0.486-0.869-0.102-0.91-0.547c-1.102-0.058-2.053-0.058-3.154,0c0.016,0.318-0.365,0.241-0.667,0.242
	c-0.179,0.348-0.64,0.409-1.032,0.545c-0.196,0.268-0.451,0.48-0.787,0.608c-0.011,0.091,0.022,0.223-0.061,0.241
	c-0.081,0-0.161,0-0.242,0c-0.177,0.248-0.178,0.673-0.547,0.729c-0.127,0.377-0.27,0.74-0.547,0.969
	c0.043,0.088,0.053,0.656-0.242,0.607c-0.142,1.286-0.119,2.469,0,3.762c0.138-0.018,0.229,0.014,0.242,0.119
	c0.117,0.635,0.478,1.24,0.85,1.518c0,0.08,0,0.16,0,0.242c0.76,0.555,1.282,1.346,2.366,1.577c0.098,0.531,1.142,0.113,1.335,0.546
	c0.627,0,1.253,0,1.878,0c0.181-0.326,0.81-0.203,1.216-0.303c-0.018-0.139,0.014-0.229,0.121-0.243
	c0.541-0.063,0.714-0.497,1.272-0.545c0.12-0.487,0.734-0.479,0.789-1.032c0.143,0.021,0.233-0.01,0.304-0.061
	c0.237-0.491,0.516-0.939,0.789-1.395c-0.011-0.274,0.029-0.498,0.241-0.547c0.151-1.166,0.141-2.41,0-3.578
	c-0.338-0.006-0.208-0.48-0.241-0.789c-0.355,0.11-0.221-0.265-0.244-0.484c-0.148,0.008-0.25-0.032-0.303-0.122
	c-0.375-0.675-0.797-1.306-1.577-1.576c0-0.082,0-0.163,0-0.244c-0.171-0.05-0.157,0.087-0.303,0.062
	C49.852,82.255,49.749,82.218,49.721,82.104z"/>
</svg>
