<?xml version="1.0" encoding="utf-8"?>
<!-- Generator: Adobe Illustrator 15.1.0, SVG Export Plug-In . SVG Version: 6.00 Build 0)  -->
<!DOCTYPE svg PUBLIC "-//W3C//DTD SVG 1.1//EN" "http://www.w3.org/Graphics/SVG/1.1/DTD/svg11.dtd">
<svg version="1.1" xmlns="http://www.w3.org/2000/svg" xmlns:xlink="http://www.w3.org/1999/xlink" x="0px" y="0px"
	 width="158.219px" height="153.342px" viewBox="0 0 158.219 153.342" enable-background="new 0 0 158.219 153.342"
	 xml:space="preserve">
<g id="Layer_1">
	<circle fill="#73C595" cx="79.164" cy="78.342" r="74"/>
	<circle fill="#296E41" cx="78.832" cy="77.675" r="68"/>
	<circle fill="#62A87F" cx="78.832" cy="80.675" r="68"/>
	<g>
		<path fill="#FFFFFF" d="M132.67,68.228v39.811c0,3.939-3.209,7.149-7.15,7.149H65.8c-3.939,0-7.149-3.21-7.149-7.149V94.768h4.08
			v13.271c0,1.689,1.38,3.069,3.069,3.069h59.719c1.691,0,3.061-1.38,3.061-3.069V68.228c0-1.689-1.369-3.07-3.061-3.07H65.8
			c-1.689,0-3.069,1.381-3.069,3.07v22.46h-4.08v-22.46c0-3.939,3.21-7.149,7.149-7.149h31.13V47.808c0-1.69-1.37-3.06-3.06-3.06
			h-59.72c-1.69,0-3.07,1.369-3.07,3.06v39.81c0,1.69,1.38,3.07,3.07,3.07h24.5v4.08h-24.5c-3.94,0-7.15-3.21-7.15-7.15v-39.81
			c0-3.94,3.21-7.15,7.15-7.15h59.72c3.939,0,7.149,3.21,7.149,7.15v13.271h24.5C129.461,61.079,132.67,64.289,132.67,68.228z"/>
		<rect x="58.649" y="90.685" fill="#FFFFFF" width="4.084" height="4.084"/>
	</g>
	<rect x="62.478" y="71.033" fill="#FFFFFF" width="66.104" height="8.423"/>
	<rect x="30.205" y="50.358" fill="#FFFFFF" width="67.854" height="8.423"/>
	<g>
		<g>
			<rect x="65.286" y="84.815" fill="#FFFFFF" width="1.275" height="6.636"/>
		</g>
		<g>
			<path fill="#FFFFFF" d="M121.736,91.451h-2.508v-6.636h2.508V91.451z M116.721,91.451h-2.508v-6.636h2.508V91.451z
				 M111.704,91.451h-2.507v-6.636h2.507V91.451z M106.689,91.451h-2.509v-6.636h2.509V91.451z M101.672,91.451h-2.508v-6.636h2.508
				V91.451z M96.657,91.451h-2.508v-6.636h2.508V91.451z M91.641,91.451h-2.508v-6.636h2.508V91.451z M86.625,91.451h-2.508v-6.636
				h2.508V91.451z M81.61,91.451h-2.509v-6.636h2.509V91.451z M76.593,91.451h-2.508v-6.636h2.508V91.451z M71.577,91.451H69.07
				v-6.636h2.507V91.451z"/>
		</g>
		<g>
			<rect x="124.244" y="84.815" fill="#FFFFFF" width="1.275" height="6.636"/>
		</g>
	</g>
	<g>
		<g>
			<rect x="35.678" y="65.162" fill="#FFFFFF" width="1.276" height="6.636"/>
		</g>
		<g>
			<path fill="#FFFFFF" d="M62.035,71.797h-2.509v-6.636h2.509V71.797z M57.018,71.797H54.51v-6.636h2.508V71.797z M52.002,71.797
				h-2.508v-6.636h2.508V71.797z M46.987,71.797h-2.509v-6.636h2.509V71.797z M41.97,71.797h-2.507v-6.636h2.507V71.797z"/>
		</g>
	</g>
</g>
<g id="Layer_2" display="none">
	<circle display="inline" fill="#73C595" cx="79.164" cy="78.342" r="74"/>
	<circle display="inline" fill="#296E41" cx="79.164" cy="77.342" r="68"/>
	<circle display="inline" fill="#62A87F" cx="79.164" cy="80.342" r="68"/>
	<path display="inline" fill="#FFFFFF" d="M80.279,119.797l-0.058-3.37c0.893-0.014,1.799-0.06,2.69-0.135l0.284,3.357
		C82.227,119.731,81.247,119.781,80.279,119.797z M77.361,119.75c-0.964-0.047-1.943-0.128-2.908-0.241l0.39-3.347
		c0.889,0.104,1.792,0.178,2.684,0.223L77.361,119.75z M86.092,119.308l-0.506-3.332c0.881-0.134,1.771-0.3,2.646-0.495l0.732,3.289
		C88.015,118.981,87.05,119.163,86.092,119.308z M71.564,119.072c-0.951-0.177-1.911-0.39-2.851-0.632l0.838-3.262
		c0.869,0.222,1.753,0.418,2.629,0.582L71.564,119.072z M91.793,118.038l-0.954-3.231c0.856-0.253,1.715-0.539,2.553-0.85
		l1.172,3.159C93.654,117.454,92.722,117.764,91.793,118.038z M65.91,117.616c-0.922-0.305-1.844-0.646-2.744-1.014l1.276-3.119
		c0.828,0.34,1.678,0.654,2.528,0.935L65.91,117.616z M97.263,116.011l-1.382-3.073c0.811-0.365,1.623-0.765,2.413-1.187
		l1.587,2.972C99.024,115.181,98.144,115.615,97.263,116.011z M60.499,115.403c-0.873-0.429-1.741-0.892-2.58-1.376l1.687-2.918
		c0.773,0.447,1.572,0.874,2.377,1.269L60.499,115.403z M102.408,113.26l-1.786-2.857c0.758-0.474,1.51-0.979,2.234-1.503
		l1.974,2.731C104.044,112.199,103.23,112.747,102.408,113.26z M55.441,112.48c-0.808-0.542-1.603-1.118-2.369-1.711l2.064-2.663
		c0.705,0.547,1.44,1.078,2.183,1.577L55.441,112.48z M107.137,109.843l-2.153-2.592c0.689-0.572,1.367-1.174,2.013-1.789
		l2.323,2.441C108.618,108.57,107.884,109.222,107.137,109.843z M50.823,108.905c-0.724-0.643-1.437-1.32-2.116-2.011l2.399-2.364
		c0.628,0.637,1.287,1.262,1.954,1.855L50.823,108.905z M111.367,105.821l-2.482-2.279c0.607-0.661,1.197-1.349,1.757-2.045
		l2.628,2.109C112.665,104.36,112.023,105.106,111.367,105.821z M46.73,104.745c-0.635-0.737-1.25-1.503-1.83-2.276l2.699-2.02
		c0.532,0.712,1.1,1.419,1.685,2.099L46.73,104.745z M115.02,101.268l-2.762-1.928c0.51-0.733,1.004-1.493,1.466-2.261l2.887,1.736
		C116.109,99.649,115.574,100.474,115.02,101.268z M43.23,100.076c-0.528-0.813-1.035-1.654-1.505-2.5l2.944-1.639
		c0.435,0.78,0.901,1.556,1.387,2.305L43.23,100.076z M118.032,96.261l-3-1.536c0.409-0.8,0.795-1.62,1.148-2.44l3.096,1.331
		C118.894,94.504,118.475,95.395,118.032,96.261z M40.391,94.98c-0.416-0.881-0.804-1.784-1.154-2.681l3.14-1.225
		c0.322,0.825,0.679,1.655,1.062,2.467L40.391,94.98z M120.339,90.89l-3.182-1.116c0.298-0.846,0.57-1.71,0.806-2.569l3.248,0.898
		C120.955,89.033,120.661,89.971,120.339,90.89z M38.269,89.546c-0.292-0.929-0.556-1.876-0.782-2.816l3.275-0.789
		c0.209,0.865,0.45,1.738,0.72,2.593L38.269,89.546z M121.894,85.261l-3.301-0.674c0.178-0.874,0.329-1.766,0.448-2.654l3.34,0.449
		C122.251,83.346,122.087,84.315,121.894,85.261z M36.898,83.869c-0.162-0.954-0.294-1.928-0.392-2.894l3.351-0.339
		c0.091,0.89,0.214,1.788,0.363,2.667L36.898,83.869z M122.672,79.478l-3.361-0.225c0.059-0.888,0.089-1.794,0.089-2.692h3.369
		C122.77,77.534,122.737,78.516,122.672,79.478z M36.309,78.063c-0.016-0.499-0.026-1-0.026-1.502c0-0.475,0.009-0.947,0.024-1.417
		l3.368,0.11c-0.015,0.434-0.022,0.87-0.022,1.307c0,0.464,0.008,0.927,0.024,1.387L36.309,78.063z M119.4,76.481
		c-0.002-0.894-0.034-1.799-0.096-2.693l3.363-0.23c0.067,0.968,0.101,1.949,0.103,2.918L119.4,76.481z M39.851,72.565l-3.354-0.333
		c0.098-0.962,0.228-1.936,0.388-2.894l3.323,0.559C40.06,70.781,39.939,71.678,39.851,72.565z M119.031,71.11
		c-0.122-0.884-0.273-1.776-0.455-2.654l3.301-0.681c0.195,0.951,0.361,1.92,0.493,2.878L119.031,71.11z M40.744,67.258
		l-3.277-0.783c0.226-0.946,0.486-1.894,0.775-2.818l3.215,1.006C41.192,65.514,40.951,66.387,40.744,67.258z M117.943,65.84
		c-0.239-0.86-0.513-1.724-0.811-2.567l3.178-1.122c0.323,0.914,0.619,1.852,0.879,2.785L117.943,65.84z M42.348,62.118l-3.14-1.221
		c0.354-0.908,0.741-1.813,1.151-2.688l3.051,1.433C43.03,60.447,42.674,61.281,42.348,62.118z M116.15,60.771
		c-0.352-0.816-0.739-1.635-1.147-2.431L118,56.796c0.445,0.866,0.864,1.753,1.245,2.639L116.15,60.771z M44.638,57.241
		l-2.947-1.634c0.472-0.852,0.979-1.695,1.503-2.507l2.829,1.832C45.54,55.68,45.072,56.457,44.638,57.241z M113.691,55.991
		c-0.462-0.767-0.956-1.527-1.467-2.258l2.762-1.93c0.554,0.792,1.088,1.615,1.59,2.446L113.691,55.991z M47.563,52.719
		l-2.699-2.018c0.578-0.774,1.192-1.541,1.825-2.279l2.559,2.193C48.664,51.297,48.096,52.005,47.563,52.719z M110.607,51.581
		c-0.561-0.698-1.152-1.384-1.758-2.04l2.478-2.284c0.655,0.711,1.296,1.455,1.905,2.21L110.607,51.581z M51.069,48.63l-2.405-2.359
		c0.678-0.691,1.389-1.368,2.114-2.015l2.241,2.518C52.35,47.369,51.693,47.994,51.069,48.63z M106.959,47.623
		c-0.652-0.618-1.331-1.219-2.017-1.788l2.148-2.595c0.744,0.617,1.479,1.268,2.186,1.936L106.959,47.623z M55.09,45.051
		l-2.068-2.662c0.766-0.595,1.562-1.171,2.364-1.711l1.883,2.793C56.53,43.971,55.796,44.501,55.09,45.051z M102.81,44.188
		c-0.725-0.523-1.479-1.028-2.239-1.501l1.782-2.86c0.823,0.513,1.638,1.061,2.427,1.627L102.81,44.188z M59.553,42.044
		l-1.692-2.915c0.836-0.486,1.702-0.949,2.573-1.379l1.489,3.023C61.121,41.169,60.322,41.597,59.553,42.044z M98.238,41.341
		c-0.793-0.422-1.609-0.822-2.422-1.186l1.378-3.075c0.881,0.396,1.765,0.828,2.625,1.286L98.238,41.341z M64.374,39.667
		l-1.283-3.116c0.895-0.368,1.814-0.709,2.738-1.019l1.067,3.197C66.045,39.013,65.197,39.329,64.374,39.667z M93.32,39.137
		c-0.84-0.309-1.7-0.594-2.557-0.844l0.948-3.233c0.931,0.272,1.864,0.581,2.774,0.917L93.32,39.137z M69.478,37.964l-0.847-3.261
		c0.939-0.245,1.898-0.458,2.851-0.638l0.623,3.311C71.226,37.541,70.343,37.74,69.478,37.964z M88.155,37.623
		c-0.869-0.191-1.758-0.356-2.646-0.49l0.501-3.333c0.963,0.145,1.929,0.324,2.874,0.532L88.155,37.623z M74.766,36.969
		l-0.398-3.347c0.961-0.114,1.939-0.197,2.91-0.247l0.172,3.365C76.555,36.787,75.652,36.863,74.766,36.969z M82.834,36.823
		c-0.886-0.073-1.792-0.117-2.688-0.131l0.049-3.369c0.973,0.015,1.955,0.062,2.917,0.142L82.834,36.823z"/>
	<path display="inline" fill="#FFFFFF" d="M78.522,78.533c-0.486-1.59-0.777-3.182-1.023-4.773
		c-0.234-1.591-0.395-3.182-0.494-4.774c-0.098-1.59-0.091-3.182,0.017-4.773c0.114-1.591,0.248-3.182,0.32-4.773l0.228-4.773
		l0.278-4.774c0.226-3.183,0.404-6.365,0.674-9.547h0.337c0.269,3.182,0.446,6.364,0.674,9.547l0.277,4.774l0.228,4.773
		c0.072,1.591,0.207,3.183,0.32,4.773c0.108,1.591,0.115,3.183,0.017,4.773c-0.097,1.592-0.26,3.183-0.494,4.774
		c-0.245,1.591-0.537,3.183-1.021,4.773H78.522z"/>
	<path display="inline" fill="#FFFFFF" d="M82.059,80.985c0.938-0.483,1.873-0.781,2.809-1.022c0.936-0.234,1.871-0.396,2.809-0.494
		c0.936-0.101,1.871-0.091,2.808,0.017c0.936,0.114,1.872,0.248,2.807,0.32l2.808,0.228l2.809,0.278
		c1.871,0.207,3.744,0.407,5.615,0.674v0.337c-1.871,0.266-3.744,0.467-5.615,0.674L96.1,82.274l-2.808,0.228
		c-0.936,0.072-1.871,0.206-2.807,0.32c-0.937,0.108-1.873,0.118-2.808,0.017c-0.938-0.099-1.873-0.26-2.809-0.495
		c-0.936-0.241-1.871-0.539-2.809-1.022V80.985z"/>
	<path display="inline" fill="#FFFFFF" d="M80,128.515c-28.488,0-51.667-23.178-51.667-51.667S51.512,25.181,80,25.181
		c28.49,0,51.667,23.178,51.667,51.667S108.49,128.515,80,128.515z M80,30.797c-25.392,0-46.05,20.659-46.05,46.051
		S54.608,122.899,80,122.899s46.052-20.659,46.052-46.051S105.392,30.797,80,30.797z"/>
	<circle display="inline" fill="#FFFFFF" cx="78.541" cy="81.519" r="1.313"/>
</g>
<g id="Layer_3" display="none">
	<circle display="inline" fill="#73C595" cx="79.164" cy="78.342" r="74"/>
	<circle display="inline" fill="#296E41" cx="79.164" cy="77.342" r="68"/>
	<circle display="inline" fill="#62A87F" cx="79.164" cy="80.342" r="68"/>
	<path display="inline" fill-rule="evenodd" clip-rule="evenodd" fill="#FFFFFF" d="M65.913,51.398c2.369,0,4.734,0,7.101,0
		c0.403,0.336,1.413,0.065,2.062,0.152c0.218-0.012,0.18,0.229,0.384,0.229c1.899-0.036,2.99,0.354,4.81,0.458
		c0.247-0.066,0.105,0.251,0.307,0.229c0.545-0.011,1.079-0.011,1.526,0.077c0.164-0.036,0.147,0.108,0.153,0.228
		c0.739-0.028,1.446-0.021,1.757,0.384c0.286,0.015,1.104-0.173,1.146,0.305c0.616-0.061,1.027,0.089,1.296,0.38
		c0.242,0.039,0.271-0.136,0.535-0.075c0.294,0.01,0.301,0.311,0.532,0.383c1.151,0.139,1.687,0.797,3.057,0.992
		c0.067,0.135,0.308,0.097,0.228,0.381c1.58,0.279,2.424,1.295,3.895,1.681c-0.01,0.189,0.12,0.237,0.152,0.382
		c0.179,0,0.357,0,0.536,0c0.334,0.581,1.138,0.693,1.678,1.069c0.798,0.451,1.419,1.077,2.445,1.299c0,0.125,0,0.253,0,0.381
		c0.571-0.138,0.468,0.398,0.992,0.305c0.06,0.068,0.081,0.172,0.077,0.307c0.668,0.145,1.008,0.62,1.678,0.763
		c-0.031,0.159,0.054,0.202,0.077,0.307c1.073,0.249,1.571,1.075,2.598,1.374c0.058,0.067,0.081,0.172,0.075,0.305
		c0.354,0.055,0.707,0.108,0.842,0.382c1.512-0.214,2.089,0.506,3.207,0.687c-0.039,0.266,0.189,0.269,0.305,0.384
		c1.404-0.114,2.634-0.097,4.123,0.074c0.057,0.145,0.228,0.053,0.074,0.229c0.937-0.265,1.703,0.305,2.521,0.382
		c0.725,0.07,1.391-0.101,2.063,0.076c0.891,0.234,2.154,0.411,3.359,0.535c0.383,0.04,0.834,0.323,1.145,0.381
		c0.504,0.096,1.109-0.119,1.527,0.307c0.668-0.032,1.238,0.032,1.529,0.381c0.229,0,0.455,0,0.684,0
		c0.215,0.018,0.219,0.243,0.385,0.305c1.227-0.029,1.768,0.626,2.9,0.688c0.045,0.209,0.393,0.117,0.381,0.381
		c2.008,0.36,3.107,1.629,4.582,2.521c0.326,0.732,0.848,1.033,1.145,1.832c0.07,0.189,0.338,0.33,0.383,0.458
		c0.014,0.042-0.125,0.187-0.074,0.305c0.105,0.268,0.428,0.549,0.379,0.917c0.795,0.603,1.123,1.677,1.682,2.52
		c0,0.229,0,0.458,0,0.688c-0.021,0.249,0.236,0.22,0.305,0.381c0.17,0.696-0.061,2.408,0.305,2.52c0,0.381,0,0.764,0,1.146
		c-0.457,0.513-0.09,1.186-0.23,1.907c-0.039,0.203-0.311,0.438-0.379,0.765c-0.17,0.773-0.137,0.762-0.537,1.374
		c-0.299,0.46-0.588,0.855-0.916,1.068c-0.566,0.368-1.363,0.169-2.215,0.229c-2.191,0.157-4.826,0.29-6.488,0.153
		c0.379-1.674,0.271-3.761-0.076-5.65c-0.266-0.219-0.352-0.615-0.305-1.146c-0.238-0.248-0.49-0.479-0.385-1.069
		c-0.396,0.094-0.295-0.313-0.305-0.611c-0.521-0.199-0.564-0.812-0.84-1.22c-0.27-0.401-0.725-0.72-0.84-1.223
		c-0.436-0.153-0.859-0.635-1.068-0.915c-0.09-0.124-0.133-0.056-0.23-0.154c-0.705-0.7-1.545-1.109-2.363-1.68
		c-0.264-0.054-0.508-0.024-0.613-0.382c-0.797,0.025-1.416-0.507-2.217-0.686c-1.93-0.437-4.018-0.271-6.107,0
		c-0.447,0.415-1.139,0.59-1.909,0.686c-0.472,0.52-1.249,0.734-1.907,1.068c-0.26,0.371-0.662,0.618-0.992,0.917
		c-0.328,0.296-0.652,0.647-1.069,0.841c-0.907,1.41-2.092,2.541-2.521,4.428c0.103,0.329-0.362,0.096-0.305,0.383
		c-0.53,2.184-0.606,5.45,0,7.405c-14.743-0.07-30.919,0.229-45.126-0.381c0.354-1.403,0.469-3.044,0.381-4.888
		c-0.322-0.415-0.334-1.142-0.381-1.832c-0.29-0.143-0.333-0.532-0.308-0.991c-0.585-0.561-0.604-1.688-1.296-2.139
		c-1.135-2.249-3.163-3.61-5.344-4.812c-0.81-0.106-1.463-0.371-2.063-0.686c-1.976-0.347-4.066-0.379-6.032,0
		c-0.599,0.314-1.278,0.554-2.062,0.686c-0.734,0.515-1.493,1.003-2.367,1.376c-0.506,0.704-1.217,1.254-1.756,1.831
		c-0.173,0.186-0.33,0.607-0.688,0.535c0.089,0.343-0.106,0.404-0.307,0.458c-0.422,0.898-0.839,1.808-1.372,2.596
		c0.196,0.536-0.27,0.858-0.383,1.299c-0.115,0.447,0.052,1.001-0.307,1.374c0.072,1.06-0.092,2.543,0,3.588
		c0.033,0.366,0.236,0.707,0.076,0.916c-0.498,0.279-0.915-0.215-1.373-0.305c-0.416-0.082-0.877,0.086-1.298-0.076
		c-0.136-0.054-0.24-0.202-0.382-0.228c-0.265-0.051-0.574,0.038-0.84,0c-0.364-0.056-0.647-0.317-0.992-0.384
		c-0.277-0.052-0.564,0.064-0.84,0c-0.233-0.054-0.451-0.255-0.687-0.304c-0.251-0.052-0.569,0.035-0.843,0
		c-0.351-0.05-0.651-0.32-0.991-0.382c-0.243-0.045-0.524,0.039-0.763,0c-0.326-0.056-0.592-0.241-0.916-0.308
		c-0.22-0.041-0.509,0.042-0.765,0c-0.338-0.05-0.649-0.351-0.915-0.381c-0.213-0.023-0.479,0.111-0.689,0.076
		c-0.37-0.062-0.693-0.313-1.068-0.381c-0.749-0.143-1.5-0.125-2.215-0.383c-0.145-0.16-0.207-0.402-0.533-0.381
		c-0.591-1.199-1.404-2.145-1.375-4.124c0.074-0.278-0.371-0.035-0.23-0.381c-0.17-3.636,0.452-6.472,1.985-8.399
		c0.618-0.098,0.924-0.503,1.452-0.688c1.009,0.043,1.482-0.451,2.597-0.305c0.348-0.486,0.969-0.262,1.604-0.384
		c0.106-0.019,0.289-0.196,0.381-0.228c0.441-0.15,0.829-0.034,1.298-0.077c0.049-0.257,0.389-0.224,0.535-0.381
		c1.576-0.081,2.468-0.841,3.971-0.992c0.379-0.384,0.924-0.605,1.604-0.688c0.108-0.309,0.441-0.321,0.688-0.457
		c0.756-0.422,1.422-0.965,2.214-1.3c-0.071-0.189,0.014-0.168,0.151-0.305c0.313-0.309,0.458-0.628,0.919-0.688
		c0.558-1.17,1.771-1.688,2.44-2.747c0.92-0.609,1.725-1.378,2.599-1.986c0.285-0.199,0.719-0.385,0.839-0.764
		c1.413-0.662,2.643-1.648,4.046-2.368c1.432-0.732,2.922-1.353,4.43-2.061c1.031-0.039,1.395-0.742,2.52-0.687
		c0.24,0.036,0.027-0.379,0.305-0.308c0.673,0.114,0.864-0.255,1.299-0.38c0.23,0,0.458,0,0.686,0
		c0.247-0.526,0.865-0.194,1.299-0.305c0.435-0.111,0.853-0.62,1.604-0.384c0.361-0.507,0.986-0.199,1.528-0.305
		c0.608-0.116,1.244-0.596,2.138-0.381c0.437-0.402,1.407-0.272,2.215-0.307C64.546,51.404,65.466,51.636,65.913,51.398z
		 M61.028,53.764c-0.672,0.549-1.555,0.238-2.292,0.383c-0.339,0.066-1.056,0.463-1.755,0.382c0.123-0.024,0.204,0.102,0.077,0.153
		c-0.801,0.092-1.329,0.453-2.216,0.457c-0.482,0.458-1.35,0.534-2.062,0.763c-0.196,0.009-0.109,0.298-0.306,0.307
		c-1.625,0.283-2.471,1.346-4.047,1.681c-0.106,0.172,0.195,0.285,0,0.305c-0.476-0.125-0.498,0.238-0.688,0.381
		c-0.377,0.288-1.022,0.285-0.992,0.688c-0.237-0.148-0.232,0.108-0.459,0.228c-0.123,0.066-0.396,0.035-0.458,0.077
		c-0.079,0.056-0.087,0.325-0.152,0.384c-0.224,0.189-0.603,0.196-0.839,0.381c-0.169,0.128-0.283,0.398-0.459,0.534
		c-0.418,0.324-0.891,0.607-1.376,0.763c0,0.128,0,0.256,0,0.384c-0.646,0.012-0.655,0.664-1.296,0.686
		c-0.014,0.114,0.027,0.283-0.076,0.307c-0.461,0.155-0.782,0.533-1.146,0.84c-0.337,0.282-0.931,0.506-0.993,1.068
		c10.437-0.051,21.073,0.102,31.384-0.076c-0.139-3.76-0.973-7.476-1.068-11.53C66.608,53.184,64.009,53.667,61.028,53.764z
		 M101.954,64.301c0.016-0.345-0.472-0.188-0.381-0.61c-0.697-0.192-0.929-0.854-1.68-0.993c0.065-0.242-0.121-0.236-0.152-0.381
		c-0.442,0.06-0.381-0.384-0.84-0.305c0.022-0.179-0.014-0.294-0.077-0.384c-0.893-0.098-1.093-0.89-1.985-0.992
		c-0.317-0.755-1.492-0.646-1.834-1.374c-1.048-0.352-1.929-0.871-2.823-1.373c-1.099-0.262-1.589-0.848-2.826-1.069
		c-0.177-0.029-0.073-0.334-0.305-0.307c-1.367-0.39-2.688-0.824-3.893-1.374c-0.707-0.143-1.457-0.148-2.139-0.381
		c-0.213-0.072-0.332-0.258-0.537-0.307c-0.229-0.056-0.507,0.045-0.763,0c-0.314-0.056-0.56-0.332-0.839-0.382
		c-0.59-0.104-1.279,0.203-1.757-0.306c-1.885-0.023-3.789-0.435-5.497-0.382c-0.336,0.639-0.009,1.199,0.077,1.604
		c0.195,0.947,0.021,2.017,0.15,2.977c0.072,0.537,0.353,1.051,0.382,1.604c0.081,1.414,0.3,2.782,0.308,4.277
		c0.249,0.233,0.259,0.705,0.229,1.222c9.314,0,18.631,0,27.945,0C102.702,64.572,102.309,64.458,101.954,64.301z"/>
	<path display="inline" fill-rule="evenodd" clip-rule="evenodd" fill="#FFFFFF" d="M119.793,79.711
		c1.082,0.076,1.309,1.009,2.178,1.296c0.029,0.327,0.205,0.505,0.531,0.53c-0.102,0.193-0.072,0.363,0.234,0.294
		c0.016,0.516,0.553,0.508,0.531,1.06c0.371,0.041,0.197,0.626,0.527,0.707c0,0.117,0,0.236,0,0.354
		c0.127,0.053,0.191,0.163,0.297,0.235c0.025,0.123-0.041,0.156-0.061,0.236c0.578,1.067,0.736,2.988,0.471,4.532
		c0.053,0.189-0.193,0.08-0.176,0.237c0.039,0.353-0.055,0.573-0.057,0.882c-0.32-0.024-0.215,0.378-0.238,0.647
		c-0.426,0.417-0.471,1.217-1,1.53c0,0.1,0,0.197,0,0.295c-0.773,0.561-1.154,1.517-2.119,1.884
		c-0.082,0.019-0.049,0.147-0.059,0.234c-0.904,0.316-1.463,0.975-2.592,1.061c-0.756,0.744-2.688,0.537-4.062,0.472
		c0-0.431-0.788-0.074-0.825-0.472c-0.288-0.003-0.591,0.003-0.647-0.235c-0.312,0-0.646,0.018-0.646-0.293
		c-0.236,0.039-0.337-0.057-0.529-0.061c-0.244-0.463-0.973-0.439-1.119-1c-0.742-0.188-0.777-0.772-1.355-1.06
		c0.032-0.048,0.062-0.096,0.061-0.177c-0.738-0.597-1.079-1.59-1.59-2.413c0-0.179,0-0.354,0-0.53
		c-0.015-0.104-0.101-0.135-0.234-0.119c-0.065-0.446,0.016-1.037-0.236-1.296c-0.09-1.345,0.105-2.403,0.236-3.532
		c0.045-0.03,0.094-0.061,0.175-0.059c0-0.156,0-0.313,0-0.47c0.117-0.059,0.094-0.261,0.294-0.235
		c-0.017-0.94,0.684-1.163,0.824-1.943c0.812-0.643,1.274-1.63,2.296-2.061c0.253-0.201,0.362-0.541,0.824-0.531
		c0.548-0.57,1.64-0.598,2.355-1c1.909-0.193,3.706-0.004,5.004,0.473c0.135,0.178,0.346,0.283,0.648,0.293
		C119.779,79.53,119.797,79.61,119.793,79.711z M110.254,88.602c-0.013-0.046-0.049-0.067-0.117-0.06
		c0.276,0.396,0.403,0.936,0.529,1.474c0.27-0.035,0.219,0.253,0.235,0.472c0.591,0.372,0.739,1.185,1.532,1.353
		c0,0.079,0,0.158,0,0.237c0.098,0,0.194,0,0.293,0c0,0.077,0,0.155,0,0.234c0.213,0.063,0.517,0.035,0.53,0.294
		c0.276,0,0.58-0.031,0.591,0.237c0.339,0.089,0.943-0.083,1,0.293c1.273,0.126,2.07-0.152,2.884-0.235
		c0.119-0.194,0.279-0.35,0.646-0.295c0.203-0.309,0.523-0.5,1.002-0.528c0.078-0.276,0.18-0.528,0.529-0.531
		c-0.047-0.201,0.033-0.28,0.236-0.234c0-0.099,0-0.197,0-0.295c0.1,0,0.195,0,0.295,0c-0.027-0.204-0.012-0.365,0.234-0.295
		c0-0.138,0-0.273,0-0.413c0.068-0.049,0.158-0.076,0.297-0.058c0-0.177,0-0.354,0-0.53c0.109,0.014,0.127-0.066,0.234-0.059
		c0-0.157,0-0.315,0-0.47c0.496-0.447,0.225-2.114,0.293-3.181c-0.301-0.091-0.309-0.476-0.293-0.883
		c-0.305,0.029-0.189-0.36-0.295-0.531c-0.268,0.035-0.219-0.252-0.236-0.471c-0.246,0.071-0.262-0.089-0.234-0.293
		c-0.42-0.014-0.293-0.572-0.768-0.53c0-0.078,0-0.157,0-0.235c-0.096,0-0.195,0-0.293,0c-0.045-0.443-0.6-0.381-0.707-0.766
		c-0.332,0.038-0.527-0.061-0.59-0.294c-0.281-0.029-0.727,0.097-0.705-0.236c-1.068-0.055-1.992-0.055-3.061,0
		c-0.003,0.331-0.464,0.202-0.767,0.236c-0.034,0.24-0.229,0.32-0.527,0.294c-0.158,0.295-0.491,0.414-0.824,0.53
		c0.043,0.202-0.033,0.281-0.238,0.235c0,0.099,0,0.197,0,0.294c-0.077-0.018-0.11-0.084-0.235-0.059
		c-0.187,0.42-0.535,0.681-0.824,1.001c-0.007,0.27-0.263,0.794-0.528,1C110.27,86.264,109.921,87.782,110.254,88.602z"/>
	<path display="inline" fill-rule="evenodd" clip-rule="evenodd" fill="#FFFFFF" d="M54.09,81.862
		c0.291,0.92,1.093,1.329,1.15,2.486c0.442,0.127,0.076,1.093,0.486,1.092c0.097,1.643,0.289,3.862-0.548,5.034
		c0,0.141,0,0.283,0,0.425c-0.052,0.048-0.135,0.065-0.239,0.062c0,0.141,0,0.282,0,0.425c-0.097,0.024-0.055,0.189-0.244,0.12
		c-0.11,1.043-1.124,1.506-1.395,2.184c0.012,0.132-0.217,0.027-0.305,0.061c0.005,0.097-0.028,0.233,0.062,0.242
		c-0.04,0.183-0.13-0.057-0.243,0c-0.161,0.386-0.658,0.435-0.789,0.849c-0.101,0-0.201,0-0.303,0
		c-0.206,0.423-0.884,0.369-1.092,0.789c-1.734,0.682-5.131,0.658-7.098,0.183c0.009-0.071,0.111-0.051,0.182-0.061
		c-0.685-0.103-1.11-0.465-1.698-0.667c0-0.081,0-0.162,0-0.244c-0.206,0.027-0.339-0.023-0.484-0.06
		c-0.044-0.261-0.399-0.528-0.546-0.485c-0.18-0.31-0.259-0.376-0.607-0.546c-0.113-0.595-1.033-0.849-1.151-1.637
		c-0.329-0.016-0.135-0.554-0.485-0.547c0.08-0.545-0.395-0.537-0.303-1.092c-0.01-0.112-0.206-0.036-0.243-0.121
		c0.032-0.882-0.468-1.229-0.305-2.245c-0.009-0.07-0.109-0.051-0.181-0.06c-0.113-1.146,0.26-1.803,0.242-2.853
		c0.061,0,0.121,0,0.183,0c-0.062-0.97,0.524-1.294,0.606-2.122c0.438-0.108,0.276-0.814,0.786-0.849c0-0.121,0-0.243,0-0.363
		c0.082,0,0.164,0,0.245,0c0.183-0.809,1.012-0.971,1.334-1.639c0.098,0.005,0.232-0.03,0.242,0.06
		c0.513-0.577,1.45-1.204,2.549-1.394c0.116-0.43,0.989-0.102,1.153-0.486c1.529-0.16,3.229-0.061,4.486,0.242
		c-0.044,0.469,0.802,0.049,0.789,0.485c0.234-0.031,0.298,0.108,0.547,0.062c-0.003,0.324,0.518,0.13,0.484,0.485
		c0.468-0.023,0.603,0.286,0.789,0.546c0.122,0,0.243,0,0.363,0c0.354,0.616,1.118,0.822,1.335,1.577
		C53.866,81.882,53.999,81.85,54.09,81.862z M49.721,82.104c-0.142,0-0.284,0-0.424,0c0.001-0.486-0.869-0.101-0.91-0.547
		c-1.102-0.057-2.053-0.057-3.154,0c0.016,0.319-0.365,0.242-0.667,0.243c-0.179,0.348-0.64,0.409-1.032,0.545
		c-0.196,0.268-0.451,0.48-0.787,0.608c-0.011,0.091,0.022,0.223-0.061,0.241c-0.081,0-0.161,0-0.242,0
		c-0.177,0.249-0.178,0.673-0.547,0.729c-0.127,0.377-0.27,0.74-0.547,0.969c0.043,0.087,0.053,0.656-0.242,0.607
		c-0.142,1.286-0.119,2.469,0,3.762c0.138-0.018,0.229,0.013,0.242,0.119c0.117,0.635,0.478,1.24,0.85,1.518c0,0.08,0,0.16,0,0.242
		c0.76,0.555,1.282,1.346,2.366,1.577c0.098,0.531,1.142,0.113,1.335,0.546c0.627,0,1.253,0,1.878,0
		c0.181-0.326,0.81-0.203,1.216-0.303c-0.018-0.139,0.014-0.229,0.121-0.243c0.541-0.064,0.714-0.497,1.272-0.545
		c0.12-0.487,0.734-0.48,0.789-1.032c0.143,0.021,0.233-0.01,0.304-0.061c0.237-0.491,0.516-0.94,0.789-1.395
		c-0.011-0.274,0.029-0.497,0.241-0.546c0.151-1.166,0.141-2.411,0-3.578c-0.338-0.006-0.208-0.481-0.241-0.789
		c-0.355,0.11-0.221-0.265-0.244-0.485c-0.148,0.008-0.25-0.032-0.303-0.122c-0.375-0.675-0.797-1.306-1.577-1.576
		c0-0.082,0-0.163,0-0.244c-0.171-0.05-0.157,0.086-0.303,0.061C49.852,82.255,49.749,82.218,49.721,82.104z"/>
</g>
</svg>
