<?xml version="1.0" encoding="utf-8"?>
<!-- Generator: Adobe Illustrator 15.1.0, SVG Export Plug-In . SVG Version: 6.00 Build 0)  -->
<!DOCTYPE svg PUBLIC "-//W3C//DTD SVG 1.1//EN" "http://www.w3.org/Graphics/SVG/1.1/DTD/svg11.dtd">
<svg version="1.1" id="Layer_1" xmlns="http://www.w3.org/2000/svg" xmlns:xlink="http://www.w3.org/1999/xlink" x="0px" y="0px"
	 width="126.666px" height="126.666px" viewBox="0 0 126.666 126.666" enable-background="new 0 0 126.666 126.666"
	 xml:space="preserve">
<path fill="#E55A81" d="M63.333,0C28.354,0,0,28.355,0,63.334c0,34.977,28.354,63.332,63.333,63.332
	c34.977,0,63.333-28.355,63.333-63.332C126.666,28.355,98.31,0,63.333,0z M81.516,92.568L70.829,79.4
	c-2.82-3.383-5.195-6.645-7.719-10.148h-0.297c-2.374,3.504-4.749,6.645-7.569,10.148l-10.39,13.168H30.458l25.528-29.84
	L31.646,34.1H46.19l10.241,12.563c2.82,3.262,5.047,6.162,7.421,9.424h0.297c2.375-3.383,4.75-6.404,7.273-9.545L81.367,34.1h14.248
	L71.126,62.367l25.083,30.201H81.516z"/>
</svg>
