<?xml version="1.0" encoding="utf-8"?>
<!-- Generator: Adobe Illustrator 15.1.0, SVG Export Plug-In . SVG Version: 6.00 Build 0)  -->
<!DOCTYPE svg PUBLIC "-//W3C//DTD SVG 1.1//EN" "http://www.w3.org/Graphics/SVG/1.1/DTD/svg11.dtd">
<svg version="1.1" id="Layer_1" xmlns="http://www.w3.org/2000/svg" xmlns:xlink="http://www.w3.org/1999/xlink" x="0px" y="0px"
	 width="194.747px" height="167.573px" viewBox="36.156 39.545 194.747 167.573"
	 enable-background="new 36.156 39.545 194.747 167.573" xml:space="preserve">
<g id="Layer_1_1_" display="none">
	<g display="inline">
		<g>
			<path fill="#E55A81" d="M250.207,238.411c0,5.5-4.5,10-10,10H18.843c-5.5,0-10-4.5-10-10V17.044c0-5.5,4.5-10,10-10h221.364
				c5.5,0,10,4.5,10,10V238.411z"/>
		</g>
		<rect x="70.602" y="67.104" fill="#F392B0" width="119.789" height="138.393"/>
		<rect x="132.711" y="67.393" fill="#F3B2CD" width="57.68" height="137.378"/>
		<polygon fill="#F3B2CD" points="190.391,205.484 70.457,205.484 132.719,174.402 		"/>
		<path fill="#FBD9E7" d="M107.561,80.619c0,2.41-1.956,4.362-4.361,4.362c-2.408,0-4.36-1.952-4.36-4.362
			c0-2.402,1.952-4.359,4.36-4.359C105.604,76.26,107.561,78.217,107.561,80.619z"/>
		<path fill="#FBD9E7" d="M162.363,80.914c0,2.405-1.951,4.361-4.361,4.361c-2.411,0-4.361-1.956-4.361-4.361
			c0-2.408,1.95-4.36,4.361-4.36C160.412,76.554,162.363,78.506,162.363,80.914z"/>
		<g>
			<path fill="#FBD9E7" d="M155.326,88.799c0,9.62-6.047,34.891-13.477,34.891h-21.574c-6.932,0-13.092-24.126-13.83-34.891
				c-0.142-0.395,0.076,1.038,0,0h-5.039c0,13.465,8.465,41.869,18.869,41.869h21.574c10.4,0,18.871-28.404,18.871-41.869H155.326z"
				/>
		</g>
	</g>
</g>
<g id="Layer_2" display="none">
	<g display="inline">
		<g>
			<path fill="#E55A81" d="M250.208,238.411c0,5.5-4.5,10-10,10H18.843c-5.5,0-10-4.5-10-10V17.043c0-5.5,4.5-10,10-10h221.365
				c5.5,0,10,4.5,10,10V238.411L250.208,238.411z"/>
		</g>
		<g>
			<polygon fill="#F8BBD1" points="100.281,212.126 124.824,205.064 120.858,186.343 98.303,201.342 			"/>
			<polygon fill="#FBD9E7" points="156.854,212.126 132.313,205.064 136.277,186.343 158.836,201.342 			"/>
			<path fill="#F8BBD1" d="M65.88,129.461c0,1.641-1.332,2.975-2.977,2.975h-6.319c-1.643,0-2.975-1.334-2.975-2.975V111.24
				c0-1.646,1.332-2.973,2.975-2.973h6.319c1.645,0,2.977,1.327,2.977,2.973V129.461z"/>
			<path fill="#F8BBD1" d="M95.007,118.922c0,1.646-1.331,2.977-2.974,2.977h-6.319c-1.646,0-2.977-1.331-2.977-2.977v-18.221
				c0-1.641,1.331-2.972,2.977-2.972h6.319c1.643,0,2.974,1.331,2.974,2.972V118.922z"/>
			<path fill="#FBD9E7" d="M173.835,117.804c0,1.646-1.332,2.979-2.978,2.979h-6.318c-1.641,0-2.975-1.334-2.975-2.979V99.588
				c0-1.641,1.334-2.975,2.975-2.975h6.318c1.646,0,2.978,1.334,2.978,2.975V117.804z"/>
			<path fill="#FBD9E7" d="M202.837,131.564c0,1.643-1.328,2.975-2.974,2.975h-6.324c-1.639,0-2.969-1.332-2.969-2.975v-18.216
				c0-1.646,1.33-2.977,2.969-2.977h6.324c1.646,0,2.974,1.331,2.974,2.977V131.564z"/>
			<path fill="#FBD9E7" d="M144.173,68.518l-0.375,74.505v0.224c-0.01,0.093-0.032,0.226-0.055,0.385
				c-0.985,6.884-10.119,69.735-14.962,69.05c-4.765,3.42-14.259-62.229-15.227-69.05l0,0l-0.495-75.113
				c0,0,4.063-26.944,15.494-31.182c0.017-0.013,0.036-0.018,0.061-0.027c0.02,0.01,0.045,0.015,0.062,0.027
				C140.109,41.573,144.173,68.518,144.173,68.518z"/>
			<polygon fill="#F8BBD1" points="114.962,135.407 113.847,94.507 36.134,132.807 36.505,141.729 			"/>
			<polygon fill="#FBD9E7" points="142.85,135.902 143.964,95 221.677,133.301 221.305,142.227 			"/>
			<path fill="#F8BBD1" d="M128.781,212.68c-4.765,3.422-14.259-62.229-15.227-69.049l0,0l-0.495-75.113
				c0,0,4.063-26.944,15.494-31.182c0.017-0.013,0.036-0.018,0.061-0.027c0.02,0.01,0.045,0.015,0.062,0.027"/>
			<path fill="#F392B0" d="M119.606,58.379c0.122-0.488,0.306-0.953,0.515-1.41c0.206-0.455,0.441-0.895,0.698-1.326
				c0.527-0.855,1.158-1.66,1.891-2.389c0.738-0.726,1.594-1.378,2.577-1.868c0.981-0.487,2.102-0.812,3.267-0.843
				c1.157-0.04,2.324,0.225,3.34,0.705c1.015,0.477,1.883,1.148,2.609,1.898c0.727,0.76,1.326,1.586,1.813,2.469
				c0.242,0.439,0.468,0.891,0.656,1.35c0.189,0.458,0.354,0.926,0.479,1.414c-0.761-0.652-1.459-1.312-2.181-1.917
				c-0.711-0.616-1.424-1.189-2.16-1.673c-0.729-0.485-1.473-0.888-2.228-1.147c-0.75-0.265-1.497-0.392-2.258-0.368
				c-1.511,0.035-3.07,0.694-4.573,1.648c-0.756,0.471-1.491,1.018-2.227,1.604C121.09,57.109,120.361,57.731,119.606,58.379z"/>
		</g>
	</g>
</g>
<g id="Layer_3" display="none">
	<g display="inline">
		<g>
			<path fill="#E55A81" d="M250.208,238.411c0,5.5-4.5,10-10,10H18.843c-5.5,0-10-4.5-10-10V17.044c0-5.5,4.5-10,10-10h221.365
				c5.5,0,10,4.5,10,10V238.411L250.208,238.411z"/>
		</g>
		<g>
			<g>
				<path fill="#FBDCE6" d="M199.529,21.312c-2.822,2.342-4.672,6.329-5.029,10.649l5.26,4.841
					c-0.701-4.14,0.801-8.725,3.518-10.982c3.767-3.127,10.041-1.808,13.992,2.944c3.948,4.755,4.097,11.167,0.33,14.293
					c-2.121,1.763-5.5,2.538-8.758,2.104l5.748,5.284c2.594-0.404,4.963-1.383,6.758-2.873c5.735-4.771,5.51-14.533-0.502-21.777
					C214.827,18.559,205.266,16.545,199.529,21.312z"/>
			</g>
			<path fill="#FFFFFF" d="M203.244,85.509l-20.251,16.825c-1.479,1.231-3.774,0.92-5.115-0.701l-6.524-10.127L162.837,78.3
				l-11.063-17.174c-1.344-1.619-1.231-3.929,0.246-5.159l15.783-13.116"/>
			<path fill="#FBDCE6" d="M203.098,85.634l20.254-16.828c1.479-1.229,1.588-3.541,0.244-5.159l-8.756-8.269l-11.427-10.791
				l-14.856-14.021c-1.347-1.62-3.637-1.934-5.117-0.703l-15.782,13.115"/>
			<polygon fill="#FFFFFF" points="130.102,85.511 157.096,75.804 164.641,87.851 133.45,92.573 			"/>
			<polyline fill="#FFFFFF" points="117.808,84.736 125.998,102.785 130.62,93.259 127.332,86.251 			"/>
		</g>
		<rect x="78.591" y="159.959" fill="#FFFFFF" width="4.367" height="67.729"/>
		<path fill="#F7B6D0" d="M85.138,191.148c0,0,15.999-23.088,40.179-3.092C125.316,188.057,100.043,192.419,85.138,191.148z"/>
		<path fill="#FBDCE6" d="M75.503,190.968c0,0-15.999-23.091-40.179-3.095C35.324,187.873,60.598,192.232,75.503,190.968z"/>
		<path fill="#F7B6D0" d="M85.483,169.609c0,0,8.736-12.61,21.943-1.688C107.427,167.923,93.624,170.307,85.483,169.609z"/>
		<path fill="#FBDCE6" d="M76.616,169.316c0,0-8.741-12.616-21.95-1.689C54.666,167.627,68.469,170.01,76.616,169.316z"/>
		<path fill="#FFFFFF" d="M96.218,123.763c0,8.744-7.086,15.828-15.828,15.828c-8.738,0-15.822-7.084-15.822-15.828
			c0-8.739,7.084-15.82,15.822-15.82C89.132,107.942,96.218,115.023,96.218,123.763z"/>
		<path fill="#FBDCE6" d="M99.231,120.202l2.543,4.026l12.149-0.128C113.924,124.101,108.652,114.332,99.231,120.202z"/>
		<path fill="#F7B6D0" d="M99.308,128.305l2.459-4.076l12.152-0.118C113.919,124.11,108.846,133.986,99.308,128.305z"/>
		<path fill="#FBDCE6" d="M95.083,111.276l3.847,2.801l11.24-4.603C110.17,109.475,101.669,102.334,95.083,111.276z"/>
		<path fill="#F7B6D0" d="M98.138,118.775l0.787-4.696l11.245-4.595C110.17,109.484,109.106,120.54,98.138,118.775z"/>
		<path fill="#FBDCE6" d="M86.683,105.701l4.749,0.302l7.027-9.904C98.459,96.099,87.452,94.628,86.683,105.701z"/>
		<path fill="#F7B6D0" d="M93.278,110.396l-1.852-4.387l7.037-9.903C98.464,96.106,103.483,106.013,93.278,110.396z"/>
		<path fill="#FBDCE6" d="M76.15,105.124l4.107-2.402l0.289-12.143C80.547,90.579,70.597,95.508,76.15,105.124z"/>
		<path fill="#F7B6D0" d="M84.242,105.331l-3.989-2.602l0.307-12.146C80.56,90.584,90.257,95.993,84.242,105.331z"/>
		<path fill="#FBDCE6" d="M85.721,142.143l-4.021,2.539l0.125,12.146C81.825,156.828,91.601,151.563,85.721,142.143z"/>
		<path fill="#F7B6D0" d="M77.622,142.212l4.08,2.461l0.115,12.152C81.817,156.825,71.938,151.75,77.622,142.212z"/>
		<path fill="#FBDCE6" d="M95.179,137.283l-2.801,3.85l4.603,11.242C96.98,152.375,104.118,143.869,95.179,137.283z"/>
		<path fill="#F7B6D0" d="M87.681,140.341l4.697,0.784l4.591,11.25C96.969,152.375,85.917,151.307,87.681,140.341z"/>
		<path fill="#FBDCE6" d="M99.342,129.063l-0.304,4.748l9.913,7.027C108.951,140.839,110.423,129.834,99.342,129.063z"/>
		<path fill="#F7B6D0" d="M94.646,135.659l4.389-1.858l9.904,7.042C108.939,140.843,99.035,145.865,94.646,135.659z"/>
		<path fill="#FBDCE6" d="M62.589,129.188l-2.543-4.025l-12.147,0.128C47.898,125.288,53.165,135.063,62.589,129.188z"/>
		<path fill="#F7B6D0" d="M62.515,121.087l-2.461,4.073l-12.152,0.12C47.901,125.28,52.977,115.401,62.515,121.087z"/>
		<path fill="#FBDCE6" d="M67.588,137.663l-4.181-2.293l-10.556,6.013C52.852,141.383,62.204,147.37,67.588,137.663z"/>
		<path fill="#F7B6D0" d="M63.587,130.613l-0.172,4.757l-10.563,6.003C52.852,141.373,52.491,130.273,63.587,130.613z"/>
		<path fill="#FBDCE6" d="M75.67,142.809l-4.749-0.306l-7.03,9.911C63.891,152.414,74.893,153.883,75.67,142.809z"/>
		<path fill="#F7B6D0" d="M69.067,138.111l1.854,4.387l-7.037,9.9C63.884,152.398,58.869,142.498,69.067,138.111z"/>
		<path fill="#FBDCE6" d="M67.625,109.827l2.175-4.231l-6.289-10.399C63.511,95.196,57.772,104.705,67.625,109.827z"/>
		<path fill="#F7B6D0" d="M74.562,105.647l-4.759-0.045l-6.277-10.406C63.525,95.196,74.613,94.549,74.562,105.647z"/>
		<path fill="#FBDCE6" d="M62.274,118.954l0.305-4.752l-9.911-7.022C52.668,107.18,51.201,118.182,62.274,118.954z"/>
		<path fill="#F7B6D0" d="M66.97,112.354l-4.386,1.858l-9.906-7.042C52.678,107.17,62.584,102.15,66.97,112.354z"/>
	</g>
</g>
<g id="Layer_5" display="none">
	<g display="inline">
		<g>
			<path fill="#E55A81" d="M250.208,238.411c0,5.5-4.5,10-10,10H18.843c-5.5,0-10-4.5-10-10V17.044c0-5.5,4.5-10,10-10h221.365
				c5.5,0,10,4.5,10,10V238.411L250.208,238.411z"/>
		</g>
		<g>
			<polygon fill="#F392B0" points="86.871,102.845 172.764,102.845 172.764,98.028 83.806,98.028 83.806,128.289 172.764,128.289 
				172.764,123.476 86.871,123.476 			"/>
			<rect x="86.871" y="102.845" fill="#FBDCE6" width="81.802" height="20.631"/>
			<rect x="86.871" y="113.16" fill="#F8BBD1" width="81.802" height="10.315"/>
			<polygon fill="#F392B0" points="78.429,132.671 178.764,132.671 178.764,128.49 74.847,128.49 74.847,154.768 178.764,154.768 
				178.764,150.585 78.429,150.585 			"/>
			<rect x="78.429" y="132.671" fill="#FBDCE6" width="95.557" height="17.914"/>
			<rect x="78.429" y="141.628" fill="#F8BBD1" width="95.557" height="8.957"/>
			<polygon fill="#F392B0" points="92.165,158.945 192.499,158.945 192.499,154.768 88.583,154.768 88.583,181.044 192.499,181.044 
				192.499,176.864 92.165,176.864 			"/>
			<rect x="92.165" y="158.945" fill="#FBDCE6" width="95.558" height="17.919"/>
			<rect x="92.165" y="167.906" fill="#F8BBD1" width="95.558" height="8.958"/>
			<polygon fill="#F392B0" points="74.977,186.076 195.686,186.076 195.686,181.044 70.665,181.044 70.665,212.658 195.686,212.658 
				195.686,207.629 74.977,207.629 			"/>
			<rect x="74.977" y="186.076" fill="#FBDCE6" width="114.958" height="21.553"/>
			<rect x="74.977" y="196.854" fill="#F8BBD1" width="114.958" height="10.775"/>
			<polygon fill="#FFFFFF" points="94.538,113.569 112.073,113.53 112.073,136.014 103.347,127.288 94.455,136.184 			"/>
			<polygon fill="#FFFFFF" points="142.615,167.919 160.148,167.877 160.148,190.361 151.426,181.636 142.529,190.527 			"/>
			<g>
				<polygon fill="#FBDCE6" points="122.523,83.057 137.753,83.057 130.174,97.499 				"/>
				<path fill="#F8BBD1" d="M122.595,44.199v-7.537c0-1.04,0.745-1.884,1.667-1.884h11.824c0.922,0,1.667,0.844,1.667,1.884v7.537"
					/>
				<rect x="122.595" y="44.199" fill="#FFFFFF" width="15.09" height="6.907"/>
				<rect x="122.595" y="50.95" fill="#FBDCE6" width="7.951" height="32.183"/>
				<rect x="130.546" y="50.95" fill="#F8BBD1" width="7.187" height="32.106"/>
				<polygon fill="#F392B0" points="128.069,93.654 132.209,93.654 130.146,97.577 				"/>
			</g>
		</g>
	</g>
</g>
<g id="Layer_6">
</g>
<g>
	<polygon fill="#CA1D8B" points="230.903,118.735 224.097,127.125 133.22,53.445 42.949,126.638 36.156,118.26 131.869,40.654 
		133.234,39.545 137.45,42.969 	"/>
	<polygon fill="#CA1D8B" points="190.51,81.411 170.363,65.371 170.363,44.744 190.51,44.744 	"/>
	<path fill="#CA1D8B" d="M133.666,65.611l-75.791,59.764l0.09,81.504l148.134,0.239v-85.145L133.666,65.611z M126.712,206.879
		H89.101v-59.482h37.611V206.879z M168.085,163.228h-17.029v-17.029h17.029V163.228z M168.085,142.841h-17.029V125.81h17.029
		V142.841z M188.47,163.228h-17.028v-17.029h17.028V163.228z M188.47,142.841h-17.028V125.81h17.028V142.841z"/>
</g>
</svg>
