<?xml version="1.0" encoding="utf-8"?>
<!-- Generator: Adobe Illustrator 15.1.0, SVG Export Plug-In . SVG Version: 6.00 Build 0)  -->
<!DOCTYPE svg PUBLIC "-//W3C//DTD SVG 1.1//EN" "http://www.w3.org/Graphics/SVG/1.1/DTD/svg11.dtd">
<svg version="1.1" id="Layer_1" xmlns="http://www.w3.org/2000/svg" xmlns:xlink="http://www.w3.org/1999/xlink" x="0px" y="0px"
	 width="257px" height="253px" viewBox="0 0 257 253" enable-background="new 0 0 257 253" xml:space="preserve">
<g>
	<path fill="#ED7A9D" d="M250.208,238.411c0,5.5-4.5,10-10,10H18.843c-5.5,0-10-4.5-10-10V17.043c0-5.5,4.5-10,10-10h221.365
		c5.5,0,10,4.5,10,10V238.411L250.208,238.411z"/>
</g>
<g>
	<path fill="#BA2D63" d="M236.208,220.571c0,4.861-3.978,8.84-8.84,8.84H31.683c-4.862,0-8.84-3.979-8.84-8.84V24.883
		c0-4.862,3.978-8.84,8.84-8.84h195.686c4.862,0,8.84,3.978,8.84,8.84V220.571L236.208,220.571z"/>
</g>
<g>
	<path fill="#D85581" d="M236.208,225.571c0,4.861-3.978,8.84-8.84,8.84H31.683c-4.862,0-8.84-3.979-8.84-8.84V29.883
		c0-4.862,3.978-8.84,8.84-8.84h195.686c4.862,0,8.84,3.978,8.84,8.84V225.571L236.208,225.571z"/>
</g>
<g id="Layer_1_1_" display="none">
	<g display="inline">
		<g>
			<path fill="#E55A81" d="M250.207,238.411c0,5.5-4.5,10-10,10H18.843c-5.5,0-10-4.5-10-10V17.044c0-5.5,4.5-10,10-10h221.364
				c5.5,0,10,4.5,10,10V238.411z"/>
		</g>
		<rect x="70.602" y="67.104" fill="#F392B0" width="119.789" height="138.393"/>
		<rect x="132.711" y="67.393" fill="#F3B2CD" width="57.68" height="137.378"/>
		<polygon fill="#F3B2CD" points="190.391,205.484 70.457,205.484 132.719,174.402 		"/>
		<path fill="#FBD9E7" d="M107.561,80.619c0,2.41-1.956,4.362-4.361,4.362c-2.408,0-4.36-1.952-4.36-4.362
			c0-2.402,1.952-4.359,4.36-4.359C105.604,76.26,107.561,78.217,107.561,80.619z"/>
		<path fill="#FBD9E7" d="M162.363,80.914c0,2.405-1.951,4.361-4.361,4.361c-2.411,0-4.361-1.956-4.361-4.361
			c0-2.408,1.95-4.36,4.361-4.36C160.412,76.554,162.363,78.506,162.363,80.914z"/>
		<g>
			<path fill="#FBD9E7" d="M155.326,88.799c0,9.62-6.047,34.891-13.477,34.891h-21.573c-6.932,0-13.092-24.126-13.83-34.891
				c-0.142-0.395,0.076,1.038,0,0h-5.039c0,13.465,8.465,41.869,18.869,41.869h21.573c10.401,0,18.871-28.404,18.871-41.869H155.326
				z"/>
		</g>
	</g>
</g>
<g id="Layer_2" display="none">
	<g display="inline">
		<g>
			<path fill="#E55A81" d="M250.208,238.411c0,5.5-4.5,10-10,10H18.843c-5.5,0-10-4.5-10-10V17.043c0-5.5,4.5-10,10-10h221.365
				c5.5,0,10,4.5,10,10V238.411L250.208,238.411z"/>
		</g>
		<g>
			<polygon fill="#F8BBD1" points="100.281,212.126 124.824,205.064 120.858,186.343 98.303,201.342 			"/>
			<polygon fill="#FBD9E7" points="156.854,212.126 132.313,205.064 136.277,186.343 158.836,201.342 			"/>
			<path fill="#F8BBD1" d="M65.88,129.461c0,1.641-1.332,2.975-2.977,2.975h-6.319c-1.643,0-2.975-1.334-2.975-2.975V111.24
				c0-1.646,1.332-2.973,2.975-2.973h6.319c1.645,0,2.977,1.327,2.977,2.973V129.461z"/>
			<path fill="#F8BBD1" d="M95.007,118.922c0,1.646-1.331,2.977-2.974,2.977h-6.319c-1.646,0-2.977-1.331-2.977-2.977v-18.221
				c0-1.641,1.331-2.972,2.977-2.972h6.319c1.643,0,2.974,1.331,2.974,2.972V118.922z"/>
			<path fill="#FBD9E7" d="M173.835,117.804c0,1.646-1.332,2.979-2.978,2.979h-6.318c-1.641,0-2.975-1.334-2.975-2.979V99.588
				c0-1.641,1.334-2.975,2.975-2.975h6.318c1.646,0,2.978,1.334,2.978,2.975V117.804z"/>
			<path fill="#FBD9E7" d="M202.837,131.564c0,1.643-1.328,2.975-2.974,2.975h-6.324c-1.639,0-2.969-1.332-2.969-2.975v-18.216
				c0-1.646,1.33-2.977,2.969-2.977h6.324c1.646,0,2.974,1.331,2.974,2.977V131.564z"/>
			<path fill="#FBD9E7" d="M144.173,68.518l-0.375,74.505v0.224c-0.01,0.093-0.032,0.226-0.055,0.385
				c-0.985,6.884-10.119,69.735-14.962,69.05c-4.765,3.42-14.259-62.229-15.227-69.05l0,0l-0.495-75.113
				c0,0,4.063-26.944,15.494-31.182c0.017-0.013,0.036-0.018,0.061-0.027c0.02,0.01,0.045,0.015,0.062,0.027
				C140.109,41.573,144.173,68.518,144.173,68.518z"/>
			<polygon fill="#F8BBD1" points="114.962,135.407 113.847,94.507 36.134,132.807 36.505,141.729 			"/>
			<polygon fill="#FBD9E7" points="142.85,135.902 143.964,95 221.677,133.301 221.305,142.227 			"/>
			<path fill="#F8BBD1" d="M128.781,212.68c-4.765,3.422-14.259-62.229-15.227-69.049l0,0l-0.495-75.113
				c0,0,4.063-26.944,15.494-31.182c0.017-0.013,0.036-0.018,0.061-0.027c0.02,0.01,0.045,0.015,0.062,0.027"/>
			<path fill="#F392B0" d="M119.606,58.379c0.122-0.488,0.306-0.953,0.515-1.41c0.206-0.455,0.441-0.895,0.698-1.326
				c0.527-0.855,1.158-1.66,1.891-2.389c0.738-0.726,1.594-1.378,2.577-1.868c0.981-0.487,2.102-0.812,3.267-0.843
				c1.157-0.04,2.324,0.225,3.34,0.705c1.015,0.477,1.883,1.148,2.61,1.898c0.726,0.76,1.326,1.586,1.813,2.469
				c0.242,0.439,0.467,0.891,0.656,1.35c0.189,0.458,0.354,0.926,0.479,1.414c-0.761-0.652-1.459-1.312-2.181-1.917
				c-0.711-0.616-1.424-1.189-2.159-1.673c-0.729-0.485-1.474-0.888-2.228-1.147c-0.75-0.265-1.498-0.392-2.258-0.368
				c-1.511,0.035-3.07,0.694-4.573,1.648c-0.756,0.471-1.491,1.018-2.227,1.604C121.09,57.109,120.361,57.731,119.606,58.379z"/>
		</g>
	</g>
</g>
<rect x="127.809" y="130.332" fill="#FFFFFF" width="6.342" height="98.355"/>
<path fill="#F7B6D0" d="M137.317,175.626c0,0,23.232-33.528,58.346-4.49C195.663,171.136,158.961,177.471,137.317,175.626z"/>
<path fill="#FBDCE6" d="M123.324,175.363c0,0-23.233-33.532-58.347-4.494C64.977,170.869,101.68,177.199,123.324,175.363z"/>
<path fill="#F7B6D0" d="M137.816,144.347c0,0,12.688-18.313,31.866-2.45C169.685,141.897,149.64,145.359,137.816,144.347z"/>
<path fill="#FBDCE6" d="M124.941,143.921c0,0-12.694-18.321-31.876-2.453C93.065,141.468,113.11,144.928,124.941,143.921z"/>
<path fill="#FFFFFF" d="M153.406,77.769c0,12.697-10.29,22.985-22.984,22.985c-12.69,0-22.978-10.288-22.978-22.985
	c0-12.691,10.288-22.974,22.978-22.974C143.116,54.793,153.406,65.076,153.406,77.769z"/>
<path fill="#FBDCE6" d="M157.781,72.598l3.693,5.846l17.644-0.186C179.119,78.26,171.464,64.073,157.781,72.598z"/>
<path fill="#F7B6D0" d="M157.895,84.364l3.571-5.919l17.646-0.171C179.112,78.272,171.745,92.615,157.895,84.364z"/>
<path fill="#FBDCE6" d="M151.759,59.635l5.586,4.068l16.323-6.685C173.668,57.02,161.322,46.649,151.759,59.635z"/>
<path fill="#F7B6D0" d="M156.196,70.525l1.142-6.819l16.33-6.673C173.668,57.033,172.122,73.088,156.196,70.525z"/>
<path fill="#FBDCE6" d="M139.561,51.539l6.896,0.438l10.205-14.382C156.661,37.595,140.677,35.459,139.561,51.539z"/>
<path fill="#F7B6D0" d="M149.137,58.357l-2.689-6.371l10.22-14.381C156.668,37.605,163.956,51.992,149.137,58.357z"/>
<path fill="#FBDCE6" d="M124.265,50.701l5.964-3.488l0.419-17.634C130.649,29.579,116.2,36.736,124.265,50.701z"/>
<path fill="#F7B6D0" d="M136.016,51.002l-5.793-3.779l0.446-17.638C130.669,29.586,144.75,37.441,136.016,51.002z"/>
<path fill="#FBDCE6" d="M138.163,104.459l-5.839,3.687l0.182,17.639C132.506,125.786,146.703,118.139,138.163,104.459z"/>
<path fill="#F7B6D0" d="M126.401,104.56l5.926,3.574l0.166,17.647C132.493,125.781,118.147,118.411,126.401,104.56z"/>
<path fill="#FBDCE6" d="M151.899,97.403l-4.069,5.59l6.684,16.326C154.514,119.319,164.879,106.967,151.899,97.403z"/>
<path fill="#F7B6D0" d="M141.011,101.843l6.819,1.139l6.667,16.337C154.497,119.319,138.447,117.768,141.011,101.843z"/>
<path fill="#FBDCE6" d="M157.943,85.464l-0.441,6.896l14.396,10.205C171.897,102.566,174.035,86.585,157.943,85.464z"/>
<path fill="#F7B6D0" d="M151.125,95.044l6.373-2.699l14.383,10.226C171.881,102.572,157.498,109.865,151.125,95.044z"/>
<path fill="#FBDCE6" d="M104.571,85.646l-3.693-5.847l-17.64,0.186C83.236,79.983,90.885,94.178,104.571,85.646z"/>
<path fill="#F7B6D0" d="M104.463,73.882l-3.574,5.915l-17.647,0.175C83.241,79.972,90.612,65.625,104.463,73.882z"/>
<path fill="#FBDCE6" d="M111.83,97.954l-6.071-3.33l-15.33,8.731C90.431,103.356,104.012,112.051,111.83,97.954z"/>
<path fill="#F7B6D0" d="M106.02,87.717l-0.25,6.908l-15.34,8.717C90.431,103.342,89.907,87.223,106.02,87.717z"/>
<path fill="#FBDCE6" d="M123.567,105.427l-6.896-0.444l-10.208,14.393C106.462,119.375,122.439,121.509,123.567,105.427z"/>
<path fill="#F7B6D0" d="M113.978,98.605l2.692,6.37l-10.219,14.377C106.451,119.353,99.169,104.976,113.978,98.605z"/>
<path fill="#FBDCE6" d="M111.884,57.531l3.158-6.145l-9.132-15.101C105.91,36.283,97.576,50.093,111.884,57.531z"/>
<path fill="#F7B6D0" d="M121.958,51.46l-6.911-0.065l-9.116-15.112C105.93,36.283,122.032,35.344,121.958,51.46z"/>
<path fill="#FBDCE6" d="M104.113,70.785l0.443-6.901L90.164,53.687C90.164,53.687,88.034,69.664,104.113,70.785z"/>
<path fill="#F7B6D0" d="M110.933,61.201l-6.37,2.698L90.179,53.672C90.179,53.672,104.563,46.382,110.933,61.201z"/>
<g id="Layer_4" display="none">
	<g display="inline">
		<g>
			<path fill="#E55A81" d="M250.208,238.411c0,5.5-4.5,10-10,10H18.843c-5.5,0-10-4.5-10-10V17.044c0-5.5,4.5-10,10-10h221.365
				c5.5,0,10,4.5,10,10V238.411L250.208,238.411z"/>
		</g>
		<path fill="#FFFFFF" d="M168.32,161.423c-0.019-0.039-0.032-0.08-0.057-0.125h0.047
			C168.311,161.298,168.32,161.343,168.32,161.423z"/>
		<path fill="#FBD9E7" d="M135.225,209.302c-10.843,0-13.899-7.118-13.912-10.401h-0.035v-22.369h26.001v20.884l0,0
			C147.279,197.414,148.438,209.302,135.225,209.302z"/>
		<path fill="#F392B0" d="M134.546,177.03h12.569v20.882l0,0c0,0,1.152,11.893-12.055,11.893"/>
		<g>
			<path fill="#FFFFFF" d="M175.766,93.98v65.127c0,4.377-29.558,20.804-33.935,20.804l-14.859,0.332
				c-4.38,0-40.032-16.759-40.032-21.136V92.223c4.328-20.458,22.492-35.814,44.248-35.814
				C153.557,56.408,172.121,72.65,175.766,93.98z"/>
		</g>
		<path fill="#F392B0" d="M108.959,62.023c0,0-61.09,16.843-62.74,32.692c-1.652,15.85,40.618,37.977,48.871,17.172
			C103.349,91.082,118.867,80.188,108.959,62.023z"/>
		<path fill="#F392B0" d="M150.089,60.704c0,0,61.091,16.838,62.74,32.69c1.651,15.85-40.618,37.977-48.871,17.171
			C155.699,89.761,140.182,78.866,150.089,60.704z"/>
		<path fill="#F392B0" d="M120.365,111.888c0,2.822-2.287,5.117-5.117,5.117c-2.824,0-5.117-2.295-5.117-5.117
			c0-2.827,2.293-5.125,5.117-5.125C118.078,106.763,120.365,109.061,120.365,111.888z"/>
		<path fill="#F392B0" d="M154.055,111.888c0,2.822-2.296,5.117-5.123,5.117c-2.826,0-5.119-2.295-5.119-5.117
			c0-2.827,2.293-5.125,5.119-5.125C151.759,106.763,154.055,109.061,154.055,111.888z"/>
		<path fill="#F3B2CD" d="M134.229,183.155c0,0-32.584,9.444-31.013-25.439l0,0c0,0,17.132-38.979,29.56-39.953v-0.098
			c11.197,0.557,26.775,32.563,29.742,38.879c0.018,0.037,0.029,0.065,0.045,0.101c0.008,0,0.008,0,0.008,0.008
			c0.021,0.156,0.054,0.496,0.082,0.977C163.038,163.297,163.234,189.02,134.229,183.155z"/>
		<path fill="#F392B0" d="M121.358,158.115h25.759c0,0,0.988,11.888-12.219,11.888C121.692,170.003,120.035,159.439,121.358,158.115
			z"/>
	</g>
</g>
<g id="Layer_5" display="none">
	<g display="inline">
		<g>
			<path fill="#E55A81" d="M250.208,238.411c0,5.5-4.5,10-10,10H18.843c-5.5,0-10-4.5-10-10V17.044c0-5.5,4.5-10,10-10h221.365
				c5.5,0,10,4.5,10,10V238.411L250.208,238.411z"/>
		</g>
		<g>
			<polygon fill="#F392B0" points="86.871,102.845 172.764,102.845 172.764,98.028 83.806,98.028 83.806,128.289 172.764,128.289 
				172.764,123.476 86.871,123.476 			"/>
			<rect x="86.871" y="102.845" fill="#FBDCE6" width="81.802" height="20.631"/>
			<rect x="86.871" y="113.16" fill="#F8BBD1" width="81.802" height="10.315"/>
			<polygon fill="#F392B0" points="78.429,132.671 178.764,132.671 178.764,128.49 74.847,128.49 74.847,154.768 178.764,154.768 
				178.764,150.585 78.429,150.585 			"/>
			<rect x="78.429" y="132.671" fill="#FBDCE6" width="95.557" height="17.914"/>
			<rect x="78.429" y="141.628" fill="#F8BBD1" width="95.557" height="8.957"/>
			<polygon fill="#F392B0" points="92.165,158.945 192.499,158.945 192.499,154.768 88.583,154.768 88.583,181.044 192.499,181.044 
				192.499,176.864 92.165,176.864 			"/>
			<rect x="92.165" y="158.945" fill="#FBDCE6" width="95.558" height="17.919"/>
			<rect x="92.165" y="167.906" fill="#F8BBD1" width="95.558" height="8.958"/>
			<polygon fill="#F392B0" points="74.977,186.076 195.686,186.076 195.686,181.044 70.665,181.044 70.665,212.658 195.686,212.658 
				195.686,207.629 74.977,207.629 			"/>
			<rect x="74.977" y="186.076" fill="#FBDCE6" width="114.958" height="21.553"/>
			<rect x="74.977" y="196.854" fill="#F8BBD1" width="114.958" height="10.775"/>
			<polygon fill="#FFFFFF" points="94.538,113.569 112.073,113.53 112.073,136.014 103.347,127.288 94.455,136.184 			"/>
			<polygon fill="#FFFFFF" points="142.615,167.919 160.148,167.877 160.148,190.361 151.426,181.636 142.529,190.527 			"/>
			<g>
				<polygon fill="#FBDCE6" points="122.523,83.057 137.753,83.057 130.174,97.499 				"/>
				<path fill="#F8BBD1" d="M122.595,44.199v-7.537c0-1.04,0.745-1.884,1.667-1.884h11.824c0.922,0,1.667,0.844,1.667,1.884v7.537"
					/>
				<rect x="122.595" y="44.199" fill="#FFFFFF" width="15.09" height="6.907"/>
				<rect x="122.595" y="50.95" fill="#FBDCE6" width="7.951" height="32.183"/>
				<rect x="130.546" y="50.95" fill="#F8BBD1" width="7.187" height="32.106"/>
				<polygon fill="#F392B0" points="128.069,93.654 132.209,93.654 130.146,97.577 				"/>
			</g>
		</g>
	</g>
</g>
<g id="Layer_6">
</g>
</svg>
