<?xml version="1.0" encoding="utf-8"?>
<!-- Generator: Adobe Illustrator 15.1.0, SVG Export Plug-In . SVG Version: 6.00 Build 0)  -->
<!DOCTYPE svg PUBLIC "-//W3C//DTD SVG 1.1//EN" "http://www.w3.org/Graphics/SVG/1.1/DTD/svg11.dtd">
<svg version="1.1" id="Layer_1" xmlns="http://www.w3.org/2000/svg" xmlns:xlink="http://www.w3.org/1999/xlink" x="0px" y="0px"
	 width="379.303px" height="245.861px" viewBox="0 0 379.303 245.861" enable-background="new 0 0 379.303 245.861"
	 xml:space="preserve">
<path fill="#494849" d="M379.302,239.386V48.374c0-3.576-3.205-6.476-7.158-6.476H7.158C3.205,41.899,0,44.798,0,48.374v191.012
	c0,3.576,3.205,6.476,7.158,6.476h364.986C376.098,245.862,379.303,242.962,379.302,239.386L379.302,239.386z M307.346,68.488H339.6
	v32.255h-32.254V68.488z M269.149,68.488h32.254v32.255h-32.254V68.488z M301.575,144.881v32.253H231.71v-32.253H301.575z
	 M269.146,106.687h32.252v32.253h-32.252V106.687z M231.522,68.488h32.252v32.255h-32.252V68.488z M231.517,106.687h32.254v32.253
	h-32.254V106.687z M193.326,68.488h32.254v32.255h-32.254V68.488z M225.769,144.881v32.253h-32.252v-32.253H225.769z
	 M193.321,106.687h32.253v32.253h-32.253V106.687z M155.135,68.488h32.254v32.255h-32.254V68.488z M187.577,144.881v32.253h-32.253
	v-32.253H187.577z M155.129,106.687h32.254v32.253h-32.254V106.687z M116.939,68.488h32.254v32.255h-32.254V68.488z M79.312,68.488
	h32.253v32.255H79.312V68.488z M79.306,106.687h32.254v32.253H79.306V106.687z M111.42,144.881v32.253H41.305v-32.253H111.42z
	 M41.117,68.488h32.252v32.255H41.117V68.488z M41.11,106.687h32.253v32.253H41.11V106.687z M73.552,220.991H41.299v-32.253h32.253
	V220.991z M111.747,220.991H79.494v-32.253h32.253V220.991z M116.934,106.687h32.254v32.253h-32.254V106.687z M117.129,144.881
	h32.252v32.253h-32.252V144.881z M263.958,220.991H119.661v-32.253h144.297V220.991z M301.586,220.991h-32.253v-32.253h32.253
	V220.991z M307.34,106.687h32.253v32.253H307.34V106.687z M339.781,220.991h-32.253v-32.253h32.253V220.991z M339.787,177.134
	h-32.253v-32.253h32.253V177.134z"/>
<g>
	<rect x="188.484" y="0" fill="#494849" width="7.356" height="35.084"/>
</g>
</svg>
