<?xml version="1.0" encoding="utf-8"?>
<!-- Generator: Adobe Illustrator 15.1.0, SVG Export Plug-In . SVG Version: 6.00 Build 0)  -->
<!DOCTYPE svg PUBLIC "-//W3C//DTD SVG 1.1//EN" "http://www.w3.org/Graphics/SVG/1.1/DTD/svg11.dtd">
<svg version="1.1" id="Layer_1" xmlns="http://www.w3.org/2000/svg" xmlns:xlink="http://www.w3.org/1999/xlink" x="0px" y="0px"
	 width="557.648px" height="576.144px" viewBox="0 -30.644 557.648 576.144" enable-background="new 0 -30.644 557.648 576.144"
	 xml:space="preserve">
<g>
	<path fill="#484848" d="M242.031-0.839c-4.255-4.039-9.667-6.182-15.594-7.531c-1.384-0.317-2.783-0.606-4.197-0.857
		c-1.831-0.438-3.677-0.746-5.513-0.899c-6.747-0.563-13.778,0.713-19.823,3.42c-5.413,2.423-9.771,6.107-13.038,10.606
		c-0.285,0.364-0.562,0.732-0.826,1.109c-0.806,1.146-1.49,2.346-2.09,3.581c-1.509,2.81-2.725,5.8-3.551,8.836
		c0.211,0.344,0.291,0.749,0.146,1.104c-0.212,0.522-0.474,1.026-0.757,1.519c-0.01,0.063-0.024,0.121-0.039,0.181
		c-0.148,0.468-0.3,0.935-0.448,1.401c0.874-0.558,1.693-1.234,2.359-1.695c1.462-1.017,2.965-1.989,4.434-3.002
		c1.596-1.098,3.063-2.304,4.54-3.525c1.346-1.109,2.52-2.382,3.898-3.452c0.031-0.024,0.08-0.003,0.068,0.035
		c-1.011,3.553-4.831,6.371-8.021,8.383c-1.782,1.123-3.583,2.254-5.499,3.186c-0.125,0.062-0.25,0.122-0.38,0.181
		c1.619-0.377,3.197-0.895,4.662-1.438c4.036-1.5,7.939-3.287,11.576-5.469c3.683-2.21,7.212-4.721,10.12-7.741
		c1.461-1.517,2.798-3.14,3.928-4.869c0.548-0.843,1.09-1.688,1.563-2.566c0.373-0.686,0.666-1.462,1.27-2.011
		c0.074-0.065,0.184-0.011,0.189,0.072c0.078,0.905-0.443,1.823-0.842,2.64c-0.486,0.997-1.027,1.963-1.66,2.888
		c-1.151,1.687-2.491,3.269-3.976,4.724c-3.068,2.997-6.637,5.541-10.544,7.59c-3.891,2.044-8.02,3.732-12.246,5.124
		c-1.355,0.448-2.817,0.867-4.312,1.177c-0.278,0.122-0.565,0.238-0.852,0.337c2.994,0.148,6.012,0.128,8.944-0.022
		c4.964-0.255,9.931-1.018,14.631-2.496c4.601-1.448,9.018-3.431,12.815-6.215c4.032-2.958,6.958-6.686,10.311-10.21
		c0.196-0.208,0.575,0.011,0.491,0.258c-1.547,4.61-5.438,8.53-9.601,11.449c-4.021,2.819-8.647,4.963-13.563,6.202
		c-5.018,1.263-10.213,1.798-15.417,1.834c-3.098,0.022-6.125-0.213-9.147-0.571c-0.008,0.04-0.021,0.081-0.038,0.121
		c-0.036,0.121-0.021,0.227,0.031,0.318c-0.054,0.075-0.107,0.151-0.161,0.223c11.244,3.663,23.396,3.032,34.734-0.432
		c1.099-0.337,2.188-0.699,3.266-1.081c0.685-0.36,1.492-0.622,2.062-0.832c1.639-0.607,3.218-1.323,4.784-2.054
		c1.614-0.758,3.227-1.506,4.832-2.273c0.046-0.024,0.096-0.048,0.145-0.073c0.895-0.479,1.779-0.973,2.655-1.481
		c2.75-1.602,5.44-3.315,8-5.159c1.891-1.359,3.666-2.836,5.487-4.262c0.549-0.574,1.153-1.103,1.769-1.619
		c0.367-0.41,0.742-0.813,1.121-1.212C244.018,1.377,243.173,0.246,242.031-0.839z"/>
	<path fill="#484848" d="M220.733,23.01c-1.985,0.635-4.001,1.174-6.042,1.643c-0.152,0.568-0.291,1.139-0.405,1.718
		c-0.854,4.259-0.901,8.675-0.313,12.968c0.573,4.178,1.803,8.328,4.131,12.004c2.377,3.755,5.397,6.872,8.623,9.957
		c-4.28-5.72-7.03-12.086-7.603-19.005c-0.5-6.074-0.225-12.667,1.417-18.597C220.601,23.473,220.668,23.241,220.733,23.01z"/>
	<path fill="#484848" d="M205.527,45.665c1.452,6.423,5.287,12.028,10.682,16.406c4.846,3.932,10.452,6.397,16.379,8.702
		c1.673,0.65,3.372,1.273,5.095,1.813c0.232-0.043,0.463-0.081,0.692-0.125c-0.127-0.072-0.252-0.143-0.384-0.217
		c-1.787-1.038-3.271-2.345-4.735-3.727c-1.23-1.16-2.428-2.399-3.54-3.694c-0.651-0.692-1.287-1.396-1.891-2.123
		c-4.464-2.636-8.174-6.691-10.876-10.751c-2.517-3.779-4.069-8.042-4.829-12.384c-0.795-4.535-0.818-9.182,0.094-13.709
		c0.046-0.236,0.098-0.47,0.152-0.706c-2.982,0.601-6.005,1.058-9.044,1.441c-2.74,0.347-5.467,0.649-8.194,0.832
		c-4.667,11.996-1.069,24.997,8.224,34.395c4.801,4.854,10.763,8.727,17.346,11.396c0.911,0.369,1.86,0.729,2.84,1.077
		c3.983-0.226,7.974-0.698,11.919-1.331c-0.947-0.31-1.855-0.63-2.697-0.928c-6.276-2.21-12.281-4.53-17.4-8.601
		c-5.738-4.569-10.173-10.475-11.33-17.395c-1.129-6.729,0.093-13.412,2.773-19.735c0.007-0.015,0.035-0.011,0.03,0.006
		C204.992,32.494,204.093,39.322,205.527,45.665z"/>
	<path fill="#484848" d="M192.533,65.542c-5.283-4.751-9.775-10.669-11.254-17.358c-1.402-6.347-0.85-13.28,1.336-19.43
		c0.187-0.525,0.385-1.053,0.6-1.581c-0.799-0.103-1.602-0.22-2.406-0.366c-1.366-0.251-2.709-0.563-4.042-0.911
		c-0.115,0.246-0.236,0.485-0.347,0.73c-1.577,3.484-2.673,7.125-3.395,10.828c-0.261,1.346-0.483,2.697-0.684,4.053
		c0.03,1.971,0.209,3.891,0.527,5.669c0.04,0.224,0.089,0.445,0.134,0.666c0.464,1.545,1.08,3.051,1.891,4.484
		c4.025,7.088,10.755,13.315,18.615,17.028c2.708,1.279,5.497,2.278,8.346,3.041C198.504,70.388,195.365,68.089,192.533,65.542z"/>
	<path fill="#484848" d="M192.958,27.54c-2.428,0.097-4.855,0.078-7.287-0.11c-4.165,9.726-4.256,21.085,1.95,30.003
		c4.15,5.954,10.069,10.987,16.564,14.846c0.601,0.358,1.215,0.711,1.836,1.059c4.754,0.884,9.641,1.187,14.556,1.071
		c-10.382-3.74-19.468-10.515-24.75-19.439c-3.083-5.204-4.936-11.051-4.851-16.974C191.025,34.642,191.622,30.935,192.958,27.54z"
		/>
</g>
<path fill="#484848" d="M180.879,308.09L96.256,423.732l-8.492-8.644c0,0,13.166-11.582,20.819-44.729
	c7.651-33.143,23.437-50.568,40.794-56.676l11.856-22.898L180.879,308.09z"/>
<path fill="#484848" d="M87.805,415.156l8.451,8.576c0,0-4.204,10.229-7.762,27.611c-8.643,42.369-3.005-29.197-19.756-19.01
	C75.025,426.764,87.805,415.156,87.805,415.156z"/>
<path fill="#484848" d="M243.374,150.204c0,0,18.192,16.724,25.674,25.381c7.483,8.656-8.069-1.469,45.778,50.324
	c0,0,2.053,10.121,14.377,20.685c12.322,10.564,7.188,8.95,11.147,8.95c3.964,0-6.893-10.27-7.629-11.589
	c-0.731-1.322,0.146-4.696,0.146-6.75c0,0,4.108,3.522,7.633,3.667c0,0-1.617,10.859,1.76,12.181c0,0-0.733-6.455,4.107-13.352
	c0,0-6.31-3.229-6.896-5.722c0,0,4.554,8.325,22.304,1.282c0,0,1.282-1.649-1.064-1.282c-2.287,0.354-14.123,1.758-9.479,0.202
	c0,0,11.881-1.047,7.368-3.137c0,0-5.112,0.771-12.815,0.221c0,0,10.895-0.384,8.031-2.203c0,0-7.484,0.386-15.298-0.603
	c-7.809-0.991-11.219-9.134-15.186-9.244c-3.963-0.11-24.5-33.654-40.641-48.62c-16.137-14.963-17.02-30.223-35.503-45.772
	c-18.488-15.552-19.074-8.512-19.074-8.512L243.374,150.204z"/>
<path d="M343.309,454.582c-1.688,0.291-3.379,0.55-4.955,0.744c3.673,2.271,6.46,4.063,6.46,4.063S346.244,456.234,343.309,454.582z
	"/>
<path fill="#484848" d="M353.199,447.441c-3.676-6.78-18.863-34.315-33.035-61.877c-0.035-0.06-0.062-0.119-0.094-0.176
	l-37.84-76.558l-36.442-103.596c-10.273-47.327,2.152-74.743,2.152-74.743c1.77-12.205,6.177-18.094,3.811-19.055
	c-3.533-1.433-13.253-14.738-13.253-14.738l-8.046-8.554l-0.028-0.025c-0.17-0.055-0.342-0.126-0.517-0.237
	c-0.832-0.525-1.501-1.292-2.032-2.187c-0.294-0.344-0.577-0.703-0.833-1.085c-0.776-1.171-1.309-2.447-1.795-3.748
	c-0.432-0.854-0.822-1.753-1.17-2.687c-4.124-0.261-8.313-0.812-12.481-1.622c-0.214-0.037-0.427-0.076-0.641-0.116
	c-0.082-0.017-0.164-0.032-0.245-0.048c-0.882-0.168-1.761-0.37-2.638-0.598c-3.807-0.885-7.567-1.993-11.227-3.335
	c-22.741,25.229,11.474,64.3,9.624,79.54c-1.788,14.71-15.902,48.819-15.902,48.819l20.099,32.026l53.011,79.959
	c-5.743,32.689,25.183,60.748,25.183,60.748c30.063,24.995,36.524,43.131,37.905,50.233c0.42,2.161,0.369,3.302,0.369,3.302
	c-5.41,8.509-6.328,14.558-5.49,18.918c-0.797-0.24-1.118-0.123-0.764,0.486c0.529,0.899,1.142,1.874,1.84,2.839
	c1.199,2.563,2.933,4.33,4.109,5.607c2.363,2.572,3.133,1.147,3.375,0.215c1.156,0.353,2.422,0.553,3.826,0.522
	c1.233-0.022,2.719-0.155,4.319-0.353c-0.827-0.517-1.698-1.051-2.594-1.596c3.859-0.357,6.178,0.082,7.549,0.852
	c6.271-1.072,12.478-2.546,12.478-2.546C345.789,440.661,353.199,447.441,353.199,447.441z"/>
<path fill="#484848" d="M245.408,36.157c-2.468-2.028-3.374-4.639-3.086-7.066c0,0,6.724-14.811,2.748-21.437
	c-0.547-0.915-1.126-1.739-1.71-2.49c-2.14,2.754-4.646,5.147-6.704,6.782c-2.317,1.844-5.767,4.537-9.412,6.398
	c-0.37,0.671-0.728,1.346-1.044,2.046c-2.121,4.674-3.195,10.007-3.338,15.128c-0.153,5.56,0.702,10.623,2.257,15.933
	c0.495,1.691,1.284,3.487,1.936,5.321c0.87,0.183,1.573,0.335,1.864,0.417c1.246,0.322,3.307,0.686,6.311,0.686
	c0,0,5.491-0.375,4.5-5.436c0,0-2.39-2.306,0.991-2.462c0,0,2.087-1.918,0.303-2.922c0,0,2.939-1.685,2.16-2.916
	c-0.99-1.58-0.457-2.386,0.297-2.833C247.469,38.914,247.943,38.224,245.408,36.157z"/>
<path d="M243.194,28.993"/>
<path fill="#484848" d="M419.037,455.452c0,0-8.248-26.918,25.734-22.594c34.002,4.32,29.881,0.192,34.002-1.178l22.598,6.286
	c0,0,2.746,14.741-2.363,17.101c0,0,21.635,6.137,20.051,10.415c0,0,1.181,3.146-17.487-0.985c0,0,16.241,13.183,13.356,15.321
	c0,0-1.912,4.429-15.92-5.495c0,0-17.674-5.997-23.971-8.841c0,0-14.543-8.063-31.047-3.937c0,0-1.967,16.113-14.729,14.146
	c0,0-6.686,0.597-7.676-8.447c0,0-9.227,15.129-19.844,11.988c0,0-2.359-1.768,1.973-5.504c4.314-3.732,12.379-8.449,13.75-12.761
	c0,0-19.061,9.424-27.904,3.527c0,0,0-2.756,4.72-2.949c4.715-0.195,18.864-7.066,22.207-10.015c0,0,1.965,0,1.367,3.335
	C417.254,458.204,419.037,455.452,419.037,455.452z"/>
<path fill="#484848" d="M482.094,429.953c0,0-1.146-4.728-0.188-6.59c0,0,1.397-7.388,4.678-9.687c0,0-7.35-6.766-5.514-13.633
	c0,0,5.83,6.463,13.68,8.51c7.842,2.061,7.51-0.666,9.721,1.381c2.209,2.041,5.843,6.867,14.763,6.375
	c0,0-0.285,11.565-12.22,10.082c-11.936-1.494-5.77-0.821-5.77-0.821s-7.367,5.609-1.611,9.188"/>
<g>
	<g>
		<polygon fill="#484848" points="479.871,430.408 341.594,254.451 342.262,253.053 480.59,428.994 		"/>
	</g>
</g>
<path d="M129.062,378.105c0.035-0.058,0.07-0.111,0.104-0.174l45.135-64.75l68.936-85.484"/>
<path fill="#484848" d="M210.278,76.297c-0.626-0.127-1.25-0.271-1.875-0.426c-7.27-1.664-14.389-4.167-20.908-7.5
	c-3.379,3.938-6.972,10.112-10.619,19.562c0,0-12.368,20.718-19.681,31.318c0,0-30.953,38.326-30.77,44.907l20.898-11.518
	c0,0,45.455-39.604,55.206-52.767c6.56-8.856,9.716-16.545,9.025-23.324C211.127,76.467,210.701,76.385,210.278,76.297z"/>
<path fill="#CA1D8B" d="M249.018,191.127c-8.335-32.635-0.498-62.454-0.498-62.454c10.271-6.958,3.808-16.733,3.808-16.733
	c-2.411-4.209-16.764-18.744-21.497-23.491c-0.137-0.108-0.272-0.213-0.407-0.323c-0.022-0.005-0.043-0.008-0.068-0.017
	c8.761,10.035,7.23,13.726,7.23,13.726c-18.475,2.916-29.177-17.622-29.64-18.523c0.363,0.896,7.202,18.044,4.458,24.818
	c-2.816,6.958-20.375,2.98-20.375,2.98c0.247,8.864,8.696,21.784,8.696,21.784c6.709,9.859-8.696,55.749-8.696,55.749
	c-32.525,31.695-82.779,120.272-82.779,120.272c146.889,12.257,191.734-15.905,191.734-15.905
	C258.572,250.156,249.018,191.127,249.018,191.127z"/>
<path fill="#FFFFFF" d="M301.689,292.313C260.003,250.187,250.093,191.555,250,190.968l-0.02-0.088
	c-7.691-30.114-1.414-58.164-0.585-61.605c10.506-7.41,3.836-17.781,3.797-17.831c-2.416-4.214-15.95-17.976-21.657-23.696
	l-0.087-0.078c-0.134-0.105-0.266-0.211-0.395-0.316l-1.004-1.092l-5.907-8.081c-0.028-0.001-0.053-0.001-0.078-0.004l3.21,7.586
	c6.297,7.213,9.387,13.935,9.425,15.189c-0.897,0.114-1.794,0.17-2.678,0.17c-15.611,0-24.808-17.522-25.192-18.268l-3.409-7.334
	c0.071,0.175,8.697,25.731,6.064,32.234c-1.169,2.887-5.741,3.492-9.371,3.492c-4.915,0-9.317-1.258-9.366-1.269l-0.717,1.131
	l-0.967,1.272c0.253,9.039,8.481,20.521,8.841,21.073c5.244,7.704-4.46,41.83-8.742,54.643
	c-32.257,31.575-82.275,119.44-82.776,120.326l-0.768,1.354l1.548,0.131c24.6,2.052,47.948,3.095,69.396,3.095
	c0.005,0,0.005,0,0.01,0c91.407,0,121.694-18.367,122.94-19.147l1.047-0.66L301.689,292.313z M178.563,311.012
	c-20.941-0.004-43.703-0.996-67.675-2.959c6.474-11.271,51.971-89.595,81.834-118.701l0.17-0.167l0.079-0.229
	c0.636-1.893,15.483-46.473,8.587-56.606c-0.08-0.119-7.521-11.593-8.449-20.007c1.84,0.339,5.375,0.89,9.003,0.89
	c6.169,0,9.942-1.591,11.212-4.733c1.723-4.247-0.006-12.053-1.791-17.928c4.439,5.604,12.041,12.537,22.486,12.537
	c1.226,0,2.478-0.099,3.72-0.296l0.549-0.086l0.216-0.515c0.111-0.27,0.661-1.941-1.034-5.587
	c5.724,5.918,12.467,13.137,14.029,15.86c0.24,0.367,5.774,9.053-3.54,15.362l-0.306,0.209l-0.096,0.361
	c-0.078,0.299-7.802,30.419,0.484,62.912c0.331,1.948,10.441,59.44,51.314,101.44C293.16,295.999,259.927,311.012,178.563,311.012z"
	/>
<g>
	<path fill="#484848" d="M126.389,164.103c0.183,6.581,36.376,1.646,77.323,6.215c0,0,9.505,10.846,16.27,13.404l3.194,1.771
		c-1.294-0.635-4.167-1.686-8.009-0.98c0,0-1.279,0.792,3.412,2.561c4.692,1.766,9.323,5.361,7.74-3.048l-0.916-1.704
		c0,0,3.718,5.665,7.985,4.203c4.264-1.462,0.12-0.242,0.12-0.242s3.168-1.161-1.402-5.181c0,0,3.474,3.17,5.119,1.036
		c1.646-2.132-0.548-3.594-2.438-5.544c-1.89-1.952-8.164-11.517-20.839-12.675c-12.674-1.158-46.185-14.378-66.658-11.333"/>
</g>
<path fill="#CA1D8B" d="M183.429,286.584l-75.962-5.074l19.329-102.299l18.819,3.052c0.644-4.077,7.237-31.892,16.229-34.206
	c1.915-0.491,3.484-0.382,4.667,0.339c1.297,0.792,1.607,2.173,1.625,2.302l-1.66,0.043c-0.052-0.204-0.701-1.882-4.193-0.979
	c-6.761,1.731-9.994,24.348-11.367,33.052l22.309-0.331l-3.159-16.878l1.672-0.694l4.468,18.345l11.632,2.983L183.429,286.584z"/>
<path fill="#FFFFFF" d="M185.041,287.426l-1.014-0.066l-77.083-5.152l19.718-104.353l18.837,3.057
	c1.17-5.426,7.333-31.61,16.762-34.036c2.189-0.558,4.247-0.692,5.428,0.451c1.396,1.35,2.273,2.605,2.347,3.133l1.036,3.435
	l-3.617-0.552l-1.279-2.571l0,0c-0.002,0-0.232-0.499-1.39-0.499c-0.456,0-0.992,0.079-1.59,0.234
	c-5.832,1.489-9.18,22.937-10.44,31.008l-0.012,0.07l19.951-0.296l-3.09-16.513l3.49-1.447l4.601,18.895l11.836,3.035
	L185.041,287.426z M109.314,280.373l73.829,4.934l4.33-98.522l-11.21-2.034l-3.881-15.94l2.168,15.83l-24.137-1.03l0.377-2.4
	c1.933-12.383,4.27-24.183,8.119-29.628c-6.099,7.158-10.831,25.428-11.649,30.619l-0.156,0.986l-18.848-3.06L109.314,280.373z"/>
<path fill="#6D8E3C" d="M224.793,289.402l-87.571,11.537l10.093-110.637l15.475,0.243c0.742-4.677,8.573-37.396,18.899-40.054
	c2.189-0.569,3.995-0.437,5.359,0.395c1.48,0.897,1.845,2.483,1.871,2.639l-1.918,0.043c-0.058-0.234-0.802-2.156-4.821-1.128
	c-7.75,1.999-13.457,27.861-15.036,37.862h28.226l-4.541-21.127l2.279,0.208l6.128,20.667l12.312,0.252L224.793,289.402z"/>
<path fill="#FFFFFF" d="M136.118,302.09l10.291-112.793l15.552,0.243c1.343-6.903,9.017-37.318,19.479-40.008
	c2.453-0.636,4.537-0.46,6.125,0.508c1.952,1.18,2.802,3.377,2.806,3.398l1.658,5.467l-4.005-1.047l-1.991-4.057
	c0,0.003,0,0.003,0,0.003c-0.004,0-0.278-0.67-1.744-0.67c-0.538,0-1.166,0.091-1.865,0.27
	c-6.232,1.611-11.851,22.393-14.113,35.907h25.825l-4.676-20.134l4.598,0.249l5.922,19.645l12.44,0.259l13.489,100.931
	L136.118,302.09z M148.219,191.31l-9.896,108.482l85.354-11.243l-13.002-97.27l-12.186-0.251l-6.492-21.819l-0.153,0.07
	l4.754,22.019h-30.619l0.182-1.15c0.232-1.473,5.817-36.101,15.77-38.67c0.938-0.241,1.796-0.353,2.54-0.329
	c-0.754-0.038-1.604,0.064-2.534,0.304c-9.203,2.37-17.155,32.886-18.166,39.249l-0.137,0.854L148.219,191.31z"/>
<path fill="#CA1D8B" d="M326.582,426.262c0,0,7.992,23.086,25.396,18.47l14.384,23.798c0,0,15.979-2.132,18.469,10.831l-22.73,4.086
	c0,0-11.545,3.195-19.18-20.428c0,0-5.684-8.876-6.566,2.667c-0.891,11.546,0.529,21.665,0.529,21.665l-2.664,0.529l-7.278-30.721
	C326.938,457.159,312.732,446.683,326.582,426.262z"/>
<path d="M68.738,432.336c-2.909,2.577-4.425,3.873-2.647,2.121C67.028,433.534,67.911,432.831,68.738,432.336z"/>
<path fill="#CA1D8B" d="M81.364,419.633c0,0-7.087,22.674,9.19,29.117l-2.497,26.922c0,0,13.733,7.568,8.184,19.146l-20.136-9.938
	c0,0-11.979-3.501-4.307-26.386c0,0,1.154-8.378-5.572-2.383c-7.562,6.735-11.735,17.69-11.735,17.69l-2.757-1.561l12.055-28.236
	C63.788,444.006,58.731,427.602,81.364,419.633z"/>
</svg>
