<?xml version="1.0" encoding="utf-8"?>
<!-- Generator: Adobe Illustrator 15.1.0, SVG Export Plug-In . SVG Version: 6.00 Build 0)  -->
<!DOCTYPE svg PUBLIC "-//W3C//DTD SVG 1.1//EN" "http://www.w3.org/Graphics/SVG/1.1/DTD/svg11.dtd">
<svg version="1.1" id="Layer_1" xmlns="http://www.w3.org/2000/svg" xmlns:xlink="http://www.w3.org/1999/xlink" x="0px" y="0px"
	 width="263.925px" height="106.204px" viewBox="0 0 263.925 106.204" enable-background="new 0 0 263.925 106.204"
	 xml:space="preserve">
<g>
	<path fill="#494949" d="M126.949,65.442V20.818h15.901c2.571,0,4.87,0.404,6.894,1.213c2.022,0.809,3.609,1.981,4.762,3.517
		c1.15,1.536,1.729,3.361,1.729,5.477c0,2.552-0.747,4.756-2.24,6.613c-1.494,1.857-3.59,3.18-6.285,3.968v0.125
		c2.197,0.229,4.104,0.825,5.709,1.789c1.607,0.965,2.849,2.23,3.72,3.797c0.87,1.567,1.308,3.345,1.308,5.337
		c0,2.572-0.669,4.828-2.007,6.769c-1.339,1.939-3.17,3.436-5.492,4.481c-2.323,1.048-4.917,1.57-7.78,1.57L126.949,65.442z
		 M139.925,39.396c2.387,0,4.258-0.549,5.617-1.649c1.357-1.1,2.037-2.666,2.037-4.699c0-1.95-0.611-3.423-1.836-4.418
		c-1.225-0.996-2.955-1.494-5.195-1.494h-5.354v12.261L139.925,39.396L139.925,39.396z M141.701,59.125
		c2.551,0,4.543-0.598,5.975-1.789c1.433-1.193,2.146-2.899,2.146-5.12c0-2.22-0.811-3.89-2.428-5.011
		c-1.618-1.12-3.891-1.68-6.814-1.68h-5.353v13.6H141.701L141.701,59.125z"/>
	<path fill="#494949" d="M171.48,64.292c-2.531-1.308-4.491-3.152-5.882-5.539c-1.392-2.385-2.085-5.146-2.085-8.276
		c0-3.194,0.693-6.006,2.085-8.433c1.391-2.427,3.351-4.305,5.882-5.632c2.529-1.327,5.456-1.992,8.773-1.992
		c3.34,0,6.275,0.664,8.809,1.992c2.531,1.328,4.477,3.205,5.835,5.632c1.356,2.427,2.026,5.239,2.008,8.433
		c0,3.151-0.69,5.918-2.069,8.294c-1.381,2.375-3.324,4.216-5.834,5.521c-2.512,1.309-5.426,1.961-8.746,1.961
		C176.937,66.252,174.009,65.598,171.48,64.292z M184.66,58.161c1.254-0.727,2.234-1.752,2.939-3.08s1.068-2.863,1.09-4.604
		c-0.042-1.763-0.42-3.314-1.137-4.652c-0.717-1.338-1.695-2.375-2.939-3.112c-1.244-0.736-2.677-1.104-4.295-1.104
		c-1.701,0-3.199,0.374-4.497,1.12c-1.296,0.747-2.304,1.795-3.021,3.143c-0.715,1.349-1.071,2.905-1.071,4.668
		c0,1.744,0.356,3.272,1.071,4.588c0.717,1.317,1.725,2.334,3.021,3.052c1.298,0.716,2.796,1.073,4.497,1.073
		C181.957,59.25,183.404,58.887,184.66,58.161z"/>
	<path fill="#494949" d="M209.026,64.292c-2.293-1.266-4.041-3.086-5.243-5.461c-1.203-2.375-1.806-5.19-1.806-8.45
		c0-3.215,0.61-6.032,1.836-8.449c1.224-2.417,3.013-4.279,5.367-5.586c2.354-1.307,5.183-1.95,8.479-1.929
		c1.887-0.021,3.75,0.13,5.586,0.451c1.836,0.322,3.387,0.752,4.651,1.292l-1.464,6.815c-2.262-0.851-4.604-1.276-7.031-1.276
		c-3.111,0-5.367,0.716-6.77,2.147c-1.399,1.432-2.102,3.559-2.102,6.379c0,2.988,0.752,5.213,2.256,6.676
		c1.504,1.462,3.688,2.193,6.551,2.193c1.226,0,2.31-0.109,3.252-0.326c0.943-0.219,2.174-0.576,3.688-1.074l2.021,6.598
		c-1.823,0.604-3.696,1.068-5.614,1.4c-1.921,0.331-3.74,0.498-5.463,0.498C214.05,66.19,211.318,65.556,209.026,64.292z"/>
	<path fill="#494949" d="M254.414,66.688c-0.996-2.074-1.754-4.15-2.272-6.225c-0.394,1.037-1.067,1.992-2.021,2.863
		c-0.955,0.871-2.07,1.564-3.346,2.084s-2.566,0.777-3.875,0.777c-2.115,0-4.01-0.32-5.68-0.965
		c-1.672-0.645-2.992-1.641-3.969-2.988c-0.976-1.348-1.463-3.027-1.463-5.041c0-2.096,0.523-3.905,1.571-5.43
		s2.536-2.697,4.466-3.517c1.93-0.819,4.189-1.229,6.784-1.229c2.322,0,4.638,0.55,6.938,1.649v-1.992
		c0-1.909-0.498-3.304-1.494-4.186c-0.995-0.881-2.458-1.323-4.389-1.323c-1.037,0-2.516,0.109-4.435,0.327
		c-1.919,0.218-3.698,0.503-5.337,0.855l-0.871-6.784c2.926-0.415,5.219-0.721,6.878-0.918s3.05-0.296,4.17-0.296
		c4.378,0,7.701,0.996,9.974,2.987c2.271,1.992,3.418,4.959,3.438,8.9l0.062,8.961c0.021,3.051,0.789,6.184,2.305,9.397
		L254.414,66.688z M248.265,59.204c1.049-0.509,1.855-1.199,2.429-2.07c0.569-0.869,0.854-1.846,0.854-2.924
		c-1.909-0.582-3.963-0.871-6.161-0.871c-1.765,0-3.153,0.315-4.171,0.947c-1.018,0.635-1.514,1.51-1.493,2.631
		c0,0.894,0.456,1.623,1.368,2.193c0.914,0.57,2.105,0.855,3.58,0.855C246.02,59.965,247.218,59.711,248.265,59.204z"/>
</g>
<g>
	<path fill="#494949" d="M22.286,91.2c0.646,0.432,1.124,0.994,1.433,1.689c0.309,0.695,0.463,1.438,0.463,2.223
		c0,0.555-0.074,1.086-0.221,1.592l-7.668,0.063c0.14,1.109,0.56,1.945,1.259,2.507c0.699,0.562,1.669,0.843,2.913,0.843
		c0.927,0,1.931-0.232,3.013-0.695l0.433,1.211c-0.499,0.211-1.111,0.388-1.839,0.527c-0.727,0.141-1.385,0.211-1.975,0.211
		c-1.658,0-2.943-0.443-3.854-1.332c-0.913-0.89-1.37-2.256-1.37-4.104c0-1.149,0.198-2.129,0.595-2.935
		c0.396-0.804,0.971-1.412,1.723-1.826c0.751-0.414,1.65-0.623,2.696-0.623C20.839,90.551,21.64,90.766,22.286,91.2z M22.749,94.87
		c0-0.52-0.11-1.012-0.332-1.475c-0.222-0.465-0.56-0.84-1.012-1.127c-0.452-0.288-1.017-0.434-1.69-0.434
		c-1.131,0-1.976,0.334-2.533,1.002c-0.559,0.666-0.866,1.564-0.922,2.695l6.436-0.064C22.732,95.258,22.749,95.059,22.749,94.87z"
		/>
	<path fill="#494949" d="M29.286,90.967c0.509-0.242,1.068-0.363,1.68-0.363c0.309,0,0.628,0.031,0.958,0.096l-0.232,1.326
		c-0.188-0.021-0.379-0.031-0.568-0.031c-0.618,0-1.184,0.119-1.696,0.354c-0.513,0.235-0.958,0.582-1.338,1.036v7.742h-1.36v-10.26
		h0.99l0.232,1.17C28.332,91.566,28.777,91.209,29.286,90.967z"/>
	<path fill="#494949" d="M36.596,90.967c0.509-0.242,1.069-0.363,1.68-0.363c0.31,0,0.628,0.031,0.958,0.096l-0.231,1.326
		c-0.189-0.021-0.379-0.031-0.569-0.031c-0.618,0-1.183,0.119-1.696,0.354c-0.513,0.235-0.958,0.582-1.338,1.036v7.742h-1.36v-10.26
		h0.989l0.232,1.17C35.643,91.566,36.087,91.209,36.596,90.967z"/>
	<path fill="#494949" d="M48.663,101.538c-0.387-0.75-0.667-1.479-0.844-2.181c-0.126,0.379-0.362,0.722-0.711,1.026
		c-0.348,0.306-0.769,0.547-1.264,0.723c-0.495,0.176-1.027,0.264-1.596,0.264c-1.117,0-2.005-0.259-2.665-0.772
		c-0.66-0.519-0.99-1.269-0.99-2.25c0-1.039,0.356-1.843,1.069-2.406c0.712-0.563,1.696-0.851,2.955-0.851
		c1.053,0,2.047,0.3,2.98,0.896v-1.223c0-1.896-0.867-2.844-2.602-2.844c-0.31,0-0.75,0.025-1.322,0.08
		c-0.572,0.051-1.104,0.119-1.596,0.203l-0.19-1.338c0.857-0.099,1.529-0.168,2.018-0.211c0.489-0.041,0.897-0.063,1.228-0.063
		c1.229,0,2.16,0.338,2.792,1.012c0.632,0.674,0.952,1.68,0.958,3.014l0.021,2.928c0.008,1.104,0.33,2.233,0.97,3.394
		L48.663,101.538z M46.114,99.747c0.457-0.229,0.818-0.555,1.085-0.969c0.268-0.414,0.4-0.893,0.4-1.434v-0.104
		c-0.372-0.275-0.802-0.488-1.29-0.645c-0.488-0.153-1-0.23-1.533-0.23c-0.871,0-1.549,0.163-2.032,0.489
		c-0.484,0.327-0.728,0.804-0.728,1.429c0,0.561,0.232,1.004,0.695,1.326s1.096,0.484,1.896,0.484
		C45.155,100.094,45.656,99.977,46.114,99.747z"/>
	<path fill="#494949" d="M59.086,91.12c0.571,0.353,0.999,0.836,1.279,1.453c0.281,0.618,0.422,1.328,0.422,2.129v6.426h-1.359
		v-5.94c0-0.978-0.191-1.771-0.574-2.388c-0.383-0.612-1.013-0.924-1.891-0.932c-0.674,0.008-1.307,0.148-1.896,0.428
		c-0.59,0.277-1.103,0.654-1.538,1.131l-0.01,7.701H52.16l0.021-10.26h0.958l0.337,1.2c0.857-0.983,2.022-1.476,3.498-1.476
		C57.81,90.592,58.514,90.768,59.086,91.12z"/>
	<path fill="#494949" d="M72.722,101.538c-0.436-0.779-0.741-1.522-0.917-2.231c-0.281,0.674-0.746,1.188-1.396,1.536
		c-0.65,0.354-1.471,0.527-2.461,0.527c-0.947,0-1.771-0.209-2.47-0.627c-0.699-0.418-1.235-1.016-1.61-1.791
		c-0.376-0.775-0.564-1.688-0.564-2.744c0-1.149,0.209-2.147,0.627-2.992c0.418-0.842,1.021-1.489,1.807-1.941
		c0.787-0.453,1.714-0.68,2.781-0.68c1.054,0,2.082,0.41,3.086,1.232v-6.68h1.359v12.504c0.007,1.031,0.313,2.094,0.917,3.182
		L72.722,101.538z M70.105,99.657c0.488-0.283,0.86-0.691,1.117-1.223c0.257-0.53,0.384-1.152,0.384-1.868v-3.478
		c-0.436-0.414-0.916-0.726-1.442-0.934c-0.527-0.207-1.029-0.313-1.507-0.313c-0.814,0-1.515,0.171-2.102,0.507
		c-0.587,0.338-1.036,0.825-1.349,1.461c-0.313,0.635-0.47,1.396-0.47,2.278c0,0.761,0.136,1.438,0.406,2.039
		c0.271,0.602,0.68,1.076,1.228,1.429c0.548,0.353,1.215,0.524,2.001,0.524C69.039,100.084,69.615,99.942,70.105,99.657z"/>
	<path fill="#494949" d="M91.282,90.868v10.26c0,1.729-0.587,3.002-1.759,3.824c-1.174,0.82-2.827,1.238-4.962,1.252l-0.168-1.252
		c1.355-0.063,2.436-0.254,3.24-0.57c0.803-0.313,1.387-0.766,1.748-1.354c0.361-0.586,0.543-1.344,0.543-2.27v-1.043
		c-0.324,0.541-0.794,0.951-1.412,1.232c-0.618,0.278-1.365,0.42-2.244,0.42c-0.955,0-1.782-0.209-2.48-0.625
		c-0.699-0.418-1.236-1.017-1.611-1.791c-0.376-0.775-0.564-1.689-0.564-2.744c0-1.15,0.211-2.148,0.633-2.992
		c0.421-0.842,1.024-1.49,1.812-1.942c0.786-0.453,1.713-0.679,2.781-0.679c0.632,0,1.206,0.115,1.722,0.347
		c0.518,0.231,1.027,0.575,1.533,1.032l0.263-1.105H91.282z M89.925,96.577V93.1c-0.437-0.422-0.916-0.734-1.438-0.943
		c-0.521-0.207-1.025-0.311-1.512-0.311c-0.813,0-1.517,0.168-2.105,0.506c-0.59,0.337-1.043,0.824-1.355,1.459
		s-0.469,1.396-0.469,2.279c0,0.76,0.137,1.438,0.411,2.039c0.273,0.601,0.685,1.076,1.231,1.428
		c0.548,0.352,1.215,0.525,2.001,0.525c0.667,0,1.244-0.143,1.732-0.428c0.488-0.283,0.859-0.689,1.117-1.222
		c0.256-0.53,0.385-1.153,0.385-1.869v0.011h0.002V96.577z"/>
	<path fill="#494949" d="M94.759,87.317c-0.182-0.184-0.273-0.41-0.273-0.686c0-0.273,0.093-0.502,0.273-0.686
		c0.184-0.183,0.412-0.273,0.686-0.273c0.274,0,0.502,0.092,0.686,0.273c0.183,0.184,0.273,0.41,0.273,0.686
		c0,0.272-0.092,0.502-0.273,0.686c-0.183,0.184-0.411,0.273-0.686,0.273C95.171,87.59,94.942,87.5,94.759,87.317z M94.749,90.868
		h1.358v10.26h-1.358V90.868z"/>
	<path fill="#494949" d="M102.138,90.967c0.509-0.242,1.069-0.363,1.681-0.363c0.31,0,0.628,0.031,0.958,0.096l-0.23,1.326
		c-0.189-0.021-0.379-0.031-0.569-0.031c-0.618,0-1.183,0.119-1.696,0.354c-0.512,0.235-0.958,0.582-1.338,1.036v7.742h-1.357
		v-10.26h0.989l0.231,1.17C101.184,91.566,101.63,91.209,102.138,90.967z"/>
	<path fill="#494949" d="M106.884,85.159h1.349v15.969h-1.349V85.159z"/>
</g>
<path fill="#6D8E3C" d="M3.589,3.473v77.75h57.374V3.473H3.589z M44.118,61.864H22.336V19.137h20.83v3.635H26.3v15.672h15.615v3.575
	H26.3v16.239h17.82v3.605H44.118z"/>
<path fill="#CA1D8B" d="M65.086,3.478v77.75h57.37V3.478H65.086z M111.112,58.695c-4.391,2.464-9.041,3.695-13.942,3.695
	c-3.099,0-5.879-0.533-8.34-1.595c-2.466-1.063-4.563-2.543-6.291-4.438c-1.728-1.897-3.054-4.162-3.978-6.795
	c-0.922-2.629-1.384-5.526-1.384-8.685c0-2.085,0.22-4.093,0.669-6.019c0.445-1.926,1.104-3.735,1.969-5.422
	c0.862-1.689,1.92-3.219,3.172-4.59c1.25-1.37,2.687-2.551,4.307-3.545c1.617-0.993,3.396-1.757,5.344-2.294
	c1.947-0.537,4.043-0.804,6.287-0.804c4.23,0,8.01,0.754,11.324,2.265v4.379c-3.656-2.026-7.589-3.038-11.803-3.038
	c-2.596,0-4.953,0.476-7.058,1.43c-2.106,0.952-3.899,2.265-5.379,3.934c-1.479,1.667-2.627,3.639-3.442,5.914
	c-0.813,2.274-1.231,4.742-1.25,7.405c-0.021,2.642,0.322,5.08,1.029,7.315c0.706,2.233,1.752,4.166,3.143,5.795
	c1.393,1.629,3.107,2.898,5.154,3.813c2.047,0.916,4.412,1.371,7.094,1.371c3.613,0,6.754-0.754,9.418-2.264V43.5h-9.721v-3.606
	h13.678V58.695z"/>
</svg>
