<?xml version="1.0" encoding="utf-8"?>
<!-- Generator: Adobe Illustrator 15.1.0, SVG Export Plug-In . SVG Version: 6.00 Build 0)  -->
<!DOCTYPE svg PUBLIC "-//W3C//DTD SVG 1.1//EN" "http://www.w3.org/Graphics/SVG/1.1/DTD/svg11.dtd">
<svg version="1.1" id="Layer_1" xmlns="http://www.w3.org/2000/svg" xmlns:xlink="http://www.w3.org/1999/xlink" x="0px" y="0px"
	 width="263.925px" height="106.204px" viewBox="0 0 263.925 106.204" enable-background="new 0 0 263.925 106.204"
	 xml:space="preserve">
<g>
	<path fill="#494949" d="M126.949,65.442V20.818h15.901c2.572,0,4.87,0.404,6.894,1.213c2.022,0.809,3.609,1.981,4.761,3.517
		c1.151,1.536,1.729,3.361,1.729,5.477c0,2.552-0.747,4.756-2.24,6.613c-1.494,1.857-3.59,3.18-6.286,3.968v0.125
		c2.198,0.229,4.104,0.825,5.71,1.789c1.607,0.965,2.848,2.23,3.719,3.797s1.308,3.345,1.308,5.337c0,2.572-0.669,4.828-2.007,6.769
		c-1.339,1.939-3.17,3.435-5.492,4.481c-2.324,1.048-4.917,1.57-7.78,1.57L126.949,65.442z M139.925,39.396
		c2.387,0,4.258-0.549,5.617-1.649c1.358-1.1,2.038-2.666,2.038-4.699c0-1.95-0.612-3.423-1.836-4.418
		c-1.225-0.996-2.956-1.494-5.196-1.494h-5.353v12.261L139.925,39.396L139.925,39.396z M141.7,59.125
		c2.552,0,4.543-0.597,5.975-1.789c1.433-1.193,2.147-2.899,2.147-5.119c0-2.22-0.811-3.89-2.428-5.011
		c-1.618-1.12-3.891-1.68-6.815-1.68h-5.352v13.6H141.7z"/>
	<path fill="#494949" d="M171.48,64.292c-2.531-1.308-4.491-3.153-5.882-5.539c-1.391-2.385-2.085-5.146-2.085-8.277
		c0-3.194,0.694-6.006,2.085-8.433s3.351-4.305,5.882-5.632c2.53-1.327,5.456-1.992,8.774-1.992c3.34,0,6.275,0.664,8.808,1.992
		c2.531,1.328,4.477,3.205,5.835,5.632c1.357,2.427,2.027,5.239,2.008,8.433c0,3.152-0.69,5.918-2.069,8.294
		c-1.381,2.375-3.325,4.216-5.835,5.522c-2.511,1.308-5.426,1.961-8.745,1.961C176.937,66.252,174.01,65.598,171.48,64.292z
		 M184.659,58.161c1.255-0.727,2.235-1.752,2.94-3.08s1.068-2.863,1.09-4.605c-0.042-1.763-0.42-3.314-1.137-4.652
		c-0.716-1.338-1.695-2.375-2.939-3.112c-1.245-0.736-2.677-1.104-4.295-1.104c-1.701,0-3.2,0.374-4.497,1.12
		c-1.296,0.747-2.304,1.795-3.02,3.143c-0.715,1.349-1.072,2.905-1.072,4.668c0,1.744,0.357,3.272,1.072,4.589
		c0.716,1.317,1.724,2.334,3.02,3.051c1.297,0.716,2.796,1.074,4.497,1.074C181.956,59.25,183.404,58.887,184.659,58.161z"/>
	<path fill="#494949" d="M209.026,64.292c-2.293-1.266-4.041-3.086-5.244-5.461s-1.805-5.191-1.805-8.45
		c0-3.215,0.61-6.032,1.836-8.449c1.224-2.417,3.013-4.279,5.367-5.586c2.354-1.307,5.183-1.95,8.479-1.929
		c1.888-0.021,3.75,0.13,5.586,0.451c1.836,0.322,3.387,0.752,4.652,1.292l-1.464,6.815c-2.261-0.851-4.604-1.276-7.031-1.276
		c-3.112,0-5.368,0.716-6.77,2.147c-1.399,1.432-2.101,3.559-2.101,6.379c0,2.988,0.752,5.213,2.256,6.676
		c1.504,1.462,3.688,2.193,6.551,2.193c1.225,0,2.309-0.109,3.252-0.326c0.943-0.219,2.173-0.576,3.688-1.074l2.021,6.598
		c-1.824,0.603-3.697,1.068-5.615,1.4c-1.921,0.331-3.74,0.498-5.463,0.498C214.051,66.19,211.318,65.556,209.026,64.292z"/>
	<path fill="#494949" d="M254.413,66.688c-0.996-2.074-1.754-4.15-2.272-6.225c-0.394,1.037-1.067,1.992-2.021,2.863
		s-2.069,1.565-3.345,2.084c-1.276,0.52-2.567,0.778-3.875,0.778c-2.116,0-4.01-0.321-5.68-0.965
		c-1.671-0.644-2.992-1.64-3.968-2.988c-0.976-1.348-1.463-3.028-1.463-5.041c0-2.096,0.523-3.905,1.571-5.43
		c1.048-1.525,2.536-2.697,4.466-3.517c1.93-0.819,4.189-1.229,6.784-1.229c2.322,0,4.637,0.55,6.938,1.649v-1.992
		c0-1.909-0.498-3.304-1.494-4.186c-0.995-0.881-2.458-1.323-4.388-1.323c-1.037,0-2.516,0.109-4.435,0.327
		c-1.919,0.218-3.698,0.503-5.337,0.855l-0.871-6.784c2.926-0.415,5.218-0.721,6.878-0.918c1.659-0.197,3.049-0.296,4.17-0.296
		c4.377,0,7.701,0.996,9.974,2.987c2.271,1.992,3.417,4.959,3.438,8.9l0.062,8.961c0.021,3.051,0.789,6.184,2.304,9.397
		L254.413,66.688z M248.265,59.204c1.049-0.509,1.856-1.199,2.429-2.07c0.569-0.87,0.854-1.846,0.854-2.924
		c-1.909-0.582-3.963-0.871-6.161-0.871c-1.764,0-3.153,0.315-4.171,0.947c-1.017,0.635-1.514,1.51-1.493,2.631
		c0,0.893,0.456,1.623,1.369,2.193s2.105,0.855,3.579,0.855C246.02,59.965,247.218,59.711,248.265,59.204z"/>
</g>
<g>
	<path fill="#494949" d="M22.286,91.199c0.646,0.433,1.124,0.995,1.433,1.69s0.463,1.437,0.463,2.223
		c0,0.555-0.074,1.085-0.221,1.591l-7.668,0.063c0.14,1.109,0.56,1.945,1.259,2.507s1.669,0.843,2.913,0.843
		c0.927,0,1.931-0.232,3.013-0.695l0.433,1.211c-0.499,0.211-1.111,0.387-1.839,0.527c-0.727,0.141-1.385,0.21-1.975,0.21
		c-1.658,0-2.943-0.442-3.854-1.332c-0.913-0.889-1.37-2.256-1.37-4.104c0-1.15,0.198-2.129,0.595-2.934
		c0.396-0.804,0.971-1.412,1.723-1.826c0.751-0.414,1.65-0.623,2.696-0.623C20.839,90.551,21.64,90.766,22.286,91.199z
		 M22.749,94.87c0-0.52-0.11-1.012-0.332-1.475c-0.222-0.465-0.56-0.84-1.012-1.127c-0.452-0.288-1.017-0.434-1.69-0.434
		c-1.131,0-1.976,0.334-2.533,1.002c-0.559,0.666-0.866,1.565-0.922,2.695l6.436-0.063C22.732,95.258,22.749,95.059,22.749,94.87z"
		/>
	<path fill="#494949" d="M29.286,90.967c0.509-0.242,1.068-0.363,1.68-0.363c0.309,0,0.628,0.031,0.958,0.095l-0.232,1.327
		c-0.188-0.021-0.379-0.031-0.568-0.031c-0.618,0-1.184,0.118-1.696,0.354c-0.513,0.236-0.958,0.582-1.338,1.037v7.742H26.73v-10.26
		h0.99l0.232,1.169C28.332,91.566,28.777,91.209,29.286,90.967z"/>
	<path fill="#494949" d="M36.596,90.967c0.509-0.242,1.069-0.363,1.68-0.363c0.31,0,0.628,0.031,0.958,0.095l-0.231,1.327
		c-0.189-0.021-0.379-0.031-0.569-0.031c-0.618,0-1.183,0.118-1.696,0.354c-0.513,0.236-0.958,0.582-1.338,1.037v7.742H34.04v-10.26
		h0.989l0.232,1.169C35.643,91.566,36.087,91.209,36.596,90.967z"/>
	<path fill="#494949" d="M48.663,101.538c-0.387-0.751-0.667-1.479-0.844-2.181c-0.126,0.379-0.362,0.722-0.711,1.026
		c-0.348,0.306-0.769,0.547-1.264,0.723c-0.495,0.175-1.027,0.263-1.596,0.263c-1.117,0-2.005-0.258-2.665-0.772
		c-0.66-0.518-0.99-1.268-0.99-2.25c0-1.039,0.356-1.842,1.069-2.406c0.712-0.564,1.696-0.85,2.955-0.85
		c1.053,0,2.047,0.299,2.98,0.896v-1.223c0-1.896-0.867-2.844-2.602-2.844c-0.31,0-0.75,0.026-1.322,0.08
		c-0.572,0.051-1.104,0.12-1.596,0.204l-0.19-1.338c0.857-0.099,1.529-0.169,2.018-0.211s0.897-0.063,1.228-0.063
		c1.229,0,2.16,0.338,2.792,1.012s0.952,1.679,0.958,3.013l0.021,2.929c0.008,1.104,0.33,2.233,0.97,3.393L48.663,101.538z
		 M46.114,99.747c0.457-0.23,0.818-0.555,1.085-0.969c0.268-0.414,0.4-0.893,0.4-1.434V97.24c-0.372-0.274-0.802-0.487-1.29-0.644
		c-0.488-0.153-1-0.23-1.533-0.23c-0.871,0-1.549,0.163-2.032,0.489c-0.484,0.327-0.728,0.803-0.728,1.428
		c0,0.562,0.232,1.004,0.695,1.327c0.463,0.322,1.096,0.484,1.896,0.484C45.155,100.094,45.656,99.977,46.114,99.747z"/>
	<path fill="#494949" d="M59.086,91.12c0.571,0.352,0.999,0.836,1.279,1.453c0.281,0.618,0.422,1.328,0.422,2.128v6.427h-1.359
		v-5.941c0-0.977-0.191-1.77-0.574-2.387c-0.383-0.613-1.013-0.924-1.891-0.932c-0.674,0.008-1.307,0.148-1.896,0.428
		c-0.59,0.277-1.103,0.653-1.538,1.131l-0.01,7.701H52.16l0.021-10.261h0.958l0.337,1.201c0.857-0.983,2.022-1.476,3.498-1.476
		C57.81,90.592,58.514,90.768,59.086,91.12z"/>
	<path fill="#494949" d="M72.722,101.538c-0.436-0.779-0.741-1.523-0.917-2.232c-0.281,0.674-0.746,1.188-1.396,1.537
		c-0.65,0.353-1.471,0.526-2.461,0.526c-0.947,0-1.771-0.209-2.47-0.626c-0.699-0.418-1.235-1.016-1.61-1.791
		c-0.376-0.775-0.564-1.689-0.564-2.744c0-1.15,0.209-2.148,0.627-2.992c0.418-0.842,1.021-1.49,1.807-1.942
		c0.787-0.453,1.714-0.679,2.781-0.679c1.054,0,2.082,0.41,3.086,1.231v-6.679h1.359v12.504c0.007,1.031,0.313,2.093,0.917,3.182
		L72.722,101.538z M70.105,99.657c0.488-0.283,0.86-0.691,1.117-1.223c0.257-0.53,0.384-1.152,0.384-1.868v-3.478
		c-0.436-0.414-0.916-0.725-1.442-0.933c-0.527-0.207-1.029-0.312-1.507-0.312c-0.814,0-1.515,0.17-2.102,0.506
		c-0.587,0.338-1.036,0.826-1.349,1.461c-0.313,0.635-0.47,1.396-0.47,2.279c0,0.76,0.136,1.438,0.406,2.039
		c0.271,0.601,0.68,1.076,1.228,1.428s1.215,0.525,2.001,0.525C69.039,100.084,69.615,99.942,70.105,99.657z"/>
	<path fill="#494949" d="M91.282,90.867v10.261c0,1.728-0.587,3.002-1.759,3.823c-1.174,0.821-2.827,1.239-4.962,1.253l-0.168-1.253
		c1.355-0.063,2.436-0.253,3.24-0.569c0.803-0.314,1.387-0.767,1.748-1.354c0.361-0.586,0.543-1.344,0.543-2.27v-1.043
		c-0.324,0.541-0.794,0.951-1.412,1.232c-0.618,0.279-1.365,0.421-2.244,0.421c-0.955,0-1.782-0.209-2.48-0.626
		c-0.699-0.418-1.236-1.016-1.611-1.791c-0.376-0.775-0.564-1.689-0.564-2.744c0-1.15,0.211-2.148,0.633-2.992
		c0.421-0.842,1.024-1.49,1.812-1.942c0.786-0.453,1.713-0.679,2.781-0.679c0.632,0,1.206,0.115,1.722,0.347
		c0.518,0.231,1.027,0.575,1.533,1.032l0.263-1.106H91.282z M89.925,96.576V93.1c-0.437-0.422-0.916-0.735-1.438-0.943
		c-0.521-0.207-1.025-0.311-1.512-0.311c-0.813,0-1.517,0.168-2.105,0.506c-0.59,0.337-1.043,0.824-1.355,1.459
		c-0.312,0.635-0.469,1.396-0.469,2.279c0,0.76,0.137,1.438,0.411,2.039c0.273,0.601,0.685,1.076,1.231,1.428
		c0.548,0.352,1.215,0.525,2.001,0.525c0.667,0,1.244-0.142,1.732-0.427c0.488-0.284,0.859-0.69,1.117-1.222
		c0.256-0.53,0.385-1.153,0.385-1.869v0.011H89.925z"/>
	<path fill="#494949" d="M94.759,87.317c-0.182-0.184-0.273-0.411-0.273-0.686c0-0.273,0.093-0.502,0.273-0.685
		c0.184-0.183,0.412-0.274,0.686-0.274c0.274,0,0.502,0.092,0.686,0.274c0.183,0.183,0.273,0.41,0.273,0.685
		c0,0.273-0.092,0.502-0.273,0.686c-0.183,0.184-0.411,0.273-0.686,0.273C95.171,87.59,94.942,87.5,94.759,87.317z M94.749,90.867
		h1.358v10.261h-1.358V90.867z"/>
	<path fill="#494949" d="M102.138,90.967c0.509-0.242,1.069-0.363,1.681-0.363c0.31,0,0.628,0.031,0.958,0.095l-0.23,1.327
		c-0.189-0.021-0.379-0.031-0.569-0.031c-0.618,0-1.183,0.118-1.696,0.354c-0.512,0.236-0.958,0.582-1.338,1.037v7.742h-1.357
		v-10.26h0.989l0.231,1.169C101.184,91.566,101.63,91.209,102.138,90.967z"/>
	<path fill="#494949" d="M106.884,85.158h1.349v15.97h-1.349V85.158z"/>
</g>
<path fill="#74C596" d="M3.589,3.473v77.75h57.374V3.473H3.589z M44.118,61.864H22.336V19.137h20.83v3.635H26.3v15.672h15.615v3.575
	H26.3v16.24h17.82v3.605H44.118z"/>
<path fill="#E55A81" d="M65.086,3.478v77.75h57.37V3.478H65.086z M111.112,58.695c-4.391,2.463-9.041,3.695-13.942,3.695
	c-3.099,0-5.879-0.533-8.34-1.595c-2.466-1.063-4.563-2.542-6.291-4.438c-1.728-1.897-3.054-4.162-3.978-6.795
	c-0.922-2.629-1.384-5.526-1.384-8.685c0-2.085,0.22-4.093,0.669-6.019c0.445-1.926,1.104-3.735,1.969-5.422
	c0.862-1.689,1.92-3.219,3.172-4.59c1.25-1.37,2.687-2.551,4.307-3.545c1.617-0.993,3.396-1.757,5.344-2.294
	c1.947-0.537,4.043-0.804,6.287-0.804c4.23,0,8.01,0.754,11.324,2.265v4.379c-3.656-2.026-7.589-3.038-11.803-3.038
	c-2.596,0-4.953,0.476-7.058,1.43c-2.106,0.952-3.899,2.265-5.379,3.934c-1.479,1.667-2.627,3.639-3.442,5.914
	c-0.813,2.274-1.231,4.742-1.25,7.405c-0.021,2.642,0.322,5.08,1.029,7.315c0.706,2.233,1.752,4.166,3.143,5.795
	c1.393,1.629,3.107,2.899,5.154,3.813c2.047,0.915,4.412,1.371,7.094,1.371c3.613,0,6.754-0.754,9.418-2.264V43.5h-9.721v-3.606
	h13.678V58.695z"/>
</svg>
