<?xml version="1.0" encoding="utf-8"?>
<!-- Generator: Adobe Illustrator 15.1.0, SVG Export Plug-In . SVG Version: 6.00 Build 0)  -->
<!DOCTYPE svg PUBLIC "-//W3C//DTD SVG 1.1//EN" "http://www.w3.org/Graphics/SVG/1.1/DTD/svg11.dtd">
<svg version="1.1" id="Layer_1" xmlns="http://www.w3.org/2000/svg" xmlns:xlink="http://www.w3.org/1999/xlink" x="0px" y="0px"
	 width="452px" height="415px" viewBox="0 0 452 415" enable-background="new 0 0 452 415" xml:space="preserve">
<g>
	<path fill="#282828" d="M338.324,359.855c0,0-6.966-22.723,21.723-19.071c28.703,3.648,25.224,0.167,28.703-0.995l19.075,5.31
		c0,0,2.319,12.442-1.993,14.433c0,0,18.261,5.18,16.925,8.793c0,0,0.997,2.654-14.763-0.832c0,0,13.71,11.128,11.278,12.934
		c0,0-1.617,3.74-13.44-4.639c0,0-14.919-5.062-20.237-7.463c0,0-12.275-6.805-26.209-3.324c0,0-1.658,13.605-12.431,11.942
		c0,0-5.646,0.501-6.481-7.13c0,0-7.788,12.771-16.752,10.12c0,0-1.988-1.491,1.667-4.649c3.64-3.149,10.448-7.13,11.606-10.771
		c0,0-16.09,7.957-23.557,2.98c0,0,0-2.326,3.983-2.492c3.979-0.162,15.926-5.965,18.747-8.451c0,0,1.658,0,1.154,2.815
		S338.324,359.855,338.324,359.855z"/>
	<path fill="#282828" d="M391.832,336.932c0,0-0.969-3.988-0.157-5.561c0,0,1.182-6.236,3.95-8.178c0,0-6.206-5.71-4.656-11.509
		c0,0,4.922,5.455,11.551,7.183c6.617,1.741,6.337-0.561,8.204,1.169c1.863,1.72,4.932,5.796,12.46,5.381
		c0,0-0.241,9.763-10.315,8.511c-10.073-1.262-4.869-0.697-4.869-0.697s-6.22,4.738-1.361,7.76"/>
	<path fill="#020202" d="M169.707,131.382c-3.651-0.829,2.492-2.325,2.492-2.325c-5.469,0.165-6.806,0.826-6.806,0.826
		c-2.005,1.059-3.946,2.062-5.807,2.993c-3.024-3.762-5.6-6.285-5.6-6.285l-0.408-0.686c3.16-0.759,4.752-1.997,6.007-2.648
		c2.514-1.3,18.588-15.104,21.396-3.327c0.02,0.039,0.027,0.073,0.032,0.108C183.747,131.714,173.351,132.208,169.707,131.382z"/>
	<path fill="#282828" d="M208.857,131.046c0,0-4.98-6.136,1.168-25.679l29.354,39.279c0,0,45.289,39.814,53.077,42.799
		c7.804,2.99,1.001,20.239-2.319,18.254c-3.313-1.998-6.295-8.961-3.636-10.289c2.648-1.329-1.676,2.322-4.66-0.998
		c-2.982-3.317-1.318-8.818-1.318-8.818s-39.159-22.364-51.1-31.323C217.482,145.321,208.857,131.046,208.857,131.046z"/>
	<g>
		<path fill="none" d="M172.425,129.684c0,0-2.718,0.681-3.561,1.408c-0.032-0.009-0.056-0.022-0.076-0.046
			c-0.029-0.013-0.051-0.028-0.063-0.044c-0.034-0.032-0.074-0.06-0.098-0.086c-0.012-0.019-0.02-0.032-0.025-0.044
			c-0.012-0.015-0.024-0.04-0.029-0.047c-0.02-0.049-0.02-0.101-0.01-0.152c0.01-0.042,0.027-0.079,0.052-0.118
			c0.037-0.056,0.09-0.113,0.155-0.179c0.019-0.017,0.044-0.029,0.068-0.049c0.221-0.174,0.56-0.346,0.946-0.501
			C170.538,129.765,171.41,129.708,172.425,129.684z"/>
		<path fill="none" d="M152.797,126.048l0.017,0.029c-1.489,0.297-3.28,0.489-5.494,0.489c-2.474,0-9.123,0.946-16.15,2.779
			l10.298-23.979l11.745,19.917c-0.248,0.069-0.494,0.135-0.754,0.213L152.797,126.048z"/>
		<path fill="#020202" d="M152.797,126.048l0.017,0.029c-1.489,0.297-3.28,0.489-5.494,0.489
			C149.178,126.566,151.287,126.313,152.797,126.048z"/>
		<path fill="#020202" d="M168.572,130.824c-0.02-0.049-0.02-0.101-0.01-0.152C168.552,130.724,168.552,130.775,168.572,130.824z"/>
		<path fill="#020202" d="M168.769,130.375c-0.064,0.066-0.118,0.123-0.155,0.179C168.641,130.498,168.695,130.431,168.769,130.375z
			"/>
	</g>
	<g>
		<path fill="#282828" d="M196.563,23.153c-0.206-0.501-0.437-0.961-0.702-1.403c-0.293-0.57-0.659-1.108-1.057-1.617
			c-0.088-0.128-0.167-0.255-0.255-0.383c-2.226-3.235-7.966-6.523-11.838-4.108c-0.565-0.418-1.103-0.791-1.592-1.093
			c-1.121-0.684-2.315-1.244-3.548-1.686c-0.061-0.025-0.132-0.057-0.197-0.081c-3.12-1.118-7.068-2.123-10.442-1.413l-0.091-0.093
			c-22.64,2.494-44.259,35.699-8.71,50.687l4.008,0.82l13.398,2.737l0.448-2.985c0,0,0.393,0.206,1.258,0.439
			c1.01,0.263,2.678,0.556,5.111,0.556c0,0,4.447-0.302,3.644-4.401c0,0-1.934-1.867,0.803-1.995c0,0,1.69-1.552,0.246-2.366
			c0,0,2.381-1.364,1.75-2.361c-0.801-1.28-0.369-1.931,0.241-2.295c3.23-1.938,3.616-2.496,1.563-4.172
			c-2-1.641-2.732-3.757-2.501-5.723c0.231-0.147,0.469-0.287,0.708-0.422c0.024,0.034-0.762,0.358-0.715,0.343
			c1.987-0.5,4.518-2.093,5.865-3.766C197.486,33.08,198.43,27.932,196.563,23.153z M188.272,39.465
			c-0.024,0.015-0.04,0.034-0.059,0.057c0.211-0.897,0.628-1.74,1.211-2.472C189.206,37.955,189.066,38.942,188.272,39.465z"/>
		<path fill="#282828" d="M192.798,26.384c0,4.177-1.965,7.919-4.998,10.72c-3.042,2.811-6.831,4.047-10.87,4.438
			c3.462-2.504,5.897-6.7,6.413-10.804c0.017-0.108-0.17-0.13-0.197-0.022c-1.189,6.04-5.921,12.553-12.592,12.816
			c-0.194,0.005-0.194,0.307,0,0.305c2.268-0.071,4.386-0.892,6.219-2.177c-0.024,0.083,0.012,0.174,0.123,0.179
			c4.086,0.297,8.248-1.769,11.224-4.416c3.145-2.808,4.998-6.816,4.973-11.04C193.093,26.202,192.798,26.202,192.798,26.384z"/>
		<path fill="#282828" d="M175.982,63.825c-4.691-3.541-7.516-9.059-7.838-14.909c-0.147-2.73,0.354-5.516,1.459-8.015
			c1.179-2.698,3.16-4.84,5.347-6.759c0.191-0.172-0.064-0.479-0.28-0.359c-5.18,3.059-7.548,9.322-7.264,15.133
			c0.31,6.022,3.543,11.698,8.418,15.182C175.992,64.221,176.144,63.943,175.982,63.825z"/>
	</g>
	<path fill="#020202" d="M81.601,316.063l0.737-0.621c-0.887-0.071-1.774-0.143-2.664-0.174
		C80.324,315.52,80.962,315.791,81.601,316.063z"/>
	<path fill="#282828" d="M289.941,372.621c-5.692-6.316-38.984-75.027-38.984-75.027l-19.196-37.805h-0.022
		c-7.23-16.654-27.2-74.688-26.227-105.262c0,0,0.393-20.435,0-31.566c-0.285-8.236,4.955-16.735,0.595-23.261
		c-4.349-6.531-13.109-9.937-14.74-14.843l13.969,11.066c0,0-1.458-15.956-19.957-18.684c0,0-7.445-2.349-8.534-7.066l-3.988-1.813
		l0.494-3.244l-13.398-2.74l-2.698,5.069l-4.703,0.914c0,0-17.617-5.094-26.124,29.386c0,0-16.875,36.092-16.875,42.087
		c0,1.266,0.111,2.281,0.3,3.091c0.02,0.924,0.273,1.882,0.801,2.885c0,0,4.428,9.433,48.932-12.934
		c1.86-0.931,3.801-1.934,5.807-2.993c0,0,1.336-0.661,6.806-0.826c0,0-0.138,0.032-0.351,0.086
		c-0.057,0.02-0.135,0.042-0.219,0.057c-0.123,0.044-0.266,0.088-0.428,0.125c-0.101,0.038-0.211,0.069-0.314,0.106
		c-0.062,0.015-0.118,0.035-0.167,0.057c-0.31,0.096-0.639,0.209-0.937,0.336l-0.919,1.268c0.018,0.013,0.047,0.025,0.071,0.042
		c0.079,0.037,0.167,0.071,0.271,0.108c0.039,0.018,0.071,0.027,0.115,0.035c0.111,0.039,0.244,0.071,0.386,0.105
		c3.644,0.825,14.04,0.332,11.308-11.344c-0.005-0.035-0.013-0.069-0.032-0.108c-2.808-11.777-18.882,2.027-21.396,3.327
		c-1.255,0.651-2.848,1.889-6.007,2.648c-0.236,0.052-0.501,0.096-0.781,0.143l0.017,0.029c-1.489,0.297-3.28,0.489-5.494,0.489
		c-2.474,0-9.123,0.946-16.15,2.779l10.298-23.979l11.02,18.679c2.879-0.813,6.057-2.379,7.273-3.03
		c2.622-1.413,20.108-14.106,23.055-1.329c0.012,0.037,0.243,1.044,0.25,1.074c2.858,12.671-9.438,12.339-13.239,11.438
		c-1.336-0.317-1.425-0.713-0.963-1.106c-0.032-0.009-0.056-0.022-0.076-0.046c-0.029-0.008-0.051-0.022-0.063-0.044
		c-0.044-0.032-0.074-0.06-0.098-0.086c-0.012-0.019-0.02-0.032-0.025-0.044c-0.024-0.015-0.024-0.04-0.029-0.047
		c-0.02-0.049-0.02-0.101-0.01-0.152c0.005-0.042,0.015-0.079,0.052-0.118c0.027-0.056,0.081-0.123,0.155-0.179
		c0.019-0.017,0.044-0.029,0.068-0.049c0.221-0.174,0.56-0.346,0.946-0.501c-3.531,0.27-4.484,0.759-4.484,0.759
		c-1.813,0.991-3.58,1.937-5.278,2.833c4.993,6.322,10.907,15.779,8.487,22.743c-3.973,11.394-56.479,44.599-47.967,100.897
		c1.066,0.086,2.133,0.174,3.187,0.275c8.398,0.826,16.993,2.229,25.237,4.646c15.558,2.164,34.517,3.801,55.997,3.688h0.059
		c10.865,24.662,27.461,38.148,27.461,38.148c29.283,24.343,29.661,39.479,29.661,39.479c-8.169,12.853-2.633,18.184-0.229,20.797
		c2.401,2.611,5.436,22.062,5.436,22.062l1.908-0.325c-2.696-30.941,4.813-15.648,4.813-15.648s0.804,2.956,2.539,5.92
		c1.734,2.955,4.575,6.965,9.813,6.859c5.232-0.105,16.246-2.723,16.246-2.723C301.358,371.482,289.941,372.621,289.941,372.621z"/>
	<g>
		<g>
			<polygon points="386.614,336.887 294.89,203.139 295.455,201.957 387.219,335.693 			"/>
		</g>
	</g>
	<path fill="#282828" d="M59.32,332.898c0,0,14.028-3.924,29.2-38.841c0,0,12.325-19.698,33.627-37.195l31.166,4.742L99.67,310.056
		c0,0-15.818,14.28-31.399,28.819c-0.971,16.057-1.58,30.57-0.892,33.949c0,0,10.408,4.813,7.091,13.013
		c0,0-10.819-3.337-15.381-5.904c-4.565-2.577-4.973-7.464-4.966-10.893c0.012-3.433,0.818-6.397,0.818-6.397
		s1.297-16.981-12.093,11.055l-1.809-0.696c0,0,7.268-18.3,6.521-21.77c-0.75-3.472-2.801-10.872,10.742-17.792"/>
	<path fill="#74C596" d="M152.814,244.017l-64.55-4.312l16.425-86.929l17.551,2.99c0.547-3.465,4.59-27.497,12.231-29.463
		c1.626-0.415,2.96-0.324,3.966,0.288c1.101,0.673,1.366,1.847,1.381,1.958l-1.411,0.034c-0.044-0.172-0.595-1.599-3.563-0.831
		c-5.747,1.469-9.971,20.615-11.138,28.013h20.888l-3.135-14.551l1.42-0.589l3.229,15.141l10.452,2.983L152.814,244.017z"/>
	<path fill="#E55A81" d="M174.589,227.1l-64.798,8.536l7.467-81.865h13.205c0.55-3.462,4.592-27.492,12.231-29.458
		c1.622-0.42,2.958-0.322,3.965,0.293c1.096,0.663,1.367,1.837,1.386,1.953l-1.42,0.032c-0.042-0.175-0.594-1.597-3.567-0.836
		c-5.735,1.479-9.956,20.615-11.126,28.016h20.885l-3.452-15.978l1.42-0.651l3.54,16.629h10.463L174.589,227.1z"/>
	<g>
		<g>
			<path d="M271.128,203.633L271.128,203.633c-2.11,0-3.599-1.082-4.308-3.139c-0.471-1.363-0.38-2.515,0.272-3.425
				c0.936-1.319,2.928-1.961,6.086-1.961c4.222,0,9.052,1.152,9.254,1.209l1.631,0.395l-1.279,1.084
				C282.507,198.035,275.854,203.633,271.128,203.633z M273.179,196.814c-2.457,0-4.128,0.442-4.691,1.246
				c-0.325,0.44-0.341,1.054-0.058,1.877c0.479,1.358,1.329,1.997,2.698,1.997c2.926,0,7.017-2.741,9.143-4.329
				C278.496,197.266,275.686,196.814,273.179,196.814z"/>
		</g>
	</g>
	<path fill="#E55A81" d="M155.736,61.383c0,0,13.917,4.614,22.445,2.789c0,0,0.007,1.283,0.191,2.899
		c0.165,1.614,0.342,3.607,0.342,3.607s-9.748,5.482-27.333-0.833C151.382,69.845,151.382,64.21,155.736,61.383z"/>
	<path fill="#E55A81" d="M151.382,65.117c0,0-56.896-20.826-72.326,3.809c-15.428,24.627-57.486,8.416-61.461,6.946"/>
</g>
</svg>
