<?xml version="1.0" encoding="utf-8"?>
<!-- Generator: Adobe Illustrator 15.1.0, SVG Export Plug-In . SVG Version: 6.00 Build 0)  -->
<!DOCTYPE svg PUBLIC "-//W3C//DTD SVG 1.1//EN" "http://www.w3.org/Graphics/SVG/1.1/DTD/svg11.dtd">
<svg version="1.1" id="Layer_1" xmlns="http://www.w3.org/2000/svg" xmlns:xlink="http://www.w3.org/1999/xlink" x="0px" y="0px"
	 width="557.648px" height="512px" viewBox="-53.369 -49 557.648 512" enable-background="new -53.369 -49 557.648 512"
	 xml:space="preserve">
<g>
	<path fill="#282828" d="M-237.676,195.855c0,0-6.966-22.724,21.723-19.071c28.703,3.647,25.225,0.167,28.703-0.995l19.075,5.311
		c0,0,2.318,12.441-1.993,14.433c0,0,18.261,5.18,16.925,8.793c0,0,0.997,2.653-14.763-0.832c0,0,13.71,11.128,11.277,12.934
		c0,0-1.616,3.74-13.439-4.639c0,0-14.919-5.062-20.237-7.463c0,0-12.274-6.806-26.209-3.324c0,0-1.658,13.604-12.431,11.942
		c0,0-5.646,0.5-6.481-7.131c0,0-7.788,12.771-16.752,10.121c0,0-1.987-1.492,1.667-4.649c3.641-3.149,10.448-7.13,11.606-10.771
		c0,0-16.09,7.956-23.558,2.979c0,0,0-2.326,3.983-2.492c3.979-0.162,15.926-5.965,18.747-8.451c0,0,1.658,0,1.154,2.815
		C-239.182,198.18-237.676,195.855-237.676,195.855z"/>
	<path fill="#282828" d="M-184.168,172.932c0,0-0.969-3.988-0.157-5.561c0,0,1.183-6.236,3.95-8.178c0,0-6.206-5.711-4.656-11.51
		c0,0,4.922,5.455,11.551,7.184c6.617,1.74,6.338-0.561,8.204,1.169c1.863,1.72,4.933,5.796,12.46,5.381
		c0,0-0.24,9.763-10.314,8.511c-10.073-1.262-4.869-0.697-4.869-0.697s-6.22,4.738-1.361,7.761"/>
	<path fill="#020202" d="M-406.293-32.618c-3.651-0.829,2.492-2.325,2.492-2.325c-5.469,0.165-6.806,0.826-6.806,0.826
		c-2.005,1.059-3.946,2.062-5.807,2.993c-3.024-3.762-5.6-6.285-5.6-6.285l-0.408-0.686c3.16-0.759,4.752-1.997,6.007-2.648
		c2.514-1.3,18.588-15.104,21.396-3.327c0.02,0.039,0.027,0.073,0.032,0.108C-392.253-32.286-402.649-31.792-406.293-32.618z"/>
	<path fill="#282828" d="M-367.143-32.954c0,0-4.98-6.136,1.168-25.679l29.354,39.279c0,0,45.289,39.814,53.077,42.799
		c7.804,2.99,1.001,20.239-2.319,18.254c-3.313-1.998-6.295-8.961-3.636-10.289c2.647-1.329-1.676,2.322-4.66-0.998
		c-2.981-3.317-1.317-8.818-1.317-8.818S-334.636-0.77-346.577-9.729C-358.518-18.679-367.143-32.954-367.143-32.954z"/>
	<g>
		<path fill="none" d="M-403.575-34.316c0,0-2.718,0.681-3.561,1.408c-0.032-0.009-0.056-0.022-0.076-0.046
			c-0.029-0.013-0.051-0.028-0.063-0.044c-0.034-0.032-0.074-0.06-0.098-0.086c-0.012-0.019-0.02-0.032-0.025-0.044
			c-0.012-0.015-0.024-0.04-0.029-0.047c-0.02-0.049-0.02-0.101-0.01-0.152c0.01-0.042,0.027-0.079,0.052-0.118
			c0.037-0.056,0.09-0.113,0.155-0.179c0.019-0.017,0.044-0.029,0.068-0.049c0.221-0.174,0.56-0.346,0.946-0.501
			C-405.462-34.235-404.59-34.292-403.575-34.316z"/>
		<path fill="none" d="M-423.203-37.952l0.017,0.029c-1.489,0.297-3.28,0.489-5.494,0.489c-2.474,0-9.123,0.946-16.15,2.779
			l10.298-23.979l11.745,19.917c-0.248,0.069-0.494,0.135-0.754,0.213L-423.203-37.952z"/>
		<path fill="#020202" d="M-423.203-37.952l0.017,0.029c-1.489,0.297-3.28,0.489-5.494,0.489
			C-426.822-37.434-424.713-37.687-423.203-37.952z"/>
		<path fill="#020202" d="M-407.428-33.176c-0.02-0.049-0.02-0.101-0.01-0.152C-407.448-33.276-407.448-33.225-407.428-33.176z"/>
		<path fill="#020202" d="M-407.231-33.625c-0.064,0.066-0.118,0.123-0.155,0.179C-407.359-33.502-407.305-33.569-407.231-33.625z"
			/>
	</g>
	<g>
		<path fill="#282828" d="M-379.437-140.847c-0.206-0.501-0.437-0.961-0.702-1.403c-0.293-0.57-0.659-1.108-1.057-1.617
			c-0.088-0.128-0.167-0.255-0.255-0.383c-2.226-3.235-7.966-6.523-11.838-4.108c-0.565-0.418-1.103-0.791-1.592-1.093
			c-1.121-0.684-2.315-1.244-3.548-1.686c-0.061-0.025-0.132-0.057-0.197-0.081c-3.12-1.118-7.068-2.123-10.442-1.413l-0.091-0.093
			c-22.64,2.494-44.259,35.699-8.71,50.687l4.008,0.82l13.398,2.737l0.448-2.985c0,0,0.393,0.206,1.258,0.439
			c1.01,0.263,2.678,0.556,5.111,0.556c0,0,4.447-0.302,3.644-4.401c0,0-1.934-1.867,0.803-1.995c0,0,1.69-1.552,0.246-2.366
			c0,0,2.381-1.364,1.75-2.361c-0.801-1.28-0.369-1.931,0.241-2.295c3.23-1.938,3.616-2.496,1.563-4.172
			c-2-1.641-2.732-3.757-2.501-5.723c0.231-0.147,0.469-0.287,0.708-0.422c0.024,0.034-0.762,0.358-0.715,0.343
			c1.987-0.5,4.518-2.093,5.865-3.766C-378.514-130.92-377.57-136.068-379.437-140.847z M-387.728-124.535
			c-0.024,0.015-0.04,0.034-0.059,0.057c0.211-0.897,0.628-1.74,1.211-2.472C-386.794-126.045-386.934-125.058-387.728-124.535z"/>
		<path fill="#282828" d="M-383.202-137.616c0,4.177-1.965,7.919-4.998,10.72c-3.042,2.811-6.831,4.047-10.87,4.438
			c3.462-2.504,5.897-6.7,6.413-10.804c0.017-0.108-0.17-0.13-0.197-0.022c-1.189,6.04-5.921,12.553-12.592,12.816
			c-0.194,0.005-0.194,0.307,0,0.305c2.268-0.071,4.386-0.892,6.219-2.177c-0.024,0.083,0.012,0.174,0.123,0.179
			c4.086,0.297,8.248-1.769,11.224-4.416c3.145-2.808,4.998-6.816,4.973-11.04C-382.907-137.798-383.202-137.798-383.202-137.616z"
			/>
		<path fill="#282828" d="M-400.018-100.175c-4.691-3.541-7.516-9.059-7.838-14.909c-0.147-2.73,0.354-5.516,1.459-8.015
			c1.179-2.698,3.16-4.84,5.347-6.759c0.191-0.172-0.064-0.479-0.28-0.359c-5.18,3.059-7.548,9.322-7.264,15.133
			c0.31,6.022,3.543,11.698,8.418,15.182C-400.008-99.779-399.856-100.057-400.018-100.175z"/>
	</g>
	<path fill="#020202" d="M-494.399,152.063l0.737-0.621c-0.887-0.07-1.774-0.143-2.664-0.174
		C-495.676,151.52-495.038,151.791-494.399,152.063z"/>
	<path fill="#282828" d="M-286.059,208.621c-5.692-6.316-38.984-75.027-38.984-75.027l-19.195-37.805h-0.023
		c-7.229-16.654-27.199-74.688-26.226-105.262c0,0,0.393-20.435,0-31.566c-0.285-8.236,4.955-16.735,0.595-23.261
		c-4.349-6.531-13.109-9.937-14.74-14.843l13.969,11.066c0,0-1.458-15.956-19.957-18.684c0,0-7.445-2.349-8.534-7.066l-3.988-1.813
		l0.494-3.244l-13.398-2.74l-2.698,5.069l-4.703,0.914c0,0-17.617-5.094-26.124,29.386c0,0-16.875,36.092-16.875,42.087
		c0,1.266,0.111,2.281,0.3,3.091c0.02,0.924,0.273,1.882,0.801,2.885c0,0,4.428,9.433,48.932-12.934
		c1.86-0.931,3.801-1.934,5.807-2.993c0,0,1.336-0.661,6.806-0.826c0,0-0.138,0.032-0.351,0.086
		c-0.057,0.02-0.135,0.042-0.219,0.057c-0.123,0.044-0.266,0.088-0.428,0.125c-0.101,0.038-0.211,0.069-0.314,0.106
		c-0.062,0.015-0.118,0.035-0.167,0.057c-0.31,0.096-0.639,0.209-0.937,0.336l-0.919,1.268c0.018,0.013,0.047,0.025,0.071,0.042
		c0.079,0.037,0.167,0.071,0.271,0.108c0.039,0.018,0.071,0.027,0.115,0.035c0.111,0.039,0.244,0.071,0.386,0.105
		c3.644,0.825,14.04,0.332,11.308-11.344c-0.005-0.035-0.013-0.069-0.032-0.108c-2.808-11.777-18.882,2.027-21.396,3.327
		c-1.255,0.651-2.848,1.889-6.007,2.648c-0.236,0.052-0.501,0.096-0.781,0.143l0.017,0.029c-1.489,0.297-3.28,0.489-5.494,0.489
		c-2.474,0-9.123,0.946-16.15,2.779l10.298-23.979l11.02,18.679c2.879-0.813,6.057-2.379,7.273-3.03
		c2.622-1.413,20.108-14.106,23.055-1.329c0.012,0.037,0.243,1.044,0.25,1.074c2.858,12.671-9.438,12.339-13.239,11.438
		c-1.336-0.317-1.425-0.713-0.963-1.106c-0.032-0.009-0.056-0.022-0.076-0.046c-0.029-0.008-0.051-0.022-0.063-0.044
		c-0.044-0.032-0.074-0.06-0.098-0.086c-0.012-0.019-0.02-0.032-0.025-0.044c-0.024-0.015-0.024-0.04-0.029-0.047
		c-0.02-0.049-0.02-0.101-0.01-0.152c0.005-0.042,0.015-0.079,0.052-0.118c0.027-0.056,0.081-0.123,0.155-0.179
		c0.019-0.017,0.044-0.029,0.068-0.049c0.221-0.174,0.56-0.346,0.946-0.501c-3.531,0.27-4.484,0.759-4.484,0.759
		c-1.813,0.991-3.58,1.937-5.278,2.833c4.993,6.322,10.907,15.779,8.487,22.743c-3.973,11.394-56.479,44.599-47.967,100.897
		c1.066,0.086,2.133,0.174,3.187,0.274c8.398,0.826,16.993,2.229,25.237,4.646c15.558,2.164,34.517,3.801,55.997,3.688h0.059
		c10.865,24.662,27.46,38.147,27.46,38.147c29.283,24.344,29.662,39.479,29.662,39.479c-8.17,12.853-2.633,18.185-0.229,20.797
		c2.401,2.611,5.437,22.062,5.437,22.062l1.908-0.324c-2.697-30.941,4.813-15.648,4.813-15.648s0.804,2.956,2.539,5.92
		c1.734,2.955,4.574,6.965,9.813,6.859c5.232-0.105,16.246-2.723,16.246-2.723C-274.643,207.482-286.059,208.621-286.059,208.621z"
		/>
	<g>
		<g>
			<polygon points="-189.386,172.887 -281.109,39.139 -280.545,37.957 -188.781,171.693 			"/>
		</g>
	</g>
	<path fill="#282828" d="M-516.68,168.898c0,0,14.028-3.924,29.2-38.842c0,0,12.325-19.697,33.627-37.195l31.166,4.742
		l-53.643,48.453c0,0-15.818,14.279-31.399,28.818c-0.971,16.057-1.58,30.57-0.892,33.949c0,0,10.408,4.813,7.091,13.013
		c0,0-10.819-3.337-15.381-5.903c-4.565-2.578-4.973-7.465-4.966-10.894c0.012-3.433,0.818-6.397,0.818-6.397
		s1.297-16.98-12.093,11.056l-1.809-0.696c0,0,7.268-18.3,6.521-21.77c-0.75-3.473-2.801-10.873,10.742-17.793"/>
	<path fill="#74C596" d="M-423.186,80.018l-64.55-4.313l16.425-86.929l17.551,2.99c0.547-3.465,4.59-27.497,12.231-29.463
		c1.626-0.415,2.96-0.324,3.966,0.288c1.101,0.673,1.366,1.847,1.381,1.958l-1.411,0.034c-0.044-0.172-0.595-1.599-3.563-0.831
		c-5.747,1.469-9.971,20.615-11.138,28.013h20.888l-3.135-14.551l1.42-0.589l3.229,15.141l10.452,2.983L-423.186,80.018z"/>
	<path fill="#E55A81" d="M-401.411,63.1l-64.798,8.536l7.467-81.865h13.205c0.55-3.462,4.592-27.492,12.231-29.458
		c1.622-0.42,2.958-0.322,3.965,0.293c1.096,0.663,1.367,1.837,1.386,1.953l-1.42,0.032c-0.042-0.175-0.594-1.597-3.567-0.836
		c-5.735,1.479-9.956,20.615-11.126,28.016h20.885l-3.452-15.978l1.42-0.651l3.54,16.629h10.463L-401.411,63.1z"/>
	<g>
		<g>
			<path d="M-304.872,39.633L-304.872,39.633c-2.11,0-3.599-1.082-4.308-3.139c-0.471-1.363-0.381-2.515,0.271-3.425
				c0.936-1.319,2.928-1.961,6.086-1.961c4.223,0,9.053,1.152,9.254,1.209l1.631,0.395l-1.278,1.084
				C-293.493,34.035-300.146,39.633-304.872,39.633z M-302.82,32.814c-2.457,0-4.129,0.442-4.691,1.246
				c-0.325,0.44-0.342,1.054-0.059,1.877c0.479,1.358,1.329,1.997,2.698,1.997c2.926,0,7.017-2.741,9.144-4.329
				C-297.504,33.266-300.314,32.814-302.82,32.814z"/>
		</g>
	</g>
	<path fill="#E55A81" d="M-420.264-102.617c0,0,13.917,4.614,22.445,2.789c0,0,0.007,1.283,0.191,2.899
		c0.165,1.614,0.342,3.607,0.342,3.607s-9.748,5.482-27.333-0.833C-424.618-94.155-424.618-99.79-420.264-102.617z"/>
	<path fill="#E55A81" d="M-424.618-98.883c0,0-56.896-20.826-72.326,3.809c-15.428,24.627-57.486,8.416-61.461,6.946"/>
</g>
<g>
	<path d="M191.208-32.997c-4.255-4.039-9.667-6.182-15.594-7.531c-1.384-0.317-2.783-0.606-4.197-0.857
		c-1.831-0.438-3.677-0.746-5.513-0.899c-6.747-0.563-13.778,0.713-19.823,3.42c-5.413,2.423-9.771,6.107-13.038,10.606
		c-0.285,0.364-0.562,0.732-0.826,1.109c-0.806,1.146-1.49,2.346-2.09,3.581c-1.509,2.81-2.725,5.8-3.551,8.836
		c0.211,0.344,0.291,0.749,0.146,1.104c-0.212,0.523-0.474,1.026-0.757,1.519c-0.01,0.063-0.024,0.121-0.039,0.181
		c-0.148,0.468-0.3,0.935-0.448,1.401c0.874-0.558,1.693-1.234,2.359-1.695c1.462-1.017,2.965-1.989,4.434-3.002
		c1.596-1.098,3.063-2.304,4.54-3.525c1.346-1.109,2.52-2.382,3.898-3.452c0.031-0.024,0.08-0.003,0.068,0.035
		c-1.011,3.553-4.831,6.371-8.021,8.383c-1.782,1.123-3.583,2.254-5.499,3.186c-0.125,0.062-0.25,0.122-0.38,0.181
		c1.619-0.377,3.197-0.895,4.662-1.438c4.036-1.5,7.939-3.287,11.576-5.469c3.683-2.21,7.212-4.721,10.12-7.741
		c1.461-1.517,2.798-3.14,3.928-4.869c0.548-0.843,1.09-1.688,1.563-2.566c0.373-0.686,0.666-1.462,1.27-2.011
		c0.074-0.065,0.184-0.011,0.189,0.072c0.078,0.905-0.443,1.823-0.842,2.64c-0.486,0.997-1.027,1.963-1.66,2.888
		c-1.151,1.687-2.491,3.269-3.976,4.724c-3.068,2.997-6.637,5.541-10.544,7.59c-3.891,2.044-8.02,3.732-12.246,5.124
		c-1.355,0.448-2.817,0.867-4.312,1.177c-0.278,0.122-0.565,0.238-0.852,0.337c2.994,0.148,6.012,0.128,8.944-0.022
		c4.964-0.255,9.931-1.018,14.631-2.496c4.601-1.448,9.018-3.431,12.815-6.215c4.032-2.958,6.958-6.686,10.311-10.21
		c0.196-0.208,0.575,0.011,0.491,0.258c-1.547,4.61-5.438,8.53-9.601,11.449c-4.021,2.819-8.647,4.963-13.563,6.202
		c-5.018,1.263-10.213,1.798-15.417,1.834c-3.098,0.022-6.125-0.213-9.147-0.571c-0.008,0.04-0.021,0.081-0.038,0.121
		c-0.036,0.121-0.021,0.227,0.031,0.318c-0.054,0.075-0.107,0.151-0.161,0.223c11.244,3.663,23.396,3.032,34.734-0.432
		c1.099-0.337,2.188-0.699,3.266-1.081c0.685-0.36,1.492-0.622,2.062-0.832c1.639-0.607,3.218-1.323,4.784-2.054
		c1.614-0.758,3.227-1.506,4.832-2.273c0.046-0.024,0.096-0.048,0.145-0.073c0.895-0.479,1.779-0.973,2.655-1.481
		c2.75-1.602,5.44-3.315,8-5.159c1.891-1.359,3.666-2.836,5.487-4.262c0.549-0.574,1.153-1.103,1.769-1.619
		c0.367-0.41,0.742-0.813,1.121-1.212C193.195-30.781,192.35-31.912,191.208-32.997z"/>
	<path d="M169.91-9.148c-1.985,0.635-4.001,1.174-6.042,1.643c-0.152,0.568-0.291,1.139-0.405,1.718
		c-0.854,4.259-0.901,8.675-0.313,12.968c0.573,4.178,1.803,8.328,4.131,12.004c2.377,3.755,5.397,6.872,8.623,9.957
		c-4.28-5.72-7.03-12.086-7.603-19.005c-0.5-6.074-0.225-12.667,1.417-18.597C169.778-8.685,169.845-8.917,169.91-9.148z"/>
	<path d="M154.704,13.507c1.452,6.423,5.287,12.028,10.682,16.406c4.846,3.932,10.452,6.397,16.379,8.702
		c1.673,0.65,3.372,1.273,5.095,1.813c0.232-0.043,0.463-0.081,0.692-0.125c-0.127-0.072-0.252-0.143-0.384-0.217
		c-1.787-1.038-3.271-2.345-4.735-3.727c-1.23-1.16-2.428-2.399-3.54-3.694c-0.651-0.692-1.287-1.395-1.891-2.123
		c-4.464-2.636-8.174-6.691-10.876-10.751c-2.517-3.779-4.069-8.042-4.829-12.384c-0.795-4.535-0.818-9.182,0.094-13.709
		c0.046-0.236,0.098-0.47,0.152-0.706c-2.982,0.601-6.005,1.058-9.044,1.441c-2.74,0.347-5.467,0.649-8.194,0.832
		c-4.667,11.996-1.069,24.997,8.224,34.395c4.801,4.854,10.763,8.727,17.346,11.396c0.911,0.369,1.86,0.729,2.84,1.077
		c3.983-0.226,7.974-0.698,11.919-1.331c-0.947-0.31-1.855-0.63-2.697-0.928c-6.276-2.21-12.281-4.53-17.4-8.601
		c-5.738-4.569-10.173-10.475-11.33-17.395c-1.129-6.729,0.093-13.412,2.773-19.735c0.007-0.015,0.035-0.011,0.03,0.006
		C154.169,0.336,153.27,7.164,154.704,13.507z"/>
	<path d="M141.71,33.384c-5.283-4.751-9.775-10.669-11.254-17.358c-1.402-6.347-0.85-13.28,1.336-19.43
		c0.187-0.525,0.385-1.053,0.6-1.581c-0.799-0.103-1.602-0.22-2.406-0.366c-1.366-0.251-2.709-0.563-4.042-0.911
		c-0.115,0.246-0.236,0.485-0.347,0.73c-1.577,3.484-2.673,7.125-3.395,10.828c-0.261,1.346-0.483,2.697-0.684,4.053
		c0.03,1.971,0.209,3.891,0.527,5.669c0.04,0.224,0.089,0.445,0.134,0.666c0.464,1.545,1.08,3.051,1.891,4.484
		c4.025,7.088,10.755,13.315,18.615,17.028c2.708,1.279,5.497,2.278,8.346,3.041C147.681,38.23,144.542,35.931,141.71,33.384z"/>
	<path d="M142.135-4.618c-2.428,0.097-4.855,0.078-7.287-0.11c-4.165,9.726-4.256,21.085,1.95,30.003
		c4.15,5.954,10.069,10.987,16.564,14.846c0.601,0.358,1.215,0.711,1.836,1.059c4.754,0.884,9.641,1.187,14.556,1.071
		c-10.382-3.74-19.468-10.515-24.75-19.439c-3.083-5.204-4.936-11.051-4.851-16.974C140.202,2.484,140.799-1.223,142.135-4.618z"/>
</g>
<path d="M130.056,275.931L45.433,391.574l-8.492-8.643c0,0,13.166-11.582,20.819-44.728c7.651-33.143,23.437-50.569,40.794-56.675
	l11.856-22.9L130.056,275.931z"/>
<path d="M36.982,382.998l8.451,8.576c0,0-4.204,10.229-7.762,27.613c-8.643,42.369-3.005-29.199-19.756-19.01
	C24.202,394.606,36.982,382.998,36.982,382.998z"/>
<path d="M192.551,118.046c0,0,18.192,16.724,25.674,25.381c7.484,8.656-8.069-1.469,45.778,50.324c0,0,2.053,10.121,14.377,20.685
	c12.323,10.564,7.189,8.95,11.15,8.95c3.962,0-6.893-10.27-7.629-11.589c-0.734-1.322,0.145-4.696,0.145-6.75
	c0,0,4.11,3.522,7.633,3.667c0,0-1.616,10.859,1.76,12.18c0,0-0.735-6.454,4.108-13.351c0,0-6.309-3.229-6.896-5.722
	c0,0,4.551,8.325,22.301,1.282c0,0,1.283-1.649-1.063-1.282c-2.287,0.355-14.123,1.758-9.482,0.202c0,0,11.882-1.047,7.37-3.137
	c0,0-5.114,0.77-12.817,0.221c0,0,10.896-0.384,8.031-2.203c0,0-7.484,0.386-15.295-0.603c-7.81-0.991-11.221-9.134-15.186-9.244
	c-3.963-0.11-24.501-33.654-40.641-48.62c-16.138-14.963-17.02-30.223-35.504-45.773c-18.488-15.552-19.074-8.512-19.074-8.512
	L192.551,118.046z"/>
<path d="M292.486,422.424c-1.688,0.291-3.379,0.55-4.955,0.744c3.672,2.272,6.459,4.063,6.459,4.063
	S295.421,424.076,292.486,422.424z"/>
<path d="M302.377,415.283c-3.676-6.78-18.863-34.315-33.035-61.876c-0.036-0.059-0.061-0.119-0.094-0.177l-37.841-76.556
	l-36.442-103.596c-10.273-47.327,2.152-74.743,2.152-74.743c1.77-12.205,6.177-18.094,3.811-19.055
	c-3.533-1.433-13.253-14.738-13.253-14.738l-8.046-8.554l-0.028-0.025c-0.17-0.055-0.342-0.126-0.517-0.237
	c-0.832-0.525-1.501-1.292-2.032-2.187c-0.294-0.344-0.577-0.703-0.833-1.085c-0.776-1.171-1.309-2.447-1.795-3.748
	c-0.432-0.854-0.822-1.753-1.17-2.687c-4.124-0.261-8.313-0.812-12.481-1.622c-0.214-0.037-0.427-0.076-0.641-0.116
	c-0.082-0.017-0.164-0.032-0.245-0.048c-0.882-0.168-1.761-0.37-2.638-0.598c-3.807-0.885-7.567-1.993-11.227-3.335
	c-22.741,25.229,11.474,64.3,9.624,79.54c-1.788,14.71-15.902,48.819-15.902,48.819l20.099,32.026l53.011,79.96
	c-5.743,32.689,25.183,60.748,25.183,60.748c30.063,24.995,36.525,43.13,37.905,50.233c0.42,2.161,0.37,3.302,0.37,3.302
	c-5.41,8.509-6.329,14.557-5.49,18.918c-0.797-0.24-1.12-0.123-0.764,0.486c0.53,0.9,1.141,1.874,1.84,2.839
	c1.199,2.562,2.932,4.33,4.109,5.608c2.363,2.573,3.132,1.148,3.376,0.214c1.155,0.353,2.421,0.553,3.825,0.524
	c1.235-0.024,2.719-0.156,4.322-0.353c-0.83-0.515-1.7-1.05-2.595-1.595c3.86-0.358,6.179,0.082,7.55,0.851
	c6.271-1.072,12.475-2.546,12.475-2.546C294.966,408.503,302.377,415.283,302.377,415.283z"/>
<path d="M194.585,3.999c-2.468-2.028-3.374-4.639-3.086-7.066c0,0,6.724-14.811,2.748-21.437c-0.547-0.915-1.126-1.739-1.71-2.49
	c-2.14,2.754-4.646,5.147-6.704,6.782c-2.317,1.844-5.767,4.537-9.412,6.398c-0.37,0.671-0.728,1.346-1.044,2.046
	c-2.121,4.674-3.195,10.007-3.338,15.128c-0.153,5.56,0.702,10.623,2.257,15.933c0.495,1.691,1.284,3.487,1.936,5.321
	c0.87,0.183,1.573,0.335,1.864,0.417c1.246,0.322,3.307,0.686,6.311,0.686c0,0,5.491-0.375,4.5-5.436c0,0-2.39-2.306,0.991-2.462
	c0,0,2.087-1.918,0.303-2.922c0,0,2.939-1.685,2.16-2.916c-0.99-1.58-0.457-2.386,0.297-2.833
	C196.646,6.756,197.12,6.066,194.585,3.999z"/>
<path d="M192.371-3.165"/>
<path d="M368.214,423.294c0,0-8.247-26.918,25.735-22.594c34.002,4.321,29.88,0.194,34.002-1.177l22.597,6.287
	c0,0,2.746,14.741-2.363,17.099c0,0,21.634,6.137,20.05,10.415c0,0,1.181,3.147-17.488-0.985c0,0,16.243,13.182,13.358,15.321
	c0,0-1.912,4.429-15.92-5.495c0,0-17.673-5.997-23.971-8.841c0,0-14.543-8.062-31.046-3.935c0,0-1.967,16.113-14.729,14.144
	c0,0-6.685,0.597-7.675-8.447c0,0-9.227,15.129-19.845,11.988c0,0-2.358-1.766,1.974-5.504c4.313-3.732,12.379-8.449,13.75-12.76
	c0,0-19.062,9.424-27.906,3.528c0,0,0-2.756,4.719-2.949c4.716-0.196,18.866-7.068,22.208-10.015c0,0,1.964,0,1.367,3.335
	C366.432,426.046,368.214,423.294,368.214,423.294z"/>
<path d="M431.271,397.795c0,0-1.146-4.727-0.188-6.59c0,0,1.398-7.387,4.678-9.685c0,0-7.35-6.766-5.513-13.634
	c0,0,5.829,6.463,13.68,8.51c7.841,2.06,7.509-0.665,9.719,1.382c2.209,2.041,5.843,6.867,14.762,6.374
	c0,0-0.284,11.566-12.219,10.082c-11.935-1.495-5.769-0.822-5.769-0.822s-7.366,5.61-1.611,9.188"/>
<g>
	<g>
		<polygon fill="#231F20" points="429.049,398.25 290.771,222.293 291.439,220.895 429.767,396.836 		"/>
	</g>
</g>
<path d="M78.239,345.948c0.035-0.058,0.07-0.112,0.104-0.174l45.135-64.751l68.936-85.484"/>
<path d="M159.455,44.139c-0.626-0.127-1.25-0.271-1.875-0.426c-7.27-1.664-14.389-4.167-20.908-7.5
	c-3.379,3.938-6.972,10.112-10.619,19.562c0,0-12.368,20.718-19.681,31.318c0,0-30.953,38.326-30.77,44.907L96.5,120.482
	c0,0,45.455-39.604,55.206-52.767c6.56-8.856,9.716-16.545,9.025-23.324C160.304,44.309,159.878,44.227,159.455,44.139z"/>
<path fill="#E45A80" d="M198.195,158.969c-8.335-32.635-0.498-62.454-0.498-62.454c10.271-6.958,3.808-16.733,3.808-16.733
	c-2.411-4.209-16.764-18.744-21.497-23.491c-0.137-0.108-0.272-0.213-0.407-0.323c-0.022-0.005-0.043-0.008-0.068-0.017
	c8.761,10.035,7.23,13.726,7.23,13.726c-18.475,2.916-29.177-17.622-29.64-18.523c0.363,0.896,7.202,18.044,4.458,24.818
	c-2.816,6.958-20.375,2.98-20.375,2.98c0.247,8.864,8.696,21.784,8.696,21.784c6.709,9.859-8.696,55.749-8.696,55.749
	c-32.525,31.695-82.779,120.272-82.779,120.272c146.889,12.257,191.734-15.906,191.734-15.906
	C207.749,217.998,198.195,158.969,198.195,158.969z"/>
<path fill="#FFFFFF" d="M250.866,260.155c-41.686-42.126-51.596-100.758-51.689-101.345l-0.02-0.088
	c-7.691-30.114-1.414-58.164-0.585-61.605c10.506-7.41,3.836-17.781,3.797-17.831c-2.416-4.214-15.95-17.976-21.657-23.696
	l-0.087-0.078c-0.134-0.105-0.266-0.211-0.395-0.316l-1.004-1.092l-5.907-8.081c-0.028-0.001-0.053-0.001-0.078-0.004l3.21,7.586
	c6.297,7.213,9.387,13.935,9.425,15.189c-0.897,0.114-1.794,0.17-2.678,0.17c-15.611,0-24.808-17.522-25.192-18.268l-3.409-7.334
	c0.071,0.175,8.697,25.731,6.064,32.234c-1.169,2.887-5.741,3.492-9.371,3.492c-4.915,0-9.317-1.258-9.366-1.269l-0.717,1.131
	l-0.967,1.272c0.253,9.039,8.481,20.521,8.841,21.073c5.244,7.704-4.46,41.83-8.742,54.643
	c-32.257,31.575-82.275,119.44-82.776,120.326l-0.768,1.353l1.548,0.13c24.6,2.052,47.948,3.095,69.396,3.095
	c0.005,0,0.005,0,0.01,0c91.407,0,121.694-18.368,122.939-19.148l1.048-0.661L250.866,260.155z M127.74,278.854
	c-20.941-0.004-43.703-0.996-67.675-2.96c6.474-11.271,51.971-89.594,81.834-118.7l0.17-0.167l0.079-0.229
	c0.636-1.893,15.483-46.473,8.587-56.606c-0.08-0.119-7.521-11.593-8.449-20.007c1.84,0.339,5.375,0.89,9.003,0.89
	c6.169,0,9.942-1.591,11.212-4.733c1.723-4.247-0.006-12.053-1.791-17.928c4.439,5.604,12.041,12.537,22.486,12.537
	c1.226,0,2.478-0.099,3.72-0.296l0.549-0.086l0.216-0.515c0.111-0.27,0.661-1.941-1.034-5.587
	c5.724,5.918,12.467,13.137,14.029,15.86c0.24,0.367,5.774,9.053-3.54,15.362l-0.306,0.209l-0.096,0.361
	c-0.078,0.299-7.802,30.419,0.484,62.912c0.331,1.948,10.441,59.44,51.314,101.441C242.337,263.841,209.104,278.854,127.74,278.854z
	"/>
<g>
	<path d="M75.566,131.945c0.183,6.581,36.376,1.646,77.323,6.215c0,0,9.505,10.846,16.27,13.404l3.194,1.771
		c-1.294-0.635-4.167-1.686-8.009-0.98c0,0-1.279,0.792,3.412,2.561c4.692,1.766,9.323,5.361,7.74-3.048l-0.916-1.704
		c0,0,3.718,5.665,7.985,4.203c4.264-1.462,0.12-0.242,0.12-0.242s3.168-1.161-1.402-5.181c0,0,3.474,3.17,5.119,1.036
		c1.646-2.132-0.548-3.594-2.438-5.544c-1.89-1.952-8.164-11.517-20.839-12.675c-12.674-1.158-46.185-14.378-66.658-11.333"/>
</g>
<path fill="#E45A80" d="M132.606,254.426l-75.962-5.075l19.329-102.298l18.819,3.052c0.644-4.077,7.237-31.892,16.229-34.206
	c1.915-0.491,3.484-0.382,4.667,0.339c1.297,0.792,1.607,2.173,1.625,2.302l-1.66,0.043c-0.052-0.204-0.701-1.882-4.193-0.979
	c-6.761,1.731-9.994,24.348-11.367,33.052l22.309-0.331l-3.159-16.878l1.672-0.694l4.468,18.345l11.632,2.983L132.606,254.426z"/>
<path fill="#FFFFFF" d="M134.218,255.267l-1.014-0.067l-77.083-5.152l19.718-104.353l18.837,3.057
	c1.17-5.426,7.333-31.61,16.762-34.036c2.189-0.558,4.247-0.692,5.428,0.451c1.396,1.35,2.273,2.605,2.347,3.133l1.036,3.435
	l-3.617-0.552l-1.279-2.571l0,0c-0.002,0-0.232-0.499-1.39-0.499c-0.456,0-0.992,0.079-1.59,0.234
	c-5.832,1.489-9.18,22.937-10.44,31.008l-0.012,0.07l19.951-0.296l-3.09-16.513l3.49-1.447l4.601,18.895l11.836,3.035
	L134.218,255.267z M58.491,248.215l73.829,4.933l4.33-98.523l-11.21-2.034l-3.881-15.94l2.168,15.83l-24.137-1.03l0.377-2.4
	c1.933-12.383,4.27-24.183,8.119-29.628c-6.099,7.158-10.831,25.428-11.649,30.619l-0.156,0.986l-18.848-3.06L58.491,248.215z"/>
<path fill="#74C495" d="M173.97,257.244l-87.571,11.537l10.093-110.636l15.475,0.243c0.742-4.677,8.573-37.396,18.899-40.054
	c2.189-0.569,3.995-0.437,5.359,0.395c1.48,0.897,1.845,2.483,1.871,2.639l-1.918,0.043c-0.058-0.234-0.802-2.156-4.821-1.128
	c-7.75,1.999-13.457,27.861-15.036,37.862h28.226l-4.541-21.127l2.279,0.208l6.128,20.667l12.312,0.252L173.97,257.244z"/>
<path fill="#FFFFFF" d="M85.295,269.932l10.291-112.794l15.552,0.243c1.343-6.903,9.017-37.318,19.479-40.008
	c2.453-0.636,4.537-0.46,6.125,0.508c1.952,1.18,2.802,3.377,2.806,3.398l1.658,5.467l-4.005-1.047l-1.991-4.057
	c0,0.003,0,0.003,0,0.003c-0.004,0-0.278-0.67-1.744-0.67c-0.538,0-1.166,0.091-1.865,0.27
	c-6.232,1.611-11.851,22.393-14.113,35.907h25.825l-4.676-20.134l4.598,0.249l5.922,19.645l12.44,0.259l13.489,100.931
	L85.295,269.932z M97.396,159.152L87.5,267.634l85.354-11.243l-13.002-97.27l-12.186-0.251l-6.492-21.819l-0.153,0.07l4.754,22.019
	h-30.619l0.182-1.15c0.232-1.473,5.817-36.101,15.77-38.67c0.938-0.241,1.796-0.353,2.54-0.329
	c-0.754-0.038-1.604,0.064-2.534,0.304c-9.203,2.37-17.155,32.886-18.166,39.249l-0.137,0.854L97.396,159.152z"/>
<path fill="#E45A80" stroke="#FFFFFF" stroke-width="2" stroke-miterlimit="10" d="M275.759,394.103c0,0,7.993,23.086,25.397,18.469
	l14.382,23.798c0,0,15.981-2.132,18.47,10.831l-22.731,4.086c0,0-11.544,3.196-19.18-20.427c0,0-5.684-8.876-6.567,2.667
	c-0.89,11.545,0.53,21.665,0.53,21.665l-2.663,0.53l-7.281-30.721C276.115,425.001,261.909,414.524,275.759,394.103z"/>
<path d="M17.915,400.178c-2.909,2.577-4.425,3.873-2.647,2.121C16.205,401.376,17.088,400.673,17.915,400.178z"/>
<path fill="#E45A80" stroke="#FFFFFF" stroke-width="2" stroke-miterlimit="10" d="M30.541,387.474c0,0-7.087,22.674,9.19,29.118
	l-2.497,26.922c0,0,13.733,7.568,8.184,19.146l-20.136-9.938c0,0-11.979-3.501-4.307-26.386c0,0,1.154-8.378-5.572-2.383
	c-7.562,6.736-11.735,17.691-11.735,17.691l-2.757-1.56l12.055-28.236C12.965,411.848,7.908,395.444,30.541,387.474z"/>
</svg>
