<?xml version="1.0" encoding="utf-8"?>
<!-- Generator: Adobe Illustrator 15.1.0, SVG Export Plug-In . SVG Version: 6.00 Build 0)  -->
<!DOCTYPE svg PUBLIC "-//W3C//DTD SVG 1.1//EN" "http://www.w3.org/Graphics/SVG/1.1/DTD/svg11.dtd">
<svg version="1.1" id="Layer_1" xmlns="http://www.w3.org/2000/svg" xmlns:xlink="http://www.w3.org/1999/xlink" x="0px" y="0px"
	 width="325px" height="143px" viewBox="0 0 325 143" enable-background="new 0 0 325 143" xml:space="preserve">
<g>
	<text transform="matrix(1 0 0 1 203.6953 129.1396)" font-family="'Selawik-Bold'" font-size="48.2652">Boca</text>
</g>
<g>
	<path fill="#74C596" d="M7.664,9.269v77.75h57.374V9.269H7.664z M48.194,67.66H26.411V24.933h20.83v3.635H30.375V44.24H45.99v3.575
		H30.375v16.239h17.82V67.66z"/>
	<polygon fill="#FFFFFF" points="30.375,47.815 45.99,47.815 45.99,44.24 30.375,44.24 30.375,28.568 47.241,28.568 47.241,24.933 
		26.411,24.933 26.411,67.66 48.194,67.66 48.194,64.054 30.375,64.054 	"/>
</g>
<g>
	<rect x="207.04" y="9.269" fill="#E55A81" width="57.37" height="77.751"/>
	<g>
		<path fill="#FFFFFF" d="M253.067,64.487c-4.391,2.462-9.041,3.694-13.943,3.694c-3.099,0-5.879-0.532-8.34-1.594
			c-2.466-1.063-4.564-2.542-6.291-4.439c-1.727-1.897-3.054-4.162-3.977-6.794c-0.922-2.63-1.384-5.527-1.384-8.685
			c0-2.085,0.22-4.093,0.669-6.019c0.445-1.926,1.103-3.735,1.968-5.422c0.863-1.689,1.921-3.219,3.172-4.59
			c1.25-1.37,2.687-2.551,4.307-3.545c1.617-0.993,3.396-1.757,5.344-2.294c1.947-0.537,4.043-0.804,6.287-0.804
			c4.231,0,8.009,0.754,11.324,2.265v4.379c-3.656-2.026-7.589-3.038-11.802-3.038c-2.596,0-4.954,0.476-7.058,1.43
			c-2.106,0.952-3.899,2.265-5.379,3.934c-1.479,1.667-2.627,3.639-3.443,5.914c-0.813,2.274-1.231,4.742-1.249,7.405
			c-0.021,2.642,0.322,5.08,1.029,7.315c0.706,2.234,1.751,4.166,3.143,5.795s3.107,2.9,5.154,3.813
			c2.047,0.915,4.411,1.371,7.093,1.371c3.613,0,6.754-0.754,9.418-2.264V49.292h-9.72v-3.606h13.678V64.487z"/>
	</g>
</g>
<text transform="matrix(1 0 0 1 64.8589 69.5376)" font-family="'Selawik-Semilight'" font-size="60.909">rrand</text>
<g>
	<text transform="matrix(1 0 0 1 266.5454 69.5386)" font-family="'Selawik-Semilight'" font-size="60.909">irl</text>
</g>
</svg>
