<?xml version="1.0" encoding="utf-8"?>
<!-- Generator: Adobe Illustrator 15.1.0, SVG Export Plug-In . SVG Version: 6.00 Build 0)  -->
<!DOCTYPE svg PUBLIC "-//W3C//DTD SVG 1.1//EN" "http://www.w3.org/Graphics/SVG/1.1/DTD/svg11.dtd">
<svg version="1.1" id="Layer_1" xmlns="http://www.w3.org/2000/svg" xmlns:xlink="http://www.w3.org/1999/xlink" x="0px" y="0px"
	 width="325px" height="143px" viewBox="0 0 325 143" enable-background="new 0 0 325 143" xml:space="preserve">
<g>
	<g enable-background="new    ">
		<path d="M207.561,129.116V95.321h13.244c2.059,0,3.896,0.306,5.516,0.919c1.617,0.612,2.887,1.5,3.805,2.663
			c0.92,1.163,1.379,2.545,1.379,4.147c0,1.933-0.616,3.603-1.85,5.008c-1.233,1.406-2.957,2.408-5.173,3.005v0.095
			c1.728,0.173,3.229,0.624,4.501,1.354c1.273,0.731,2.251,1.689,2.935,2.876c0.683,1.187,1.024,2.533,1.024,4.041
			c0,1.948-0.521,3.657-1.566,5.126c-1.045,1.47-2.471,2.601-4.277,3.394c-1.807,0.794-3.826,1.19-6.057,1.19L207.561,129.116z
			 M218.283,109.179c1.713,0,3.048-0.369,4.006-1.108c0.959-0.738,1.438-1.774,1.438-3.11c0-1.352-0.436-2.396-1.307-3.135
			c-0.873-0.738-2.094-1.107-3.666-1.107h-3.816v8.461H218.283z M219.627,123.743c1.76,0,3.126-0.416,4.1-1.249
			c0.975-0.833,1.462-2.012,1.462-3.535c0-1.462-0.558-2.593-1.673-3.394c-1.116-0.802-2.695-1.202-4.737-1.202h-3.817v9.38H219.627
			z"/>
		<path d="M242.533,128.244c-1.964-0.99-3.484-2.388-4.56-4.195c-1.077-1.807-1.614-3.896-1.614-6.269
			c0-2.419,0.537-4.549,1.614-6.387c1.075-1.838,2.596-3.26,4.56-4.266c1.965-1.005,4.234-1.508,6.811-1.508
			c2.625,0,4.93,0.503,6.918,1.508c1.986,1.006,3.515,2.428,4.584,4.266c1.068,1.838,1.594,3.968,1.578,6.387
			c0,2.389-0.541,4.481-1.626,6.28c-1.084,1.8-2.612,3.193-4.583,4.184c-1.973,0.99-4.263,1.484-6.871,1.484
			C246.768,129.729,244.498,129.234,242.533,128.244z M252.385,122.918c0.848-0.486,1.516-1.174,2.003-2.063
			c0.487-0.887,0.738-1.912,0.755-3.075c-0.032-1.162-0.291-2.188-0.778-3.075s-1.155-1.571-2.003-2.051
			c-0.849-0.479-1.823-0.719-2.922-0.719c-1.148,0-2.161,0.244-3.041,0.73c-0.88,0.487-1.559,1.175-2.039,2.063
			c-0.479,0.888-0.719,1.921-0.719,3.099c0,1.163,0.24,2.185,0.719,3.064c0.48,0.88,1.159,1.559,2.039,2.038
			s1.893,0.719,3.041,0.719C250.555,123.648,251.536,123.405,252.385,122.918z"/>
		<path d="M271.262,128.244c-1.744-0.958-3.076-2.337-3.994-4.136c-0.92-1.799-1.379-3.932-1.379-6.398
			c0-2.451,0.467-4.588,1.402-6.41c0.934-1.823,2.301-3.229,4.101-4.219c1.799-0.99,3.955-1.477,6.469-1.461
			c1.509-0.016,2.989,0.098,4.442,0.342c1.453,0.243,2.683,0.569,3.688,0.978l-1.179,5.798c-1.618-0.55-3.283-0.825-4.996-0.825
			c-2.23,0-3.846,0.476-4.843,1.426c-0.998,0.951-1.497,2.368-1.497,4.254c0,2.012,0.52,3.504,1.557,4.478
			c1.036,0.975,2.537,1.461,4.5,1.461c0.833,0,1.58-0.07,2.239-0.212c0.66-0.142,1.532-0.377,2.616-0.707l1.674,5.703
			c-1.399,0.425-2.845,0.759-4.337,1.002c-1.493,0.243-2.892,0.365-4.194,0.365C275.096,129.682,273.006,129.202,271.262,128.244z"
			/>
		<path d="M305.505,130.059c-0.739-1.634-1.272-3.213-1.603-4.736c-0.299,0.785-0.801,1.512-1.508,2.18s-1.521,1.198-2.439,1.591
			c-0.92,0.393-1.851,0.589-2.793,0.589c-1.635,0-3.092-0.244-4.371-0.73c-1.281-0.487-2.295-1.241-3.041-2.263
			c-0.746-1.021-1.119-2.294-1.119-3.817c0-1.634,0.408-3.048,1.226-4.242c0.816-1.194,1.983-2.109,3.499-2.746
			c1.517-0.636,3.296-0.954,5.338-0.954c1.604,0,3.197,0.361,4.785,1.084v-1.107c0-1.226-0.342-2.121-1.025-2.687
			s-1.693-0.849-3.029-0.849c-0.832,0-2.03,0.095-3.594,0.283c-1.563,0.188-3.013,0.439-4.348,0.754l-0.66-5.751
			c2.42-0.392,4.285-0.671,5.598-0.836c1.312-0.165,2.416-0.248,3.311-0.248c3.551,0,6.246,0.755,8.084,2.263
			c1.838,1.509,2.766,3.756,2.781,6.74l0.047,6.787c0.016,2.325,0.542,4.698,1.578,7.117L305.505,130.059z M301.133,123.92
			c0.699-0.338,1.253-0.798,1.662-1.379c0.408-0.581,0.636-1.21,0.684-1.886c-1.305-0.267-2.703-0.4-4.195-0.4
			c-1.146,0-2.047,0.212-2.699,0.637c-0.651,0.424-0.97,1.013-0.953,1.768c0,0.518,0.29,0.942,0.871,1.272s1.328,0.494,2.239,0.494
			C299.637,124.426,300.434,124.258,301.133,123.92z"/>
	</g>
</g>
<g>
	<path fill="#74C596" d="M7.664,9.269v77.75h57.374V9.269H7.664z M48.194,67.66H26.411V24.933h20.83v3.635H30.375V44.24H45.99v3.575
		H30.375v16.239h17.82L48.194,67.66L48.194,67.66z"/>
	<polygon fill="#FFFFFF" points="30.375,47.815 45.99,47.815 45.99,44.24 30.375,44.24 30.375,28.568 47.241,28.568 47.241,24.933 
		26.411,24.933 26.411,67.66 48.194,67.66 48.194,64.054 30.375,64.054 	"/>
</g>
<g>
	<rect x="207.04" y="9.269" fill="#E55A81" width="57.37" height="77.75"/>
	<g>
		<path fill="#FFFFFF" d="M253.066,64.487c-4.391,2.462-9.041,3.694-13.942,3.694c-3.099,0-5.879-0.532-8.34-1.594
			c-2.466-1.063-4.563-2.542-6.291-4.439s-3.054-4.162-3.978-6.794c-0.922-2.63-1.384-5.527-1.384-8.685
			c0-2.085,0.22-4.093,0.669-6.019c0.445-1.926,1.104-3.735,1.969-5.422c0.862-1.689,1.92-3.219,3.172-4.59
			c1.25-1.37,2.687-2.551,4.307-3.545c1.617-0.993,3.396-1.757,5.344-2.294c1.947-0.537,4.043-0.804,6.287-0.804
			c4.23,0,8.01,0.754,11.324,2.265v4.379c-3.656-2.026-7.589-3.038-11.803-3.038c-2.596,0-4.953,0.476-7.058,1.43
			c-2.106,0.952-3.899,2.265-5.379,3.934c-1.479,1.667-2.627,3.639-3.442,5.914c-0.813,2.274-1.231,4.742-1.25,7.405
			c-0.021,2.642,0.322,5.08,1.029,7.315c0.706,2.234,1.752,4.166,3.143,5.795c1.393,1.629,3.107,2.9,5.154,3.813
			c2.047,0.915,4.412,1.371,7.094,1.371c3.613,0,6.754-0.754,9.418-2.264V49.292h-9.721v-3.606h13.678V64.487L253.066,64.487z"/>
	</g>
</g>
<g enable-background="new    ">
	<path d="M77.008,40.853c1.438-0.685,3.019-1.026,4.744-1.026c0.873,0,1.774,0.089,2.707,0.268l-0.654,3.747
		c-0.535-0.06-1.071-0.089-1.606-0.089c-1.745,0-3.341,0.332-4.788,0.996c-1.448,0.665-2.707,1.641-3.777,2.93v21.859h-3.836V40.569
		h2.795l0.654,3.302C74.316,42.543,75.57,41.536,77.008,40.853z"/>
	<path d="M97.648,40.853c1.438-0.685,3.019-1.026,4.744-1.026c0.873,0,1.774,0.089,2.707,0.268l-0.654,3.747
		c-0.535-0.06-1.071-0.089-1.606-0.089c-1.745,0-3.341,0.332-4.788,0.996c-1.448,0.665-2.707,1.641-3.777,2.93v21.859h-3.836V40.569
		h2.795l0.654,3.302C94.957,42.543,96.21,41.536,97.648,40.853z"/>
	<path d="M131.716,70.697c-1.091-2.122-1.884-4.174-2.379-6.156c-0.357,1.07-1.026,2.037-2.007,2.899s-2.171,1.542-3.569,2.037
		c-1.398,0.495-2.9,0.743-4.506,0.743c-3.152,0-5.661-0.729-7.524-2.186c-1.864-1.457-2.796-3.573-2.796-6.35
		c0-2.935,1.006-5.199,3.019-6.796c2.012-1.596,4.793-2.394,8.342-2.394c2.974,0,5.779,0.843,8.417,2.527v-3.45
		c0-5.353-2.449-8.029-7.346-8.029c-0.873,0-2.117,0.074-3.732,0.223c-1.616,0.148-3.118,0.342-4.505,0.58l-0.536-3.777
		c2.419-0.277,4.317-0.476,5.695-0.595s2.533-0.178,3.465-0.178c3.47,0,6.097,0.951,7.881,2.854
		c1.785,1.903,2.687,4.739,2.707,8.506l0.06,8.268c0.02,3.113,0.932,6.306,2.736,9.577L131.716,70.697z M124.519,65.641
		c1.289-0.654,2.31-1.565,3.063-2.735s1.13-2.519,1.13-4.045v-0.298c-1.051-0.773-2.266-1.378-3.643-1.813
		c-1.378-0.437-2.821-0.654-4.328-0.654c-2.458,0-4.372,0.461-5.74,1.383s-2.052,2.265-2.052,4.029c0,1.587,0.654,2.836,1.963,3.748
		s3.093,1.367,5.354,1.367C121.813,66.622,123.23,66.295,124.519,65.641z"/>
	<path d="M161.145,41.283c1.616,0.992,2.82,2.36,3.613,4.104c0.793,1.745,1.189,3.747,1.189,6.008v18.142h-3.836V52.764
		c0-2.756-0.541-5.001-1.621-6.736c-1.081-1.735-2.86-2.612-5.339-2.633c-1.903,0.021-3.688,0.422-5.353,1.205
		s-3.113,1.849-4.342,3.197l-0.03,21.74h-3.836l0.06-28.968h2.707l0.952,3.391c2.418-2.775,5.71-4.163,9.874-4.163
		C157.541,39.797,159.528,40.292,161.145,41.283z"/>
	<path d="M199.644,70.697c-1.229-2.201-2.093-4.303-2.587-6.306c-0.794,1.903-2.107,3.352-3.941,4.343s-4.148,1.486-6.944,1.486
		c-2.677,0-5.001-0.59-6.974-1.77c-1.974-1.179-3.49-2.864-4.551-5.056c-1.061-2.19-1.592-4.773-1.592-7.747
		c0-3.252,0.59-6.067,1.77-8.446c1.18-2.38,2.881-4.209,5.102-5.487c2.221-1.279,4.838-1.918,7.852-1.918
		c2.974,0,5.878,1.159,8.714,3.479V24.421h3.837v35.302c0.02,2.915,0.881,5.908,2.587,8.981L199.644,70.697z M192.253,65.389
		c1.378-0.804,2.429-1.953,3.152-3.45s1.086-3.257,1.086-5.279v-9.814c-1.229-1.17-2.587-2.047-4.075-2.632
		c-1.486-0.585-2.904-0.877-4.252-0.877c-2.301,0-4.278,0.476-5.934,1.427c-1.656,0.952-2.925,2.325-3.807,4.119
		c-0.883,1.795-1.324,3.941-1.324,6.439c0,2.141,0.382,4.06,1.146,5.755c0.763,1.695,1.919,3.038,3.465,4.029
		c1.546,0.992,3.43,1.487,5.651,1.487C189.244,66.593,190.875,66.191,192.253,65.389z"/>
</g>
<g>
	<g enable-background="new    ">
		<path d="M271.482,30.549c-0.516-0.516-0.773-1.16-0.773-1.933c0-0.773,0.258-1.418,0.773-1.934s1.16-0.773,1.934-0.773
			s1.417,0.258,1.933,0.773s0.773,1.16,0.773,1.934c0,0.772-0.258,1.417-0.773,1.933s-1.159,0.773-1.933,0.773
			S271.998,31.064,271.482,30.549z M271.453,40.571h3.836v28.968h-3.836V40.571z"/>
		<path d="M292.315,40.854c1.438-0.685,3.019-1.026,4.743-1.026c0.873,0,1.775,0.089,2.707,0.268l-0.654,3.747
			c-0.535-0.06-1.07-0.089-1.605-0.089c-1.746,0-3.342,0.332-4.789,0.996c-1.447,0.665-2.706,1.641-3.777,2.93v21.859h-3.836V40.571
			h2.795l0.654,3.302C289.624,42.545,290.878,41.538,292.315,40.854z"/>
		<path d="M305.714,24.452h3.807v45.087h-3.807V24.452z"/>
	</g>
</g>
</svg>
