<?xml version="1.0" encoding="utf-8"?>
<!-- Generator: Adobe Illustrator 15.1.0, SVG Export Plug-In . SVG Version: 6.00 Build 0)  -->
<!DOCTYPE svg PUBLIC "-//W3C//DTD SVG 1.1//EN" "http://www.w3.org/Graphics/SVG/1.1/DTD/svg11.dtd">
<svg version="1.1" id="Layer_1" xmlns="http://www.w3.org/2000/svg" xmlns:xlink="http://www.w3.org/1999/xlink" x="0px" y="0px"
	 width="52px" height="89.354px" viewBox="0 0 52 89.354" enable-background="new 0 0 52 89.354" xml:space="preserve">
<g>
	<g>
		<path fill="#4A494A" d="M8.266,6.478c12.099,0,24.2,0,36.294,0c4.896,0.781,4.478,5.242,4.478,11.309c0,18.474,0,36.589,0,55.189
			c0,5.831,0.455,10.556-4.478,11.309c-12.098,0-24.195,0-36.294,0c-5.084-0.982-4.474-5.55-4.474-11.684c0-18.17,0-36.595,0-54.442
			C3.792,11.875,3.294,7.33,8.266,6.478z M27.159,10.205c-2.295,0-5.121-0.094-6.586,0.124c-0.301,0.07-0.276,0.471-0.372,0.747
			c1.348,0.867,4.003,0.496,6.339,0.496c1.06,0,2.287,0,3.354,0c1.01,0,2.525,0.371,2.735-0.744
			C31.564,9.755,29.23,10.205,27.159,10.205z M7.396,15.177c0,19.763,0,39.526,0,59.289c12.389,0.291,25.314,0.043,37.913,0.124
			c0.207-19.639,0.207-40.146,0-59.788c-12.555,0-25.107,0-37.662,0C7.489,14.855,7.393,14.963,7.396,15.177z M23.804,78.568
			c-0.679,4.867,6.543,3.227,5.096-0.619c-0.416-1.109-1.801-1.729-3.231-1.369C24.333,76.914,23.912,77.793,23.804,78.568z"/>
	</g>
</g>
</svg>
