<?xml version="1.0" encoding="utf-8"?>
<!-- Generator: Adobe Illustrator 15.1.0, SVG Export Plug-In . SVG Version: 6.00 Build 0)  -->
<!DOCTYPE svg PUBLIC "-//W3C//DTD SVG 1.1//EN" "http://www.w3.org/Graphics/SVG/1.1/DTD/svg11.dtd">
<svg version="1.1" id="Layer_1" xmlns="http://www.w3.org/2000/svg" xmlns:xlink="http://www.w3.org/1999/xlink" x="0px" y="0px"
	 width="158.655px" height="153.676px" viewBox="57.827 39.869 158.655 153.676"
	 enable-background="new 57.827 39.869 158.655 153.676" xml:space="preserve">
<g id="Layer_1_1_" display="none">
	<g display="inline">
		<g>
			<path fill="#E55A81" d="M250.207,238.411c0,5.5-4.5,10-10,10H18.843c-5.5,0-10-4.5-10-10V17.044c0-5.5,4.5-10,10-10h221.364
				c5.5,0,10,4.5,10,10V238.411z"/>
		</g>
		<rect x="70.602" y="67.104" fill="#F392B0" width="119.789" height="138.393"/>
		<rect x="132.711" y="67.393" fill="#F3B2CD" width="57.68" height="137.378"/>
		<polygon fill="#F3B2CD" points="190.391,205.484 70.457,205.484 132.719,174.402 		"/>
		<path fill="#FBD9E7" d="M107.561,80.619c0,2.41-1.956,4.362-4.361,4.362c-2.408,0-4.36-1.952-4.36-4.362
			c0-2.402,1.952-4.359,4.36-4.359C105.604,76.26,107.561,78.217,107.561,80.619z"/>
		<path fill="#FBD9E7" d="M162.363,80.914c0,2.405-1.951,4.361-4.361,4.361c-2.411,0-4.361-1.956-4.361-4.361
			c0-2.408,1.95-4.36,4.361-4.36C160.412,76.554,162.363,78.506,162.363,80.914z"/>
		<g>
			<path fill="#FBD9E7" d="M155.326,88.799c0,9.62-6.047,34.891-13.477,34.891h-21.574c-6.932,0-13.092-24.126-13.83-34.891
				c-0.142-0.395,0.076,1.038,0,0h-5.039c0,13.465,8.465,41.869,18.869,41.869h21.574c10.4,0,18.871-28.404,18.871-41.869H155.326z"
				/>
		</g>
	</g>
</g>
<g id="Layer_3" display="none">
	<g display="inline">
		<g>
			<path fill="#E55A81" d="M250.208,238.411c0,5.5-4.5,10-10,10H18.843c-5.5,0-10-4.5-10-10V17.044c0-5.5,4.5-10,10-10h221.365
				c5.5,0,10,4.5,10,10V238.411L250.208,238.411z"/>
		</g>
		<g>
			<g>
				<path fill="#FBDCE6" d="M199.529,21.312c-2.822,2.342-4.672,6.329-5.029,10.649l5.26,4.841
					c-0.701-4.14,0.801-8.725,3.518-10.982c3.767-3.127,10.041-1.808,13.992,2.944c3.948,4.755,4.097,11.167,0.33,14.293
					c-2.121,1.763-5.5,2.538-8.758,2.104l5.748,5.284c2.594-0.404,4.963-1.383,6.758-2.873c5.735-4.771,5.51-14.533-0.502-21.777
					C214.827,18.559,205.266,16.545,199.529,21.312z"/>
			</g>
			<path fill="#FFFFFF" d="M203.244,85.509l-20.251,16.825c-1.479,1.231-3.774,0.92-5.115-0.701l-6.524-10.127L162.837,78.3
				l-11.063-17.174c-1.344-1.619-1.231-3.929,0.246-5.159l15.783-13.116"/>
			<path fill="#FBDCE6" d="M203.098,85.634l20.254-16.828c1.479-1.229,1.588-3.541,0.244-5.159l-8.756-8.269l-11.427-10.791
				l-14.856-14.021c-1.347-1.62-3.637-1.934-5.117-0.703l-15.782,13.115"/>
			<polygon fill="#FFFFFF" points="130.102,85.511 157.096,75.804 164.641,87.851 133.45,92.573 			"/>
			<polyline fill="#FFFFFF" points="117.808,84.736 125.998,102.785 130.62,93.259 127.332,86.251 			"/>
		</g>
		<rect x="78.591" y="159.959" fill="#FFFFFF" width="4.367" height="67.729"/>
		<path fill="#F7B6D0" d="M85.138,191.148c0,0,15.999-23.088,40.179-3.092C125.316,188.057,100.043,192.419,85.138,191.148z"/>
		<path fill="#FBDCE6" d="M75.503,190.968c0,0-15.999-23.091-40.179-3.095C35.324,187.873,60.598,192.232,75.503,190.968z"/>
		<path fill="#F7B6D0" d="M85.483,169.609c0,0,8.736-12.61,21.943-1.688C107.427,167.923,93.624,170.307,85.483,169.609z"/>
		<path fill="#FBDCE6" d="M76.616,169.316c0,0-8.741-12.616-21.95-1.689C54.666,167.627,68.469,170.01,76.616,169.316z"/>
		<path fill="#FFFFFF" d="M96.218,123.763c0,8.744-7.086,15.828-15.828,15.828c-8.738,0-15.822-7.084-15.822-15.828
			c0-8.739,7.084-15.82,15.822-15.82C89.132,107.942,96.218,115.023,96.218,123.763z"/>
		<path fill="#FBDCE6" d="M99.231,120.202l2.543,4.026l12.149-0.128C113.924,124.101,108.652,114.332,99.231,120.202z"/>
		<path fill="#F7B6D0" d="M99.308,128.305l2.459-4.076l12.152-0.118C113.919,124.11,108.846,133.986,99.308,128.305z"/>
		<path fill="#FBDCE6" d="M95.083,111.276l3.847,2.801l11.24-4.603C110.17,109.475,101.669,102.334,95.083,111.276z"/>
		<path fill="#F7B6D0" d="M98.138,118.775l0.787-4.696l11.245-4.595C110.17,109.484,109.106,120.54,98.138,118.775z"/>
		<path fill="#FBDCE6" d="M86.683,105.701l4.749,0.302l7.027-9.904C98.459,96.099,87.452,94.628,86.683,105.701z"/>
		<path fill="#F7B6D0" d="M93.278,110.396l-1.852-4.387l7.037-9.903C98.464,96.106,103.483,106.013,93.278,110.396z"/>
		<path fill="#FBDCE6" d="M76.15,105.124l4.107-2.402l0.289-12.143C80.547,90.579,70.597,95.508,76.15,105.124z"/>
		<path fill="#F7B6D0" d="M84.242,105.331l-3.989-2.602l0.307-12.146C80.56,90.584,90.257,95.993,84.242,105.331z"/>
		<path fill="#FBDCE6" d="M85.721,142.143l-4.021,2.539l0.125,12.146C81.825,156.828,91.601,151.563,85.721,142.143z"/>
		<path fill="#F7B6D0" d="M77.622,142.212l4.08,2.461l0.115,12.152C81.817,156.825,71.938,151.75,77.622,142.212z"/>
		<path fill="#FBDCE6" d="M95.179,137.283l-2.801,3.85l4.603,11.242C96.98,152.375,104.118,143.869,95.179,137.283z"/>
		<path fill="#F7B6D0" d="M87.681,140.341l4.697,0.784l4.591,11.25C96.969,152.375,85.917,151.307,87.681,140.341z"/>
		<path fill="#FBDCE6" d="M99.342,129.063l-0.304,4.748l9.913,7.027C108.951,140.839,110.423,129.834,99.342,129.063z"/>
		<path fill="#F7B6D0" d="M94.646,135.659l4.389-1.858l9.904,7.042C108.939,140.843,99.035,145.865,94.646,135.659z"/>
		<path fill="#FBDCE6" d="M62.589,129.188l-2.543-4.025l-12.147,0.128C47.898,125.288,53.165,135.063,62.589,129.188z"/>
		<path fill="#F7B6D0" d="M62.515,121.087l-2.461,4.073l-12.152,0.12C47.901,125.28,52.977,115.401,62.515,121.087z"/>
		<path fill="#FBDCE6" d="M67.588,137.663l-4.181-2.293l-10.556,6.013C52.852,141.383,62.204,147.37,67.588,137.663z"/>
		<path fill="#F7B6D0" d="M63.587,130.613l-0.172,4.757l-10.563,6.003C52.852,141.373,52.491,130.273,63.587,130.613z"/>
		<path fill="#FBDCE6" d="M75.67,142.809l-4.749-0.306l-7.03,9.911C63.891,152.414,74.893,153.883,75.67,142.809z"/>
		<path fill="#F7B6D0" d="M69.067,138.111l1.854,4.387l-7.037,9.9C63.884,152.398,58.869,142.498,69.067,138.111z"/>
		<path fill="#FBDCE6" d="M67.625,109.827l2.175-4.231l-6.289-10.399C63.511,95.196,57.772,104.705,67.625,109.827z"/>
		<path fill="#F7B6D0" d="M74.562,105.647l-4.759-0.045l-6.277-10.406C63.525,95.196,74.613,94.549,74.562,105.647z"/>
		<path fill="#FBDCE6" d="M62.274,118.954l0.305-4.752l-9.911-7.022C52.668,107.18,51.201,118.182,62.274,118.954z"/>
		<path fill="#F7B6D0" d="M66.97,112.354l-4.386,1.858l-9.906-7.042C52.678,107.17,62.584,102.15,66.97,112.354z"/>
	</g>
</g>
<g id="Layer_4" display="none">
	<g display="inline">
		<g>
			<path fill="#E55A81" d="M250.208,238.411c0,5.5-4.5,10-10,10H18.843c-5.5,0-10-4.5-10-10V17.044c0-5.5,4.5-10,10-10h221.365
				c5.5,0,10,4.5,10,10V238.411L250.208,238.411z"/>
		</g>
		<path fill="#FFFFFF" d="M168.32,161.423c-0.02-0.039-0.032-0.08-0.057-0.125h0.047C168.311,161.298,168.32,161.343,168.32,161.423
			z"/>
		<path fill="#FBD9E7" d="M135.225,209.302c-10.843,0-13.898-7.118-13.912-10.401h-0.035v-22.368h26.001v20.884l0,0
			C147.279,197.414,148.438,209.302,135.225,209.302z"/>
		<path fill="#F392B0" d="M134.546,177.03h12.569v20.882l0,0c0,0,1.152,11.893-12.055,11.893"/>
		<g>
			<path fill="#FFFFFF" d="M175.766,93.98v65.127c0,4.377-29.558,20.804-33.935,20.804l-14.859,0.332
				c-4.38,0-40.032-16.759-40.032-21.136V92.223c4.328-20.458,22.492-35.814,44.248-35.814
				C153.557,56.408,172.121,72.65,175.766,93.98z"/>
		</g>
		<path fill="#F392B0" d="M108.959,62.023c0,0-61.09,16.843-62.74,32.692c-1.652,15.85,40.618,37.977,48.871,17.172
			C103.349,91.082,118.867,80.188,108.959,62.023z"/>
		<path fill="#F392B0" d="M150.089,60.704c0,0,61.091,16.838,62.74,32.69c1.651,15.85-40.618,37.977-48.871,17.171
			C155.699,89.761,140.182,78.866,150.089,60.704z"/>
		<path fill="#F392B0" d="M120.365,111.888c0,2.822-2.287,5.117-5.117,5.117c-2.824,0-5.117-2.295-5.117-5.117
			c0-2.827,2.293-5.125,5.117-5.125C118.078,106.763,120.365,109.061,120.365,111.888z"/>
		<path fill="#F392B0" d="M154.055,111.888c0,2.822-2.296,5.117-5.123,5.117c-2.826,0-5.119-2.295-5.119-5.117
			c0-2.827,2.293-5.125,5.119-5.125C151.759,106.763,154.055,109.061,154.055,111.888z"/>
		<path fill="#F3B2CD" d="M134.229,183.155c0,0-32.583,9.444-31.013-25.439l0,0c0,0,17.132-38.979,29.56-39.953v-0.098
			c11.197,0.557,26.775,32.563,29.742,38.879c0.019,0.037,0.029,0.065,0.045,0.101c0.008,0,0.008,0,0.008,0.008
			c0.021,0.156,0.055,0.496,0.082,0.978C163.038,163.297,163.234,189.02,134.229,183.155z"/>
		<path fill="#F392B0" d="M121.358,158.115h25.759c0,0,0.988,11.888-12.219,11.888C121.692,170.003,120.035,159.439,121.358,158.115
			z"/>
	</g>
</g>
<g id="Layer_5" display="none">
	<g display="inline">
		<g>
			<path fill="#E55A81" d="M250.208,238.411c0,5.5-4.5,10-10,10H18.843c-5.5,0-10-4.5-10-10V17.044c0-5.5,4.5-10,10-10h221.365
				c5.5,0,10,4.5,10,10V238.411L250.208,238.411z"/>
		</g>
		<g>
			<polygon fill="#F392B0" points="86.871,102.845 172.764,102.845 172.764,98.028 83.806,98.028 83.806,128.289 172.764,128.289 
				172.764,123.476 86.871,123.476 			"/>
			<rect x="86.871" y="102.845" fill="#FBDCE6" width="81.802" height="20.631"/>
			<rect x="86.871" y="113.16" fill="#F8BBD1" width="81.802" height="10.315"/>
			<polygon fill="#F392B0" points="78.429,132.671 178.764,132.671 178.764,128.49 74.847,128.49 74.847,154.768 178.764,154.768 
				178.764,150.585 78.429,150.585 			"/>
			<rect x="78.429" y="132.671" fill="#FBDCE6" width="95.557" height="17.914"/>
			<rect x="78.429" y="141.628" fill="#F8BBD1" width="95.557" height="8.957"/>
			<polygon fill="#F392B0" points="92.165,158.945 192.499,158.945 192.499,154.768 88.583,154.768 88.583,181.044 192.499,181.044 
				192.499,176.864 92.165,176.864 			"/>
			<rect x="92.165" y="158.945" fill="#FBDCE6" width="95.558" height="17.919"/>
			<rect x="92.165" y="167.906" fill="#F8BBD1" width="95.558" height="8.958"/>
			<polygon fill="#F392B0" points="74.977,186.076 195.686,186.076 195.686,181.044 70.665,181.044 70.665,212.658 195.686,212.658 
				195.686,207.629 74.977,207.629 			"/>
			<rect x="74.977" y="186.076" fill="#FBDCE6" width="114.958" height="21.553"/>
			<rect x="74.977" y="196.854" fill="#F8BBD1" width="114.958" height="10.775"/>
			<polygon fill="#FFFFFF" points="94.538,113.569 112.073,113.53 112.073,136.014 103.347,127.288 94.455,136.184 			"/>
			<polygon fill="#FFFFFF" points="142.615,167.919 160.148,167.877 160.148,190.361 151.426,181.636 142.529,190.527 			"/>
			<g>
				<polygon fill="#FBDCE6" points="122.523,83.057 137.753,83.057 130.174,97.499 				"/>
				<path fill="#F8BBD1" d="M122.595,44.199v-7.537c0-1.04,0.745-1.884,1.667-1.884h11.824c0.922,0,1.667,0.844,1.667,1.884v7.537"
					/>
				<rect x="122.595" y="44.199" fill="#FFFFFF" width="15.09" height="6.907"/>
				<rect x="122.595" y="50.95" fill="#FBDCE6" width="7.951" height="32.183"/>
				<rect x="130.546" y="50.95" fill="#F8BBD1" width="7.187" height="32.106"/>
				<polygon fill="#F392B0" points="128.069,93.654 132.209,93.654 130.146,97.577 				"/>
			</g>
		</g>
	</g>
</g>
<g id="Layer_6">
</g>
<g>
	<path fill="#CA1D8B" d="M163.736,39.869h-54.837c-7.5,0-13.604,11.554-13.604,25.748h11.73c0-6.451,1.232-13.624,2.342-13.621
		h53.535c2.643,0.521,4.066,7.17,4.066,13.621h10.373C177.342,51.423,171.238,39.869,163.736,39.869z"/>
	<path fill="#CA1D8B" d="M100.858,110.839h9.262c1.065,0,1.931,0.866,1.931,1.932v5.695h51.818v-5.695
		c0-1.065,0.865-1.932,1.934-1.932h9.262c1.066,0,1.932,0.866,1.932,1.932v5.695h35.651c2.434,0,4.138-1.969,3.79-4.375
		l-5.646-39.15c-0.346-2.407-2.621-4.377-5.053-4.377H68.572c-2.433,0-4.706,1.97-5.054,4.377l-5.646,39.15
		c-0.347,2.406,1.358,4.375,3.792,4.375h37.261v-5.695C98.925,111.705,99.791,110.839,100.858,110.839z"/>
	<path fill="#CA1D8B" d="M175.064,133.924h-9.262c-1.068,0-1.934-0.867-1.934-1.932v-5.12h-51.818v5.12
		c0,1.064-0.865,1.932-1.931,1.932h-9.262c-1.067,0-1.934-0.867-1.934-1.932v-5.12H68.457c-2.433,0-4.547,1.986-4.697,4.412
		l-3.595,57.848c-0.151,2.427,1.714,4.413,4.147,4.413h144.879c2.434,0,4.3-1.986,4.148-4.413l-3.596-57.848
		c-0.15-2.426-2.264-4.412-4.697-4.412h-28.051v5.12C176.996,133.057,176.131,133.924,175.064,133.924z"/>
</g>
</svg>
