<?xml version="1.0" encoding="utf-8"?>
<!-- Generator: Adobe Illustrator 15.1.0, SVG Export Plug-In . SVG Version: 6.00 Build 0)  -->
<!DOCTYPE svg PUBLIC "-//W3C//DTD SVG 1.1//EN" "http://www.w3.org/Graphics/SVG/1.1/DTD/svg11.dtd">
<svg version="1.1" id="Layer_1" xmlns="http://www.w3.org/2000/svg" xmlns:xlink="http://www.w3.org/1999/xlink" x="0px" y="0px"
	 width="141px" height="163px" viewBox="0 0 141 163" enable-background="new 0 0 141 163" xml:space="preserve">
<g>
	<path d="M126.832,23.199c-7.404-7.027-16.821-10.756-27.132-13.104c-2.406-0.552-4.843-1.055-7.302-1.49
		c-3.183-0.764-6.396-1.298-9.592-1.565c-11.741-0.98-23.971,1.241-34.489,5.951c-9.418,4.216-17.001,10.625-22.684,18.454
		c-0.499,0.633-0.98,1.274-1.437,1.931c-1.407,1.991-2.595,4.081-3.636,6.231c-2.628,4.887-4.744,10.092-6.182,15.373
		c0.368,0.598,0.506,1.302,0.257,1.92c-0.371,0.909-0.824,1.785-1.319,2.642c-0.018,0.109-0.041,0.211-0.068,0.314
		c-0.256,0.815-0.522,1.626-0.78,2.437c1.522-0.969,2.946-2.146,4.104-2.947c2.546-1.77,5.161-3.462,7.716-5.223
		c2.778-1.911,5.33-4.01,7.898-6.134c2.342-1.93,4.384-4.144,6.782-6.005c0.057-0.042,0.14-0.005,0.122,0.062
		c-1.761,6.18-8.405,11.084-13.957,14.584c-3.102,1.953-6.234,3.921-9.568,5.543c-0.217,0.108-0.435,0.211-0.663,0.313
		c2.818-0.656,5.563-1.557,8.114-2.502c7.024-2.61,13.814-5.719,20.143-9.515c6.406-3.846,12.548-8.213,17.605-13.47
		c2.542-2.639,4.868-5.463,6.834-8.471c0.955-1.466,1.898-2.937,2.72-4.464c0.648-1.194,1.159-2.544,2.209-3.5
		c0.128-0.113,0.321-0.018,0.33,0.126c0.135,1.574-0.769,3.172-1.465,4.592c-0.847,1.733-1.786,3.415-2.889,5.025
		c-2.003,2.935-4.334,5.688-6.918,8.219c-5.335,5.214-11.546,9.641-18.343,13.207c-6.772,3.556-13.955,6.494-21.308,8.915
		c-2.361,0.779-4.902,1.51-7.503,2.049c-0.482,0.21-0.981,0.412-1.48,0.586c5.208,0.256,10.46,0.223,15.561-0.038
		c8.636-0.445,17.279-1.771,25.459-4.345c8.003-2.518,15.687-5.968,22.294-10.813c7.016-5.148,12.106-11.633,17.94-17.765
		c0.343-0.362,1.001,0.019,0.856,0.45c-2.693,8.021-9.463,14.842-16.704,19.921c-6.996,4.905-15.046,8.635-23.6,10.79
		c-8.732,2.196-17.771,3.129-26.823,3.19c-5.392,0.038-10.658-0.37-15.917-0.994c-0.014,0.07-0.037,0.141-0.066,0.211
		c-0.063,0.211-0.035,0.395,0.055,0.553c-0.094,0.132-0.188,0.263-0.281,0.389c19.565,6.373,40.708,5.275,60.437-0.753
		c1.912-0.586,3.808-1.215,5.682-1.881c1.191-0.625,2.596-1.082,3.586-1.446c2.851-1.058,5.601-2.301,8.324-3.574
		c2.81-1.318,5.614-2.62,8.407-3.954c0.083-0.042,0.165-0.084,0.251-0.127c1.557-0.835,3.096-1.693,4.621-2.578
		c4.784-2.787,9.464-5.768,13.919-8.976c3.288-2.365,6.379-4.934,9.547-7.416c0.953-0.999,2.006-1.917,3.078-2.816
		c0.636-0.713,1.29-1.415,1.95-2.11C130.288,27.056,128.818,25.088,126.832,23.199z"/>
	<path d="M89.774,64.694c-3.456,1.106-6.965,2.044-10.513,2.859c-0.265,0.988-0.508,1.981-0.705,2.989
		c-1.488,7.411-1.57,15.096-0.545,22.564c0.995,7.269,3.136,14.49,7.184,20.887c4.138,6.534,9.392,11.955,15.006,17.324
		c-7.447-9.952-12.229-21.028-13.229-33.068c-0.87-10.568-0.39-22.038,2.463-32.355C89.544,65.501,89.659,65.098,89.774,64.694z"/>
	<path d="M63.317,104.112c2.527,11.176,9.199,20.927,18.584,28.545c8.432,6.839,18.184,11.131,28.498,15.141
		c2.913,1.13,5.869,2.216,8.867,3.154c0.403-0.075,0.807-0.142,1.205-0.217c-0.22-0.125-0.44-0.248-0.668-0.378
		c-3.109-1.807-5.692-4.083-8.24-6.486c-2.14-2.018-4.225-4.173-6.159-6.426c-1.133-1.205-2.238-2.428-3.29-3.692
		c-7.767-4.588-14.223-11.644-18.925-18.708c-4.379-6.576-7.081-13.991-8.402-21.548c-1.382-7.89-1.423-15.975,0.167-23.851
		c0.077-0.412,0.168-0.819,0.263-1.228c-5.191,1.045-10.448,1.841-15.737,2.507c-4.767,0.603-9.51,1.128-14.256,1.446
		c-8.122,20.872-1.861,43.492,14.307,59.844c8.356,8.445,18.729,15.184,30.182,19.827c1.586,0.642,3.238,1.27,4.942,1.873
		c6.931-0.393,13.875-1.213,20.739-2.314c-1.648-0.538-3.228-1.095-4.694-1.615c-10.918-3.846-21.367-7.882-30.273-14.964
		c-9.984-7.952-17.699-18.226-19.712-30.267C58.75,93.05,60.876,81.42,65.538,70.42c0.013-0.027,0.062-0.02,0.055,0.009
		C62.388,81.196,60.822,93.077,63.317,104.112z"/>
	<path d="M40.708,138.696c-9.189-8.266-17.008-18.564-19.582-30.202c-2.44-11.042-1.479-23.106,2.326-33.805
		c0.325-0.915,0.669-1.833,1.044-2.751c-1.391-0.179-2.789-0.384-4.185-0.638c-2.376-0.436-4.716-0.979-7.033-1.583
		c-0.202,0.427-0.412,0.842-0.604,1.27C9.932,77.05,8.022,83.383,6.767,89.827c-0.454,2.341-0.842,4.692-1.19,7.051
		c0.055,3.429,0.366,6.771,0.917,9.865c0.071,0.389,0.156,0.775,0.236,1.158c0.806,2.688,1.878,5.309,3.288,7.802
		c7.006,12.333,18.715,23.167,32.389,29.625c4.712,2.226,9.563,3.963,14.522,5.292C51.096,147.128,45.638,143.129,40.708,138.696z"
		/>
	<path d="M41.448,72.577C37.221,72.744,33,72.711,28.77,72.384c-7.247,16.923-7.405,36.687,3.393,52.205
		c7.221,10.358,17.519,19.117,28.82,25.83c1.046,0.623,2.115,1.236,3.196,1.843c8.27,1.538,16.774,2.065,25.326,1.863
		c-18.063-6.507-33.87-18.294-43.065-33.822c-5.361-9.055-8.585-19.229-8.438-29.535C38.084,84.935,39.122,78.483,41.448,72.577z"/>
</g>
<path d="M132.706,87.567c-4.294-3.526-5.871-8.071-5.371-12.293c0,0,11.7-25.77,4.781-37.299c-0.953-1.592-1.956-3.025-2.976-4.333
	c-3.723,4.793-8.082,8.958-11.663,11.801c-4.031,3.209-10.032,7.894-16.374,11.133c-0.647,1.167-1.269,2.342-1.818,3.559
	c-3.691,8.134-5.558,17.411-5.807,26.322c-0.269,9.674,1.22,18.484,3.926,27.723c0.86,2.941,2.235,6.065,3.368,9.255
	c1.513,0.32,2.736,0.587,3.245,0.729c2.165,0.562,5.751,1.195,10.98,1.195c0,0,9.552-0.653,7.829-9.458c0,0-4.159-4.013,1.723-4.283
	c0,0,3.631-3.338,0.527-5.086c0,0,5.114-2.933,3.758-5.073c-1.722-2.75-0.792-4.152,0.518-4.929
	C136.292,92.365,137.115,91.166,132.706,87.567z"/>
</svg>
