<?xml version="1.0" encoding="utf-8"?>
<!-- Generator: Adobe Illustrator 15.1.0, SVG Export Plug-In . SVG Version: 6.00 Build 0)  -->
<!DOCTYPE svg PUBLIC "-//W3C//DTD SVG 1.1//EN" "http://www.w3.org/Graphics/SVG/1.1/DTD/svg11.dtd">
<svg version="1.1" id="Layer_1" xmlns="http://www.w3.org/2000/svg" xmlns:xlink="http://www.w3.org/1999/xlink" x="0px" y="0px"
	 width="618.817px" height="185.096px" viewBox="0 0 618.817 185.096" enable-background="new 0 0 618.817 185.096"
	 xml:space="preserve">
<path fill="#E0F0E5" d="M15,351.726c0,0,102.56-77.177,227.983-80.537c125.424-3.356,201.58,77.361,390.834,84.081v17.826H15.163"/>
<path opacity="0.5" fill="#ACD9BB" d="M0,38.926c0,0,186.175,89.688,285.282,88.008c99.107-1.68,245.066-53.665,333.535-40.227
	v98.389H0V38.926z"/>
<rect x="676.054" y="88.131" fill="#73C493" width="101.36" height="101.36"/>
<rect x="676.308" y="189.518" fill="#73C493" width="25.415" height="25.41"/>
<polyline fill="#8FCEA7" points="726.995,189.496 701.732,189.496 701.732,214.906 727.142,214.906 726.995,214.906 
	726.995,189.496 "/>
<polyline fill="#ACD9BB" points="752.263,189.496 726.995,189.496 727.142,189.496 727.142,214.906 752.414,214.906 
	752.263,214.906 752.263,189.496 "/>
<polyline fill="#7FC89C" points="727.142,189.496 726.995,189.496 726.995,214.906 727.142,214.906 727.142,189.496 "/>
<polyline fill="#E0F0E5" points="777.677,189.496 752.263,189.496 752.414,189.496 752.414,214.906 777.677,214.906 
	777.677,189.496 "/>
<polyline fill="#A0D4B3" points="752.414,189.496 752.263,189.496 752.263,214.906 752.414,214.906 752.414,189.496 "/>
</svg>
