<?xml version="1.0" encoding="utf-8"?>
<!-- Generator: Adobe Illustrator 15.1.0, SVG Export Plug-In . SVG Version: 6.00 Build 0)  -->
<!DOCTYPE svg PUBLIC "-//W3C//DTD SVG 1.1//EN" "http://www.w3.org/Graphics/SVG/1.1/DTD/svg11.dtd">
<svg version="1.1" id="Layer_1" xmlns="http://www.w3.org/2000/svg" xmlns:xlink="http://www.w3.org/1999/xlink" x="0px" y="0px"
	 width="169px" height="617px" viewBox="215.909 -196.952 169 617" enable-background="new 215.909 -196.952 169 617"
	 xml:space="preserve">
<g id="Layer_2">
</g>
<path opacity="0.1" fill="#E87C95" enable-background="new    " d="M364.124,421.419c0,0-77.177-102.56-80.537-227.982
	c-3.357-125.424,77.361-201.581,84.081-390.834h17.826v618.653"/>
<path opacity="0.15" fill="#E87C95" enable-background="new    " d="M239.324,421.419c0,0,89.688-186.175,88.008-285.282
	c-1.68-99.106-53.666-245.065-40.227-333.534h98.389v618.816H239.324z"/>
<rect x="76.85" y="-174.869" fill="#E45A80" width="101.361" height="101.36"/>
<polyline fill="#E45A80" points="102.334,-73.482 102.334,-48.072 76.919,-48.072 76.919,-73.482 102.334,-73.482 "/>
<polyline fill="#E87C95" points="127.606,-73.504 102.342,-73.504 102.342,-48.094 127.753,-48.094 127.606,-48.094 
	127.606,-73.504 "/>
<polyline fill="#EC99AA" points="152.875,-73.504 127.606,-73.504 127.753,-73.504 127.753,-48.094 153.025,-48.094 
	152.875,-48.094 152.875,-73.504 "/>
<polyline fill="#E66888" points="127.753,-73.504 127.606,-73.504 127.606,-48.094 127.753,-48.094 127.753,-73.504 "/>
<polyline fill="#F8DBDE" points="178.289,-73.504 152.875,-73.504 153.025,-73.504 153.025,-48.094 178.289,-48.094 
	178.289,-73.504 "/>
<polyline fill="#EB8EA1" points="153.025,-73.504 152.875,-73.504 152.875,-48.094 153.025,-48.094 153.025,-73.504 "/>
</svg>
