<?xml version="1.0" encoding="utf-8"?>
<!-- Generator: Adobe Illustrator 15.1.0, SVG Export Plug-In . SVG Version: 6.00 Build 0)  -->
<!DOCTYPE svg PUBLIC "-//W3C//DTD SVG 1.1//EN" "http://www.w3.org/Graphics/SVG/1.1/DTD/svg11.dtd">
<svg version="1.1" id="Layer_1" xmlns="http://www.w3.org/2000/svg" xmlns:xlink="http://www.w3.org/1999/xlink" x="0px" y="0px"
	 width="618.817px" height="185.096px" viewBox="0 0 618.817 185.096" enable-background="new 0 0 618.817 185.096"
	 xml:space="preserve">
<g id="Layer_2">
</g>
<path opacity="0.1" fill="#CA1D8B" enable-background="new    " d="M0,163.726c0,0,102.56-77.177,227.983-80.537
	c125.424-3.354,201.58,77.361,390.834,84.081v17.826H0.163"/>
<path opacity="0.15" fill="#CA1D8B" enable-background="new    " d="M0,38.926c0,0,186.175,89.688,285.282,88.008
	c99.107-1.68,245.066-53.665,333.535-40.227v98.389H0V38.926z"/>
<text transform="matrix(1 0 0 1 57.978 -104.9695)" fill="#FFFFFF" font-family="'MyriadPro-Regular'" font-size="6.0553">40%</text>
<rect x="-1.055" y="-175.984" fill="#6D8E3C" width="72.413" height="59.899"/>
<rect x="-1.139" y="-115.948" fill="#6D8E3C" width="18.177" height="18.175"/>
<rect x="17.04" y="-115.959" opacity="0.8" fill="#6D8E3C" width="18.177" height="18.175"/>
<rect x="35.114" y="-115.959" opacity="0.6" fill="#6D8E3C" width="18.175" height="18.175"/>
<rect x="53.187" y="-115.959" opacity="0.4" fill="#6D8E3C" width="18.175" height="18.175"/>
<text transform="matrix(1 0 0 1 19.7036 -104.9695)" fill="#FFFFFF" font-family="'MyriadPro-Regular'" font-size="6.0553">80%</text>
<text transform="matrix(1 0 0 1 39.2349 -104.9695)" fill="#FFFFFF" font-family="'MyriadPro-Regular'" font-size="6.0553">60%</text>
<text transform="matrix(1 0 0 1 21.6763 -139.363)" fill="#FFFFFF" font-family="'MyriadPro-Regular'" font-size="12.6261">100%</text>
<rect x="107.674" y="-175.984" fill="#CA1D8B" width="71.69" height="59.301"/>
<rect x="107.632" y="-116.611" fill="#C91F8A" width="17.992" height="17.993"/>
<rect x="125.629" y="-116.626" opacity="0.8" fill="#C91F8A" width="17.996" height="17.993"/>
<rect x="143.523" y="-116.626" opacity="0.6" fill="#C91F8A" width="17.993" height="17.993"/>
<rect x="161.415" y="-116.626" opacity="0.4" fill="#C91F8A" width="17.994" height="17.993"/>
<text transform="matrix(1 0 0 1 128.7012 -105.6794)" fill="#FFFFFF" font-family="'MyriadPro-Regular'" font-size="5.9947">80%</text>
<text transform="matrix(1 0 0 1 148.0381 -105.6794)" fill="#FFFFFF" font-family="'MyriadPro-Regular'" font-size="5.9947">60%</text>
<text transform="matrix(1 0 0 1 166.5913 -105.6794)" fill="#FFFFFF" font-family="'MyriadPro-Regular'" font-size="5.9947">40%</text>
<text transform="matrix(1 0 0 1 130.6533 -139.7283)" fill="#FFFFFF" font-family="'MyriadPro-Regular'" font-size="12.4999">100%</text>
<rect x="215.782" y="-175.841" fill="#AE6CAC" width="72.332" height="59.834"/>
<rect x="215.697" y="-115.939" fill="#AE6CAC" width="18.155" height="18.153"/>
<rect x="233.858" y="-115.95" opacity="0.8" fill="#AE6CAC" width="18.156" height="18.153"/>
<rect x="251.91" y="-115.95" opacity="0.6" fill="#AE6CAC" width="18.155" height="18.153"/>
<rect x="269.964" y="-115.95" opacity="0.4" fill="#AE6CAC" width="18.153" height="18.153"/>
<text transform="matrix(1 0 0 1 237.3711 -104.9744)" fill="#FFFFFF" font-family="'MyriadPro-Regular'" font-size="6.0486">80%</text>
<text transform="matrix(1 0 0 1 256.8799 -104.9744)" fill="#FFFFFF" font-family="'MyriadPro-Regular'" font-size="6.0486">60%</text>
<text transform="matrix(1 0 0 1 275.6001 -104.9744)" fill="#FFFFFF" font-family="'MyriadPro-Regular'" font-size="6.0486">40%</text>
<text transform="matrix(1 0 0 1 239.3408 -139.3298)" fill="#FFFFFF" font-family="'MyriadPro-Regular'" font-size="12.6122">100%</text>
<rect x="323.011" y="-175.341" fill="#D7C527" width="72.851" height="60.263"/>
<rect x="322.968" y="-115.074" fill="#D7C527" width="18.284" height="18.285"/>
<rect x="341.259" y="-115.09" opacity="0.8" fill="#D6C527" width="18.287" height="18.287"/>
<rect x="359.441" y="-115.09" opacity="0.6" fill="#D6C527" width="18.285" height="18.287"/>
<rect x="377.624" y="-115.09" opacity="0.4" fill="#D6C527" width="18.285" height="18.287"/>
<text transform="matrix(1 0 0 1 344.8413 -103.9656)" fill="#FFFFFF" font-family="'MyriadPro-Regular'" font-size="6.0919">80%</text>
<text transform="matrix(1 0 0 1 364.4897 -103.9656)" fill="#FFFFFF" font-family="'MyriadPro-Regular'" font-size="6.0919">60%</text>
<text transform="matrix(1 0 0 1 383.3462 -103.9656)" fill="#FFFFFF" font-family="'MyriadPro-Regular'" font-size="6.0919">40%</text>
<text transform="matrix(1 0 0 1 346.8247 -138.5671)" fill="#FFFFFF" font-family="'MyriadPro-Regular'" font-size="12.7026">100%</text>
<rect x="432.193" y="-176.078" fill="#3A7DC0" width="71.172" height="58.873"/>
<rect x="432.149" y="-117.246" fill="#3A7DC0" width="17.864" height="17.863"/>
<rect x="450.018" y="-117.26" opacity="0.8" fill="#3A7DC0" width="17.866" height="17.863"/>
<rect x="467.781" y="-117.26" opacity="0.6" fill="#3A7DC0" width="17.867" height="17.863"/>
<rect x="485.544" y="-117.26" opacity="0.4" fill="#3A7DC0" width="17.864" height="17.863"/>
<text transform="matrix(1 0 0 1 453.1313 -106.1365)" fill="#FFFFFF" font-family="'MyriadPro-Regular'" font-size="5.9516">80%</text>
<text transform="matrix(1 0 0 1 472.3267 -106.1365)" fill="#FFFFFF" font-family="'MyriadPro-Regular'" font-size="5.9516">60%</text>
<text transform="matrix(1 0 0 1 490.7485 -106.1365)" fill="#FFFFFF" font-family="'MyriadPro-Regular'" font-size="5.9516">40%</text>
<text transform="matrix(1 0 0 1 455.0708 -139.9402)" fill="#FFFFFF" font-family="'MyriadPro-Regular'" font-size="12.4099">100%</text>
<text transform="matrix(1 0 0 1 129.2749 -59.1335)"><tspan x="0" y="0" fill="#CA1D8B" font-family="'MonotypeCorsiva'" font-size="31.1049">B</tspan><tspan x="18.666" y="0" fill="#CA1D8B" font-family="'MonotypeCorsiva'" font-size="23.4648">oca</tspan></text>
<text transform="matrix(1 0 0 1 119.2197 -81.2703)" fill="#CA1D8B" font-family="'MonotypeCorsiva'" font-size="14.3051">rrand </text>
<text transform="matrix(1 0 0 1 163.3672 -81.3601)" fill="#CA1D8B" font-family="'MonotypeCorsiva'" font-size="14.3051">irl</text>
<g>
	<path fill="#CA1D8B" d="M109.029-90.501v10.27h10.509v-10.27H109.029z M117.821-89.053c-0.156-0.059-0.745-0.088-1.766-0.088
		l-1.021,0.008l-0.768,3.08h1.443c0.455,0,0.736-0.035,0.84-0.102c0.105-0.068,0.182-0.236,0.228-0.506h0.397
		c-0.148,0.563-0.281,1.182-0.397,1.857h-0.356c0.023-0.219,0.035-0.389,0.035-0.51c0-0.051-0.033-0.115-0.098-0.189
		c-0.033-0.037-0.094-0.063-0.182-0.076c-0.126-0.023-0.322-0.035-0.588-0.035h-1.432c-0.414,1.582-0.843,2.82-1.288,3.719
		c0.434-0.137,0.817-0.205,1.153-0.205c0.559,0,1.244,0.088,2.055,0.266c0.43,0.098,0.721,0.146,0.874,0.146
		c0.205,0,0.37-0.051,0.497-0.152c0.125-0.104,0.188-0.219,0.188-0.348c0-0.074-0.031-0.195-0.095-0.363
		c-0.039-0.115-0.058-0.225-0.058-0.326c0-0.107,0.043-0.201,0.129-0.285s0.189-0.125,0.311-0.125c0.145,0,0.264,0.057,0.359,0.168
		s0.144,0.26,0.144,0.447c0,0.395-0.174,0.742-0.521,1.041c-0.348,0.297-0.806,0.445-1.374,0.445c-0.298,0-0.676-0.025-1.132-0.076
		c-1.002-0.111-1.767-0.168-2.293-0.168c-0.689,0-1.496,0.057-2.419,0.168l0.11-0.391c0.553-0.152,0.879-0.264,0.977-0.336
		c0.099-0.07,0.181-0.176,0.246-0.314c0.223-0.441,0.513-1.328,0.868-2.658s0.717-2.734,1.085-4.215
		c-0.561,0-1.09,0.133-1.588,0.398c-0.499,0.264-0.889,0.609-1.168,1.035s-0.42,0.873-0.42,1.342c0,0.201,0.02,0.375,0.06,0.523
		s0.13,0.359,0.269,0.629c0.089,0.162,0.133,0.295,0.133,0.396c0,0.104-0.043,0.193-0.128,0.271c-0.086,0.08-0.19,0.119-0.315,0.119
		c-0.182,0-0.324-0.09-0.432-0.271c-0.156-0.266-0.235-0.627-0.235-1.084c0-0.977,0.37-1.855,1.11-2.633s1.818-1.166,3.234-1.166
		h2.396c0.828,0,1.44-0.055,1.836-0.16c-0.186,0.775-0.305,1.328-0.355,1.654h-0.371c0.037-0.236,0.057-0.426,0.057-0.566
		C118.055-88.874,117.977-88.995,117.821-89.053z"/>
</g>
<g>
	<path fill="#CA1D8B" d="M163.775-90.546h-10.509v10.27h5.811c0.155-0.428,0.311-0.9,0.465-1.471
		c-0.308,0.168-0.619,0.295-0.937,0.381s-0.64,0.129-0.971,0.129c-0.819,0-1.465-0.215-1.935-0.648
		c-0.629-0.576-0.943-1.381-0.943-2.414c0-0.939,0.238-1.824,0.716-2.652s1.142-1.51,1.991-2.045s1.656-0.803,2.42-0.803
		c0.414,0,0.9,0.064,1.46,0.195c0.563,0.125,0.991,0.191,1.285,0.195c-0.257,0.885-0.384,1.691-0.384,2.418h-0.377
		c0.022-0.219,0.034-0.412,0.034-0.58c0-0.629-0.161-1.088-0.485-1.377s-0.723-0.432-1.197-0.432c-0.657,0-1.316,0.221-1.978,0.666
		c-0.661,0.443-1.202,1.064-1.624,1.859s-0.632,1.627-0.632,2.492c0,0.879,0.208,1.525,0.625,1.939s0.884,0.621,1.4,0.621
		c0.308,0,0.603-0.041,0.884-0.123c0.281-0.08,0.551-0.201,0.807-0.359c0.215-0.73,0.321-1.217,0.321-1.459
		c0-0.117-0.043-0.209-0.13-0.277c-0.086-0.066-0.238-0.102-0.457-0.102c-0.074,0-0.254,0.012-0.537,0.035l0.063-0.342
		c0.205-0.037,0.412-0.057,0.621-0.057c0.168,0,0.375,0.006,0.622,0.016c0.19,0.004,0.333,0.006,0.427,0.006
		c0.167,0,0.423-0.014,0.768-0.041c0.182-0.014,0.338-0.023,0.469-0.029l-0.078,0.357c-0.234-0.004-0.402,0.045-0.501,0.15
		c-0.099,0.104-0.202,0.377-0.311,0.82c-0.303,1.254-0.602,2.223-0.897,2.93h3.694V-90.546z"/>
</g>
<text transform="matrix(1 0 0 1 21.2749 -58.8835)"><tspan x="0" y="0" fill="#6D8E3C" font-family="'MonotypeCorsiva'" font-size="31.1049">B</tspan><tspan x="18.666" y="0" fill="#6D8E3C" font-family="'MonotypeCorsiva'" font-size="23.4648">oca</tspan></text>
<text transform="matrix(1 0 0 1 11.2197 -81.0203)" fill="#6D8E3C" font-family="'MonotypeCorsiva'" font-size="14.3051">rrand </text>
<text transform="matrix(1 0 0 1 55.3672 -81.1101)" fill="#6D8E3C" font-family="'MonotypeCorsiva'" font-size="14.3051">irl</text>
<g>
	<path fill="#6D8E3C" d="M1.029-90.251v10.27h10.509v-10.27H1.029z M9.821-88.803c-0.156-0.059-0.745-0.088-1.766-0.088
		l-1.021,0.008l-0.768,3.08h1.443c0.456,0,0.736-0.035,0.84-0.102c0.105-0.068,0.181-0.236,0.227-0.506h0.398
		c-0.149,0.563-0.282,1.182-0.398,1.857H8.42c0.023-0.219,0.035-0.389,0.035-0.51c0-0.051-0.033-0.115-0.098-0.189
		c-0.033-0.037-0.093-0.063-0.182-0.076c-0.125-0.023-0.321-0.035-0.587-0.035H6.156c-0.413,1.582-0.842,2.82-1.288,3.719
		c0.434-0.137,0.818-0.205,1.153-0.205c0.559,0,1.244,0.088,2.055,0.266c0.429,0.098,0.72,0.146,0.874,0.146
		c0.205,0,0.371-0.051,0.497-0.152c0.125-0.104,0.188-0.219,0.188-0.348c0-0.074-0.032-0.195-0.095-0.363
		c-0.039-0.115-0.058-0.225-0.058-0.326c0-0.107,0.043-0.201,0.129-0.285c0.086-0.084,0.19-0.125,0.311-0.125
		c0.144,0,0.264,0.057,0.359,0.168c0.096,0.111,0.144,0.26,0.144,0.447c0,0.395-0.174,0.742-0.521,1.041
		c-0.347,0.297-0.805,0.445-1.374,0.445c-0.298,0-0.676-0.025-1.132-0.076c-1.002-0.111-1.766-0.168-2.292-0.168
		c-0.69,0-1.496,0.057-2.419,0.168l0.111-0.391c0.552-0.152,0.878-0.264,0.976-0.336c0.099-0.07,0.181-0.176,0.246-0.314
		c0.223-0.441,0.513-1.328,0.868-2.658s0.717-2.734,1.084-4.215c-0.56,0-1.089,0.133-1.587,0.398
		c-0.499,0.264-0.888,0.609-1.168,1.035s-0.419,0.873-0.419,1.342c0,0.201,0.02,0.375,0.059,0.523s0.129,0.359,0.269,0.629
		c0.088,0.162,0.133,0.295,0.133,0.396c0,0.104-0.043,0.193-0.128,0.271c-0.086,0.08-0.191,0.119-0.316,0.119
		c-0.181,0-0.324-0.09-0.431-0.271c-0.157-0.266-0.236-0.627-0.236-1.084c0-0.977,0.37-1.855,1.111-2.633
		c0.74-0.777,1.818-1.166,3.234-1.166h2.396c0.829,0,1.441-0.055,1.837-0.16c-0.187,0.775-0.305,1.328-0.356,1.654h-0.37
		c0.037-0.236,0.056-0.426,0.056-0.566C10.055-88.624,9.977-88.745,9.821-88.803z"/>
</g>
<g>
	<path fill="#6D8E3C" d="M55.775-90.296H45.266v10.27h5.81c0.156-0.428,0.311-0.9,0.465-1.471c-0.307,0.168-0.619,0.295-0.936,0.381
		s-0.64,0.129-0.971,0.129c-0.82,0-1.465-0.215-1.935-0.648c-0.628-0.576-0.943-1.381-0.943-2.414c0-0.939,0.239-1.824,0.716-2.652
		c0.478-0.828,1.141-1.51,1.991-2.045c0.85-0.535,1.657-0.803,2.42-0.803c0.415,0,0.901,0.064,1.46,0.195
		c0.563,0.125,0.992,0.191,1.285,0.195c-0.256,0.885-0.384,1.691-0.384,2.418h-0.377c0.023-0.219,0.035-0.412,0.035-0.58
		c0-0.629-0.162-1.088-0.485-1.377s-0.723-0.432-1.198-0.432c-0.657,0-1.316,0.221-1.977,0.666
		c-0.661,0.443-1.203,1.064-1.624,1.859s-0.632,1.627-0.632,2.492c0,0.879,0.208,1.525,0.625,1.939
		c0.417,0.414,0.884,0.621,1.4,0.621c0.308,0,0.602-0.041,0.884-0.123c0.282-0.08,0.55-0.201,0.807-0.359
		c0.214-0.73,0.321-1.217,0.321-1.459c0-0.117-0.043-0.209-0.129-0.277c-0.086-0.066-0.238-0.102-0.458-0.102
		c-0.074,0-0.253,0.012-0.538,0.035l0.063-0.342c0.205-0.037,0.412-0.057,0.622-0.057c0.167,0,0.375,0.006,0.622,0.016
		c0.191,0.004,0.333,0.006,0.426,0.006c0.167,0,0.423-0.014,0.768-0.041c0.182-0.014,0.338-0.023,0.468-0.029l-0.077,0.357
		c-0.235-0.004-0.402,0.045-0.501,0.15c-0.099,0.104-0.202,0.377-0.311,0.82c-0.303,1.254-0.602,2.223-0.897,2.93h3.694V-90.296z"/>
</g>
<text transform="matrix(1 0 0 1 345.6079 -58.7996)"><tspan x="0" y="0" fill="#D7C527" font-family="'MonotypeCorsiva'" font-size="31.1049">B</tspan><tspan x="18.666" y="0" fill="#D7C527" font-family="'MonotypeCorsiva'" font-size="23.4648">oca</tspan></text>
<text transform="matrix(1 0 0 1 335.5532 -80.9363)" fill="#D7C527" font-family="'MonotypeCorsiva'" font-size="14.3051">rrand </text>
<text transform="matrix(1 0 0 1 379.7007 -81.0261)" fill="#D7C527" font-family="'MonotypeCorsiva'" font-size="14.3051">irl</text>
<g>
	<path fill="#D7C527" d="M325.362-90.169v10.27h10.51v-10.27H325.362z M334.155-88.721c-0.156-0.059-0.746-0.086-1.766-0.086
		l-1.021,0.006l-0.768,3.08h1.443c0.455,0,0.735-0.033,0.84-0.102c0.105-0.066,0.181-0.236,0.227-0.506h0.398
		c-0.148,0.564-0.281,1.184-0.398,1.857h-0.355c0.023-0.219,0.035-0.389,0.035-0.51c0-0.051-0.033-0.113-0.099-0.188
		c-0.032-0.037-0.093-0.063-0.182-0.078c-0.126-0.021-0.321-0.033-0.587-0.033h-1.433c-0.413,1.58-0.843,2.82-1.288,3.717
		c0.434-0.137,0.818-0.205,1.154-0.205c0.559,0,1.244,0.09,2.055,0.266c0.429,0.098,0.72,0.146,0.873,0.146
		c0.205,0,0.371-0.051,0.497-0.152s0.188-0.217,0.188-0.348c0-0.074-0.031-0.195-0.096-0.361c-0.039-0.115-0.058-0.225-0.058-0.326
		c0-0.107,0.043-0.203,0.129-0.285c0.087-0.084,0.19-0.127,0.312-0.127c0.144,0,0.264,0.057,0.359,0.168
		c0.096,0.113,0.143,0.262,0.143,0.447c0,0.396-0.174,0.742-0.521,1.041s-0.806,0.447-1.374,0.447c-0.298,0-0.676-0.025-1.132-0.076
		c-1.002-0.113-1.767-0.168-2.292-0.168c-0.69,0-1.496,0.055-2.42,0.168l0.111-0.391c0.553-0.152,0.878-0.264,0.977-0.336
		c0.098-0.072,0.18-0.176,0.246-0.314c0.223-0.443,0.512-1.328,0.867-2.658c0.355-1.332,0.717-2.736,1.085-4.215
		c-0.56,0-1.089,0.133-1.587,0.396c-0.5,0.266-0.889,0.611-1.168,1.037c-0.28,0.424-0.42,0.873-0.42,1.342
		c0,0.199,0.02,0.375,0.059,0.523c0.04,0.148,0.13,0.357,0.27,0.627c0.088,0.162,0.133,0.295,0.133,0.398
		c0,0.102-0.043,0.193-0.129,0.271s-0.19,0.119-0.315,0.119c-0.181,0-0.324-0.092-0.431-0.273c-0.157-0.266-0.236-0.625-0.236-1.082
		c0-0.979,0.371-1.855,1.111-2.633c0.74-0.779,1.818-1.168,3.234-1.168h2.396c0.829,0,1.44-0.053,1.837-0.16
		c-0.187,0.777-0.305,1.328-0.356,1.656h-0.37c0.037-0.238,0.057-0.426,0.057-0.566C334.389-88.54,334.311-88.663,334.155-88.721z"
		/>
</g>
<g>
	<path fill="#D7C527" d="M380.108-90.214H369.6v10.27h5.81c0.155-0.426,0.312-0.898,0.465-1.469
		c-0.308,0.168-0.619,0.295-0.937,0.381c-0.316,0.086-0.64,0.129-0.971,0.129c-0.819,0-1.465-0.217-1.935-0.648
		c-0.628-0.578-0.942-1.383-0.942-2.416c0-0.939,0.238-1.824,0.715-2.652c0.479-0.828,1.142-1.51,1.991-2.045
		c0.851-0.535,1.657-0.803,2.421-0.803c0.414,0,0.9,0.066,1.459,0.197c0.564,0.125,0.992,0.189,1.285,0.195
		c-0.256,0.885-0.383,1.689-0.383,2.416h-0.377c0.021-0.219,0.033-0.412,0.033-0.58c0-0.629-0.16-1.086-0.484-1.375
		s-0.723-0.434-1.197-0.434c-0.658,0-1.316,0.223-1.979,0.666c-0.66,0.445-1.202,1.064-1.623,1.859
		c-0.422,0.797-0.633,1.627-0.633,2.492c0,0.879,0.209,1.525,0.625,1.939c0.417,0.414,0.885,0.621,1.4,0.621
		c0.309,0,0.603-0.041,0.885-0.121c0.281-0.082,0.55-0.201,0.807-0.359c0.215-0.732,0.32-1.219,0.32-1.461
		c0-0.115-0.043-0.209-0.129-0.275c-0.086-0.068-0.238-0.102-0.457-0.102c-0.074,0-0.254,0.012-0.538,0.035l0.063-0.342
		c0.204-0.037,0.412-0.057,0.621-0.057c0.168,0,0.375,0.004,0.621,0.014c0.191,0.006,0.334,0.008,0.428,0.008
		c0.166,0,0.422-0.014,0.768-0.043c0.182-0.014,0.338-0.023,0.469-0.027l-0.078,0.355c-0.234-0.004-0.402,0.047-0.502,0.15
		c-0.098,0.105-0.201,0.379-0.311,0.82c-0.303,1.254-0.602,2.225-0.896,2.93h3.693V-90.214z"/>
</g>
<text transform="matrix(1 0 0 1 237.6084 -58.5496)"><tspan x="0" y="0" fill="#AE6CAC" font-family="'MonotypeCorsiva'" font-size="31.1049">B</tspan><tspan x="18.666" y="0" fill="#AE6CAC" font-family="'MonotypeCorsiva'" font-size="23.4648">oca</tspan></text>
<text transform="matrix(1 0 0 1 227.5532 -80.6863)" fill="#AE6CAC" font-family="'MonotypeCorsiva'" font-size="14.3051">rrand </text>
<text transform="matrix(1 0 0 1 271.7007 -80.7761)" fill="#AE6CAC" font-family="'MonotypeCorsiva'" font-size="14.3051">irl</text>
<g>
	<path fill="#AE6CAC" d="M217.362-89.919v10.27h10.51v-10.27H217.362z M226.155-88.471c-0.156-0.059-0.746-0.086-1.766-0.086
		l-1.021,0.006l-0.768,3.08h1.443c0.455,0,0.735-0.033,0.84-0.102c0.105-0.066,0.181-0.236,0.227-0.506h0.398
		c-0.148,0.564-0.281,1.184-0.398,1.857h-0.355c0.023-0.219,0.035-0.389,0.035-0.51c0-0.051-0.033-0.113-0.099-0.188
		c-0.032-0.037-0.093-0.063-0.182-0.078c-0.126-0.021-0.321-0.033-0.587-0.033h-1.433c-0.413,1.58-0.843,2.82-1.288,3.717
		c0.434-0.137,0.818-0.205,1.154-0.205c0.559,0,1.244,0.09,2.055,0.266c0.429,0.098,0.72,0.146,0.873,0.146
		c0.205,0,0.371-0.051,0.497-0.152s0.188-0.217,0.188-0.348c0-0.074-0.031-0.195-0.096-0.361c-0.039-0.115-0.058-0.225-0.058-0.326
		c0-0.107,0.043-0.203,0.129-0.285c0.087-0.084,0.19-0.127,0.312-0.127c0.144,0,0.264,0.057,0.359,0.168
		c0.096,0.113,0.143,0.262,0.143,0.447c0,0.396-0.174,0.742-0.521,1.041s-0.806,0.447-1.374,0.447c-0.298,0-0.676-0.025-1.132-0.076
		c-1.002-0.113-1.767-0.168-2.292-0.168c-0.69,0-1.496,0.055-2.42,0.168l0.111-0.391c0.553-0.152,0.878-0.264,0.977-0.336
		c0.098-0.072,0.18-0.176,0.246-0.314c0.223-0.443,0.512-1.328,0.867-2.658c0.355-1.332,0.717-2.736,1.085-4.215
		c-0.56,0-1.089,0.133-1.587,0.396c-0.5,0.266-0.889,0.611-1.168,1.037c-0.28,0.424-0.42,0.873-0.42,1.342
		c0,0.199,0.02,0.375,0.059,0.523c0.04,0.148,0.13,0.357,0.27,0.627c0.088,0.162,0.133,0.295,0.133,0.398
		c0,0.102-0.043,0.193-0.129,0.271s-0.19,0.119-0.315,0.119c-0.181,0-0.324-0.092-0.431-0.273c-0.157-0.266-0.236-0.625-0.236-1.082
		c0-0.979,0.371-1.855,1.111-2.633c0.74-0.779,1.818-1.168,3.234-1.168h2.396c0.829,0,1.44-0.053,1.837-0.16
		c-0.187,0.777-0.305,1.328-0.356,1.656h-0.37c0.037-0.238,0.057-0.426,0.057-0.566C226.389-88.29,226.311-88.413,226.155-88.471z"
		/>
</g>
<g>
	<path fill="#AE6CAC" d="M272.108-89.964H261.6v10.27h5.81c0.155-0.426,0.312-0.898,0.465-1.469
		c-0.308,0.168-0.619,0.295-0.937,0.381c-0.316,0.086-0.64,0.129-0.971,0.129c-0.819,0-1.465-0.217-1.935-0.648
		c-0.628-0.578-0.942-1.383-0.942-2.416c0-0.939,0.238-1.824,0.715-2.652c0.479-0.828,1.142-1.51,1.991-2.045
		c0.851-0.535,1.657-0.803,2.421-0.803c0.414,0,0.9,0.066,1.459,0.197c0.564,0.125,0.992,0.189,1.285,0.195
		c-0.256,0.885-0.384,1.689-0.384,2.416h-0.377c0.022-0.219,0.034-0.412,0.034-0.58c0-0.629-0.161-1.086-0.484-1.375
		c-0.324-0.289-0.724-0.434-1.198-0.434c-0.657,0-1.315,0.223-1.978,0.666c-0.66,0.445-1.202,1.064-1.623,1.859
		c-0.422,0.797-0.633,1.627-0.633,2.492c0,0.879,0.209,1.525,0.625,1.939c0.417,0.414,0.885,0.621,1.4,0.621
		c0.309,0,0.603-0.041,0.885-0.121c0.281-0.082,0.55-0.201,0.807-0.359c0.214-0.732,0.32-1.219,0.32-1.461
		c0-0.115-0.043-0.209-0.129-0.275c-0.086-0.068-0.238-0.102-0.457-0.102c-0.074,0-0.254,0.012-0.538,0.035l0.063-0.342
		c0.204-0.037,0.412-0.057,0.621-0.057c0.168,0,0.375,0.004,0.621,0.014c0.191,0.006,0.334,0.008,0.427,0.008
		c0.167,0,0.423-0.014,0.769-0.043c0.182-0.014,0.338-0.023,0.468-0.027l-0.077,0.355c-0.235-0.004-0.402,0.047-0.502,0.15
		c-0.098,0.105-0.201,0.379-0.311,0.82c-0.303,1.254-0.602,2.225-0.896,2.93h3.693V-89.964z"/>
</g>
<text transform="matrix(1 0 0 1 453.7603 -58.7859)"><tspan x="0" y="0" fill="#3A7DC0" font-family="'MonotypeCorsiva'" font-size="31.1049">B</tspan><tspan x="18.666" y="0" fill="#3A7DC0" font-family="'MonotypeCorsiva'" font-size="23.4648">oca</tspan></text>
<text transform="matrix(1 0 0 1 443.7046 -80.9226)" fill="#3A7DC0" font-family="'MonotypeCorsiva'" font-size="14.3051">rrand </text>
<text transform="matrix(1 0 0 1 487.8521 -81.0125)" fill="#3A7DC0" font-family="'MonotypeCorsiva'" font-size="14.3051">irl</text>
<g>
	<path fill="#3A7DC0" d="M433.513-90.153v10.27h10.51v-10.27H433.513z M442.306-88.706c-0.156-0.059-0.746-0.088-1.766-0.088
		l-1.021,0.008l-0.768,3.08h1.443c0.455,0,0.735-0.035,0.84-0.102c0.105-0.068,0.181-0.236,0.227-0.506h0.398
		c-0.148,0.563-0.281,1.182-0.398,1.857h-0.355c0.023-0.219,0.035-0.389,0.035-0.51c0-0.051-0.033-0.115-0.099-0.189
		c-0.032-0.037-0.093-0.063-0.182-0.076c-0.126-0.023-0.321-0.035-0.587-0.035h-1.433c-0.413,1.582-0.843,2.82-1.288,3.719
		c0.434-0.137,0.818-0.205,1.154-0.205c0.559,0,1.244,0.088,2.055,0.266c0.429,0.098,0.72,0.146,0.873,0.146
		c0.205,0,0.371-0.051,0.497-0.152c0.126-0.104,0.188-0.219,0.188-0.348c0-0.074-0.031-0.195-0.096-0.363
		c-0.039-0.115-0.058-0.225-0.058-0.326c0-0.107,0.043-0.201,0.129-0.285c0.087-0.084,0.19-0.125,0.312-0.125
		c0.144,0,0.264,0.057,0.359,0.168s0.143,0.26,0.143,0.447c0,0.395-0.174,0.742-0.521,1.041c-0.347,0.297-0.806,0.445-1.374,0.445
		c-0.298,0-0.676-0.025-1.132-0.076c-1.002-0.111-1.767-0.168-2.292-0.168c-0.69,0-1.496,0.057-2.42,0.168l0.111-0.391
		c0.553-0.152,0.878-0.264,0.977-0.336c0.098-0.07,0.18-0.176,0.246-0.314c0.223-0.441,0.512-1.328,0.867-2.658
		s0.717-2.734,1.085-4.215c-0.56,0-1.089,0.133-1.587,0.398c-0.5,0.264-0.889,0.609-1.168,1.035c-0.28,0.426-0.42,0.873-0.42,1.342
		c0,0.201,0.02,0.375,0.059,0.523c0.04,0.148,0.13,0.359,0.27,0.629c0.088,0.162,0.133,0.295,0.133,0.396
		c0,0.104-0.043,0.193-0.129,0.271c-0.086,0.08-0.19,0.119-0.315,0.119c-0.181,0-0.324-0.09-0.431-0.271
		c-0.157-0.266-0.236-0.627-0.236-1.084c0-0.977,0.371-1.855,1.111-2.633s1.818-1.166,3.234-1.166h2.396
		c0.829,0,1.44-0.055,1.837-0.16c-0.187,0.775-0.305,1.328-0.356,1.654h-0.37c0.037-0.236,0.057-0.426,0.057-0.566
		C442.541-88.526,442.462-88.647,442.306-88.706z"/>
</g>
<g>
	<path fill="#3A7DC0" d="M488.259-90.198h-10.508v10.27h5.81c0.155-0.428,0.312-0.9,0.465-1.471
		c-0.308,0.168-0.619,0.295-0.937,0.381c-0.316,0.086-0.64,0.129-0.971,0.129c-0.819,0-1.465-0.215-1.935-0.648
		c-0.628-0.576-0.942-1.381-0.942-2.414c0-0.939,0.238-1.824,0.715-2.652c0.479-0.828,1.142-1.51,1.991-2.045
		c0.851-0.535,1.657-0.803,2.421-0.803c0.414,0,0.9,0.064,1.459,0.195c0.564,0.125,0.992,0.191,1.285,0.195
		c-0.256,0.885-0.383,1.691-0.383,2.418h-0.377c0.021-0.219,0.033-0.412,0.033-0.58c0-0.629-0.16-1.088-0.484-1.377
		s-0.723-0.432-1.197-0.432c-0.658,0-1.316,0.221-1.979,0.666c-0.66,0.443-1.202,1.064-1.623,1.859
		c-0.422,0.795-0.633,1.627-0.633,2.492c0,0.879,0.209,1.525,0.625,1.939c0.417,0.414,0.885,0.621,1.4,0.621
		c0.309,0,0.603-0.041,0.885-0.123c0.281-0.08,0.55-0.201,0.807-0.359c0.215-0.73,0.32-1.217,0.32-1.459
		c0-0.117-0.043-0.209-0.129-0.277c-0.086-0.066-0.238-0.102-0.457-0.102c-0.074,0-0.254,0.012-0.538,0.035l0.063-0.342
		c0.204-0.037,0.412-0.057,0.621-0.057c0.168,0,0.375,0.006,0.621,0.016c0.191,0.004,0.334,0.006,0.428,0.006
		c0.166,0,0.422-0.014,0.768-0.041c0.182-0.014,0.338-0.023,0.469-0.029l-0.078,0.357c-0.234-0.004-0.402,0.045-0.502,0.15
		c-0.098,0.104-0.201,0.377-0.311,0.82c-0.303,1.254-0.602,2.223-0.896,2.93h3.693V-90.198z"/>
</g>
</svg>
