<?xml version="1.0" encoding="utf-8"?>
<!-- Generator: Adobe Illustrator 15.1.0, SVG Export Plug-In . SVG Version: 6.00 Build 0)  -->
<!DOCTYPE svg PUBLIC "-//W3C//DTD SVG 1.1//EN" "http://www.w3.org/Graphics/SVG/1.1/DTD/svg11.dtd">
<svg version="1.1" id="Layer_1" xmlns="http://www.w3.org/2000/svg" xmlns:xlink="http://www.w3.org/1999/xlink" x="0px" y="0px"
	 width="618.817px" height="185.096px" viewBox="0 0 618.817 185.096" enable-background="new 0 0 618.817 185.096"
	 xml:space="preserve">
<g id="Layer_2">
</g>
<path opacity="0.1" fill="#E87C95" enable-background="new    " d="M0,163.726c0,0,102.56-77.177,227.983-80.537
	c125.424-3.356,201.58,77.361,390.834,84.081v17.826H0.163"/>
<path opacity="0.15" fill="#E87C95" enable-background="new    " d="M0,38.926c0,0,186.175,89.688,285.282,88.008
	c99.107-1.68,245.066-53.665,333.535-40.227v98.389H0V38.926z"/>
<rect x="73.85" y="-174.869" fill="#E45A80" width="101.361" height="101.36"/>
<polyline fill="#E45A80" points="99.334,-73.482 99.334,-48.072 73.919,-48.072 73.919,-73.482 99.334,-73.482 "/>
<polyline fill="#E87C95" points="124.606,-73.504 99.342,-73.504 99.342,-48.094 124.753,-48.094 124.606,-48.094 124.606,-73.504 
	"/>
<polyline fill="#EC99AA" points="149.875,-73.504 124.606,-73.504 124.753,-73.504 124.753,-48.094 150.025,-48.094 
	149.875,-48.094 149.875,-73.504 "/>
<polyline fill="#E66888" points="124.753,-73.504 124.606,-73.504 124.606,-48.094 124.753,-48.094 124.753,-73.504 "/>
<polyline fill="#F8DBDE" points="175.289,-73.504 149.875,-73.504 150.025,-73.504 150.025,-48.094 175.289,-48.094 
	175.289,-73.504 "/>
<polyline fill="#EB8EA1" points="150.025,-73.504 149.875,-73.504 149.875,-48.094 150.025,-48.094 150.025,-73.504 "/>
</svg>
