<?xml version="1.0" encoding="utf-8"?>
<!-- Generator: Adobe Illustrator 15.1.0, SVG Export Plug-In . SVG Version: 6.00 Build 0)  -->
<!DOCTYPE svg PUBLIC "-//W3C//DTD SVG 1.1//EN" "http://www.w3.org/Graphics/SVG/1.1/DTD/svg11.dtd">
<svg version="1.1" xmlns="http://www.w3.org/2000/svg" xmlns:xlink="http://www.w3.org/1999/xlink" x="0px" y="0px"
	 width="618.817px" height="185.096px" viewBox="0 0 618.817 185.096" enable-background="new 0 0 618.817 185.096"
	 xml:space="preserve">
<g id="Layer_2">
	<g>
		<g>
			<rect x="367.565" y="211.417" opacity="0.8" fill="#32679A" enable-background="new    " width="72.564" height="72.563"/>
			<path fill="#FFFFFF" d="M388.713,227.338h30.268c2.877,0,5.229,2.353,5.229,5.225v30.271c0,2.875-2.35,5.225-5.229,5.225h-30.268
				c-2.875,0-5.229-2.35-5.229-5.225v-30.271C383.485,229.691,385.838,227.338,388.713,227.338z M413.151,231.86
				c-1.01,0-1.832,0.83-1.832,1.839v4.384c0,1.011,0.822,1.837,1.832,1.837h4.604c1.008,0,1.834-0.826,1.834-1.837v-4.384
				c0-1.01-0.826-1.839-1.834-1.839H413.151z M419.606,244.557h-3.584c0.34,1.111,0.523,2.28,0.523,3.496
				c0,6.772-5.67,12.264-12.662,12.264c-6.986,0-12.656-5.49-12.656-12.264c0-1.216,0.186-2.385,0.521-3.496h-3.736v17.205
				c0,0.891,0.727,1.615,1.617,1.615h28.357c0.891,0,1.615-0.726,1.615-1.615v-17.205H419.606z M403.883,239.684
				c-4.512,0-8.176,3.549-8.176,7.927c0,4.372,3.664,7.926,8.176,7.926c4.52,0,8.184-3.554,8.184-7.926
				C412.065,243.233,408.403,239.684,403.883,239.684z"/>
		</g>
		<g>
			<path opacity="0.3" fill="#F5F5F5" enable-background="new    " d="M367.549,280.472c0,0,12.008-12.677,26.691-13.228
				c14.68-0.553,23.727,12.699,45.883,13.805l-0.008,2.931h-72.545"/>
			
				<linearGradient id="SVGID_1_" gradientUnits="userSpaceOnUse" x1="367.5845" y1="879.0266" x2="440.147" y2="879.0266" gradientTransform="matrix(1 0 0 1 0 -605.9043)">
				<stop  offset="0" style="stop-color:#FFFFFF;stop-opacity:0.5"/>
				<stop  offset="1" style="stop-color:#FFFFFF;stop-opacity:0.48"/>
			</linearGradient>
			<path opacity="0.23" fill="url(#SVGID_1_)" enable-background="new    " d="M367.584,262.266c0,0,21.762,13.319,33.365,13.069
				c11.6-0.249,28.842-7.979,39.197-5.98l-0.041,14.625l-72.521-0.053V262.266z"/>
		</g>
	</g>
	<g>
		<g>
			<rect x="211.059" y="210.025" opacity="0.7" fill="#62CBEF" enable-background="new    " width="72.565" height="72.563"/>
			<path fill="#FFFFFF" d="M271.855,231.1c-1.805,0.8-3.745,1.342-5.775,1.583c2.075-1.245,3.671-3.214,4.422-5.563
				c-1.94,1.152-4.094,1.991-6.385,2.442c-1.837-1.958-4.452-3.177-7.341-3.177c-5.559,0-10.063,4.504-10.063,10.057
				c0,0.791,0.088,1.558,0.261,2.292c-8.36-0.419-15.771-4.422-20.732-10.511c-0.864,1.489-1.36,3.215-1.36,5.063
				c0,3.485,1.776,6.565,4.472,8.369c-1.647-0.049-3.2-0.506-4.554-1.259v0.126c0,4.873,3.467,8.94,8.067,9.864
				c-0.844,0.229-1.735,0.354-2.649,0.354c-0.647,0-1.281-0.064-1.896-0.184c1.284,3.994,4.994,6.904,9.398,6.986
				c-3.44,2.696-7.777,4.305-12.492,4.305c-0.812,0-1.612-0.05-2.397-0.141c4.449,2.852,9.738,4.516,15.42,4.516
				c18.5,0,28.618-15.323,28.618-28.615c0-0.434-0.012-0.866-0.029-1.304C268.799,234.889,270.504,233.116,271.855,231.1z"/>
		</g>
		<g>
			<path opacity="0.3" fill="#F5F5F5" enable-background="new    " d="M211.044,279.08c0,0,12.009-12.679,26.69-13.229
				c14.681-0.551,23.727,12.701,45.884,13.807l-0.009,2.931h-72.544"/>
			
				<linearGradient id="SVGID_2_" gradientUnits="userSpaceOnUse" x1="211.0791" y1="877.634" x2="283.6411" y2="877.634" gradientTransform="matrix(1 0 0 1 0 -605.9043)">
				<stop  offset="0" style="stop-color:#FFFFFF;stop-opacity:0.5"/>
				<stop  offset="1" style="stop-color:#FFFFFF;stop-opacity:0.48"/>
			</linearGradient>
			<path opacity="0.23" fill="url(#SVGID_2_)" enable-background="new    " d="M211.079,260.873c0,0,21.761,13.317,33.365,13.067
				c11.599-0.249,28.841-7.979,39.197-5.979l-0.041,14.626l-72.521-0.053V260.873L211.079,260.873z"/>
		</g>
	</g>
	<g>
		<g>
			<rect x="289.599" y="210.609" opacity="0.9" fill="#3A5B99" enable-background="new    " width="72.565" height="72.563"/>
			<path fill="#FFFFFF" d="M337.497,249.103l1.154-8.956h-8.867v-5.72c0-2.594,0.721-4.361,4.439-4.361h4.734v-8.008
				c-0.814-0.109-3.627-0.354-6.904-0.354c-6.84,0-11.52,4.173-11.52,11.839v6.604h-7.732v8.956h7.732v22.979h9.25v-22.979H337.497z
				"/>
		</g>
		<g>
			<path opacity="0.3" fill="#F5F5F5" enable-background="new    " d="M289.581,279.664c0,0,12.009-12.679,26.691-13.229
				c14.68-0.551,23.727,12.7,45.883,13.807l-0.008,2.93h-72.545"/>
			
				<linearGradient id="SVGID_3_" gradientUnits="userSpaceOnUse" x1="289.6162" y1="878.219" x2="362.1782" y2="878.219" gradientTransform="matrix(1 0 0 1 0 -605.9043)">
				<stop  offset="0" style="stop-color:#FFFFFF;stop-opacity:0.5"/>
				<stop  offset="1" style="stop-color:#FFFFFF;stop-opacity:0.48"/>
			</linearGradient>
			<path opacity="0.23" fill="url(#SVGID_3_)" enable-background="new    " d="M289.616,261.458c0,0,21.761,13.316,33.365,13.067
				c11.6-0.249,28.842-7.979,39.197-5.979l-0.041,14.625l-72.521-0.053V261.458z"/>
		</g>
	</g>
</g>
<g id="Layer_1">
	
		<linearGradient id="SVGID_4_" gradientUnits="userSpaceOnUse" x1="-4.768372e-007" y1="739.9954" x2="618.8169" y2="739.9954" gradientTransform="matrix(1 0 0 1 0 -605.9043)">
		<stop  offset="0" style="stop-color:#FFFFFF"/>
		<stop  offset="1" style="stop-color:#FFFFFF"/>
	</linearGradient>
	<path opacity="0.5" fill="url(#SVGID_4_)" enable-background="new    " d="M0,163.726c0,0,102.56-77.177,227.983-80.537
		c125.424-3.357,201.58,77.361,390.834,84.081v17.826H0.163"/>
	
		<linearGradient id="SVGID_5_" gradientUnits="userSpaceOnUse" x1="-4.768372e-007" y1="717.9143" x2="618.8169" y2="717.9143" gradientTransform="matrix(1 0 0 1 0 -605.9043)">
		<stop  offset="0" style="stop-color:#FFFFFF"/>
		<stop  offset="1" style="stop-color:#FFFFFF"/>
	</linearGradient>
	<path opacity="0.48" fill="url(#SVGID_5_)" enable-background="new    " d="M0,38.926c0,0,186.175,89.688,285.282,88.008
		c99.107-1.68,245.066-53.665,333.535-40.227v98.389H0V38.926z"/>
</g>
</svg>
